<svg width="2874" height="508" xmlns="http://www.w3.org/2000/svg" xmlns:xlink="http://www.w3.org/1999/xlink" xml:space="preserve" overflow="hidden"><g transform="translate(-870 -3109)"><rect x="1585.5" y="3133.5" width="495" height="458" stroke="#000000" stroke-width="6.875" stroke-miterlimit="8" fill="none"/><rect x="1655.5" y="3112.5" width="495" height="501" stroke="#FFFFFF" stroke-width="6.875" stroke-miterlimit="8" fill="#FFFFFF"/><rect x="0" y="0" width="495" height="458" stroke="#000000" stroke-width="6.875" stroke-miterlimit="8" fill="none" transform="matrix(-1 0 0 1 3740.5 3133.5)"/><rect x="0" y="0" width="495" height="501" stroke="#FFFFFF" stroke-width="6.875" stroke-miterlimit="8" fill="#FFFFFF" transform="matrix(-1 0 0 1 3670.5 3112.5)"/><rect x="870" y="3180" width="495" height="365" fill="#3B7D23"/><text fill="#FFFFFF" font-family="Arial,Arial_MSFontService,sans-serif" font-weight="700" font-size="64" transform="matrix(1 0 0 1 991.656 3386)">Demand</text><rect x="3199" y="3180" width="495" height="365" fill="#C04F15"/><text fill="#FFFFFF" font-family="Arial,Arial_MSFontService,sans-serif" font-weight="700" font-size="64" transform="matrix(1 0 0 1 3279.61 3386)">Timeseries</text><rect x="1620" y="3180" width="495" height="365" fill="#156082"/><text fill="#FFFFFF" font-family="Arial,Arial_MSFontService,sans-serif" font-weight="700" font-size="64" transform="matrix(1 0 0 1 1803.76 3347)">Low</text><text fill="#FFFFFF" font-family="Arial,Arial_MSFontService,sans-serif" font-weight="700" font-size="64" transform="matrix(1 0 0 1 1714.96 3424)">frequency</text><rect x="2410" y="3180" width="495" height="365" fill="#156082"/><text fill="#FFFFFF" font-family="Arial,Arial_MSFontService,sans-serif" font-weight="700" font-size="64" transform="matrix(1 0 0 1 2586.95 3347)">High </text><text fill="#FFFFFF" font-family="Arial,Arial_MSFontService,sans-serif" font-weight="700" font-size="64" transform="matrix(1 0 0 1 2505.3 3424)">frequency</text><text font-family="Arial,Arial_MSFontService,sans-serif" font-weight="400" font-size="110" transform="matrix(1 0 0 1 1424.37 3402)">= f</text><text font-family="Arial,Arial_MSFontService,sans-serif" font-weight="400" font-size="110" transform="matrix(1 0 0 1 2241.22 3402)">+</text><text font-family="Arial,Arial_MSFontService,sans-serif" font-weight="400" font-size="110" transform="matrix(1 0 0 1 3029.56 3402)">+</text></g></svg>