<svg width="2314" height="1400" xmlns="http://www.w3.org/2000/svg" xmlns:xlink="http://www.w3.org/1999/xlink" xml:space="preserve" overflow="hidden"><defs><clipPath id="clip0"><rect x="99" y="1550" width="2314" height="1400"/></clipPath></defs><g clip-path="url(#clip0)" transform="translate(-99 -1550)"><g><rect x="1036" y="2513" width="87" height="68.9998" fill="#C00000"/></g><g><path d="M1157.04 2388.08 1036.03 2388.08 1036.03 2319.08 1157.04 2319.08ZM1478.05 2194.07 1036.03 2194.07 1036.03 2126.07 1478.05 2126.07ZM1273.04 2001.07 1036.03 2001.07 1036.03 1932.06 1273.04 1932.06Z" fill="#071420"/></g><g><path d="M0 0 0.000360892 775" stroke="#D9D9D9" stroke-width="3.4375" stroke-linejoin="round" stroke-miterlimit="10" fill="none" fill-rule="evenodd" transform="matrix(1 0 0 -1 1036.5 2644.5)"/></g><g><text fill="#404040" font-family="Arial,Arial_MSFontService,sans-serif" font-weight="400" font-size="50" transform="matrix(1 0 0 1 1150.61 2566)">2.8%</text></g><g><text fill="#404040" font-family="Arial,Arial_MSFontService,sans-serif" font-weight="400" font-size="50" transform="matrix(1 0 0 1 1184.16 2372)">3.9%</text></g><g><text fill="#404040" font-family="Arial,Arial_MSFontService,sans-serif" font-weight="400" font-size="50" transform="matrix(1 0 0 1 1490.76 2178)">14.2%</text></g><g><text fill="#404040" font-family="Arial,Arial_MSFontService,sans-serif" font-weight="400" font-size="50" transform="matrix(1 0 0 1 1300.2 1984)">7.6%</text></g><g><text fill="#FFFFFF" font-family="Arial,Arial_MSFontService,sans-serif" font-weight="400" font-size="50" transform="matrix(1 0 0 1 883.43 2564)">GDP</text></g><g><text fill="#FFFFFF" font-family="Arial,Arial_MSFontService,sans-serif" font-weight="400" font-size="50" transform="matrix(1 0 0 1 788.051 2370)">Non-tech</text></g><g><text fill="#FFFFFF" font-family="Arial,Arial_MSFontService,sans-serif" font-weight="400" font-size="50" transform="matrix(1 0 0 1 880.566 2176)">Tech</text></g><g><text fill="#FFFFFF" font-family="Arial,Arial_MSFontService,sans-serif" font-weight="400" font-size="50" transform="matrix(1 0 0 1 835.672 1983)">Top 40</text></g><g><text font-family="Aptos,Aptos_MSFontService,sans-serif" font-weight="700" font-size="60" transform="matrix(1 0 0 1 1177.25 1795)">2024</text></g><g><rect x="355" y="2513" width="61.9999" height="68.9998" fill="#C00000"/></g><g><path d="M362.012 2388.08 355.012 2388.08 355.012 2319.08 362.012 2319.08ZM820.027 2194.07 355.012 2194.07 355.012 2126.07 820.027 2126.07ZM539.018 2001.07 355.012 2001.07 355.012 1932.06 539.018 1932.06Z" fill="#071420"/></g><g><path d="M0 0 0.000360892 775" stroke="#D9D9D9" stroke-width="3.4375" stroke-linejoin="round" stroke-miterlimit="10" fill="none" fill-rule="evenodd" transform="matrix(1 0 0 -1 354.5 2644.5)"/></g><g><text font-family="Arial,Arial_MSFontService,sans-serif" font-weight="400" font-size="50" transform="matrix(1 0 0 1 444.006 2566)">2.1%</text></g><g><text font-family="Arial,Arial_MSFontService,sans-serif" font-weight="400" font-size="50" transform="matrix(1 0 0 1 389.315 2372)">0.2%</text></g><g><text font-family="Arial,Arial_MSFontService,sans-serif" font-weight="400" font-size="50" transform="matrix(1 0 0 1 829.438 2178)">15.9%</text></g><g><text font-family="Arial,Arial_MSFontService,sans-serif" font-weight="400" font-size="50" transform="matrix(1 0 0 1 566.573 1984)">6.3%</text></g><g><text font-family="Arial,Arial_MSFontService,sans-serif" font-weight="400" font-size="50" transform="matrix(1 0 0 1 201.941 2564)">GDP</text></g><g><text font-family="Arial,Arial_MSFontService,sans-serif" font-weight="400" font-size="50" transform="matrix(1 0 0 1 106.561 2370)">Non-tech</text></g><g><text font-family="Arial,Arial_MSFontService,sans-serif" font-weight="400" font-size="50" transform="matrix(1 0 0 1 199.077 2176)">Tech</text></g><g><text font-family="Arial,Arial_MSFontService,sans-serif" font-weight="400" font-size="50" transform="matrix(1 0 0 1 154.183 1983)">Top 40</text></g><g><text font-family="Aptos,Aptos_MSFontService,sans-serif" font-weight="700" font-size="60" transform="matrix(1 0 0 1 515.93 1795)">2025</text></g><g><rect x="1900" y="2513" width="74.9999" height="68.9998" fill="#C00000"/></g><g><path d="M1795.06 2388.08 1900.06 2388.08 1900.06 2319.08 1795.06 2319.08ZM2178.07 2194.07 1900.06 2194.07 1900.06 2126.07 2178.07 2126.07ZM1914.06 2001.07 1900.06 2001.07 1900.06 1932.06 1914.06 1932.06Z" fill="#071420"/></g><g><path d="M0 0 0.000360892 775" stroke="#D9D9D9" stroke-width="3.4375" stroke-linejoin="round" stroke-miterlimit="10" fill="none" fill-rule="evenodd" transform="matrix(1 0 0 -1 1899.5 2644.5)"/></g><g><path d="M1884.5 2644.5 1899.5 2644.5M1884.5 2450.58 1899.5 2450.58M1884.5 2256.57 1899.5 2256.57M1884.5 2063.57 1899.5 2063.57M1884.5 1869.5 1899.5 1869.5" stroke="#D9D9D9" stroke-width="3.4375" stroke-linejoin="round" stroke-miterlimit="10" fill="none"/></g><g><text fill="#404040" font-family="Arial,Arial_MSFontService,sans-serif" font-weight="400" font-size="50" transform="matrix(1 0 0 1 2002.57 2566)">2.9%</text></g><g><text fill="#404040" font-family="Arial,Arial_MSFontService,sans-serif" font-weight="400" font-size="50" transform="matrix(1 0 0 1 1636.15 2372)">-</text></g><g><text fill="#404040" font-family="Arial,Arial_MSFontService,sans-serif" font-weight="400" font-size="50" transform="matrix(1 0 0 1 1652.95 2372)">4.0%</text></g><g><text fill="#404040" font-family="Arial,Arial_MSFontService,sans-serif" font-weight="400" font-size="50" transform="matrix(1 0 0 1 2205.85 2178)">10.8%</text></g><g><text fill="#404040" font-family="Arial,Arial_MSFontService,sans-serif" font-weight="400" font-size="50" transform="matrix(1 0 0 1 1942.06 1984)">0.6%</text></g><g><text font-family="Aptos,Aptos_MSFontService,sans-serif" font-weight="700" font-size="60" transform="matrix(1 0 0 1 1906.22 1795)">2023</text></g><text font-family="Arial,Arial_MSFontService,sans-serif" font-weight="700" font-size="64" transform="matrix(1 0 0 1 506.034 1632)">GROWTH OF AMERICA’S </text><text font-family="Arial,Arial_MSFontService,sans-serif" font-weight="700" font-size="64" transform="matrix(1 0 0 1 1294.76 1632)">LARGEST </text><text font-family="Arial,Arial_MSFontService,sans-serif" font-weight="700" font-size="64" transform="matrix(1 0 0 1 1619.03 1632)">ENTERPRISES</text><text font-family="Arial,Arial_MSFontService,sans-serif" font-weight="400" font-size="60" transform="matrix(1 0 0 1 846.461 1705)">Value</text><text font-family="Arial,Arial_MSFontService,sans-serif" font-weight="400" font-size="60" transform="matrix(1 0 0 1 994.434 1705)">-</text><text font-family="Arial,Arial_MSFontService,sans-serif" font-weight="400" font-size="60" transform="matrix(1 0 0 1 1014.49 1705)">added growth year</text><text font-family="Arial,Arial_MSFontService,sans-serif" font-weight="400" font-size="60" transform="matrix(1 0 0 1 1509.49 1705)">-</text><text font-family="Arial,Arial_MSFontService,sans-serif" font-weight="400" font-size="60" transform="matrix(1 0 0 1 1529.54 1705)">on</text><text font-family="Arial,Arial_MSFontService,sans-serif" font-weight="400" font-size="60" transform="matrix(1 0 0 1 1596 1705)">-</text><text font-family="Arial,Arial_MSFontService,sans-serif" font-weight="400" font-size="60" transform="matrix(1 0 0 1 1616.05 1705)">year</text><text font-family="Arial,Arial_MSFontService,sans-serif" font-weight="400" font-size="46" transform="matrix(1 0 0 1 364.598 2757)">Note: The sum of a country’s VA = GDP. Therefore, the metrics are directly </text><text font-family="Arial,Arial_MSFontService,sans-serif" font-weight="400" font-size="46" transform="matrix(1 0 0 1 1891.99 2757)">comparable</text><text font-family="Arial,Arial_MSFontService,sans-serif" font-weight="400" font-size="46" transform="matrix(1 0 0 1 364.598 2812)">Source: </text><text font-family="Arial,Arial_MSFontService,sans-serif" font-weight="400" font-size="46" transform="matrix(1 0 0 1 534.181 2812)">Tellusant analysis; 10</text><text font-family="Arial,Arial_MSFontService,sans-serif" font-weight="400" font-size="46" transform="matrix(1 0 0 1 972.462 2812)">-</text><text font-family="Arial,Arial_MSFontService,sans-serif" font-weight="400" font-size="46" transform="matrix(1 0 0 1 987.931 2812)">K; </text><text font-family="Arial,Arial_MSFontService,sans-serif" font-weight="400" font-size="46" transform="matrix(1 0 0 1 1043.5 2812)">Yahoo Finance; </text><text font-family="Arial,Arial_MSFontService,sans-serif" font-weight="400" font-size="46" transform="matrix(1 0 0 1 1374.65 2812)">FRED</text></g></svg>