<svg width="3453" height="2260" xmlns="http://www.w3.org/2000/svg" xmlns:xlink="http://www.w3.org/1999/xlink" xml:space="preserve" overflow="hidden"><g transform="translate(-604 -116)"><path d="M0 0 274.593 838.797" stroke="#7F7F7F" stroke-width="4.58333" stroke-miterlimit="8" fill="none" fill-rule="evenodd" transform="matrix(1 0 0 -1 1203.5 1262.3)"/><path d="M0 0 274.593 514.321" stroke="#7F7F7F" stroke-width="4.58333" stroke-miterlimit="8" fill="none" fill-rule="evenodd" transform="matrix(1 0 0 -1 1203.5 1261.82)"/><path d="M0 0 274.593 178.802" stroke="#7F7F7F" stroke-width="4.58333" stroke-miterlimit="8" fill="none" fill-rule="evenodd" transform="matrix(1 0 0 -1 1203.5 1262.3)"/><path d="M1203.5 1262.5 1478.09 1419.22" stroke="#7F7F7F" stroke-width="4.58333" stroke-miterlimit="8" fill="none" fill-rule="evenodd"/><path d="M1203.5 1262.5 1478.09 1754.74" stroke="#7F7F7F" stroke-width="4.58333" stroke-miterlimit="8" fill="none" fill-rule="evenodd"/><path d="M1203.5 1262.5 1478.09 2090.25" stroke="#7F7F7F" stroke-width="4.58333" stroke-miterlimit="8" fill="none" fill-rule="evenodd"/><path d="M609 1191.83C609 1172.6 624.596 1157 643.834 1157L1168.17 1157C1187.4 1157 1203 1172.6 1203 1191.83L1203 1331.17C1203 1350.4 1187.4 1366 1168.17 1366L643.834 1366C624.596 1366 609 1350.4 609 1331.17Z" stroke="#00124D" stroke-width="10.3125" stroke-linejoin="round" stroke-miterlimit="10" fill="#D4DEFF" fill-rule="evenodd" fill-opacity="0.4"/><text font-family="Arial,Arial_MSFontService,sans-serif" font-weight="700" font-size="64" transform="matrix(1 0 0 1 777.353 1246)">PoluSim</text><text font-family="Arial,Arial_MSFontService,sans-serif" font-weight="700" font-size="64" transform="matrix(1 0 0 1 751.297 1323)">use</text><text font-family="Arial,Arial_MSFontService,sans-serif" font-weight="700" font-size="64" transform="matrix(1 0 0 1 861.297 1323)">-</text><text font-family="Arial,Arial_MSFontService,sans-serif" font-weight="700" font-size="64" transform="matrix(1 0 0 1 882.495 1323)">cases</text><path d="M1477 353.668C1477 334.521 1492.52 319 1511.67 319L2036.33 319C2055.48 319 2071 334.521 2071 353.668L2071 492.332C2071 511.479 2055.48 527 2036.33 527L1511.67 527C1492.52 527 1477 511.479 1477 492.332Z" stroke="#C57B57" stroke-width="10.3125" stroke-linejoin="round" stroke-miterlimit="10" fill="#F3E5DD" fill-rule="evenodd"/><text font-family="Arial,Arial_MSFontService,sans-serif" font-weight="400" font-size="64" transform="matrix(1 0 0 1 1578.64 408)">Strategic plan </text><text font-family="Arial,Arial_MSFontService,sans-serif" font-weight="400" font-size="64" transform="matrix(1 0 0 1 1644.53 485)">forecasts</text><path d="M1477 677.834C1477 658.596 1492.6 643 1511.83 643L2036.17 643C2055.4 643 2071 658.596 2071 677.834L2071 817.166C2071 836.405 2055.4 852 2036.17 852L1511.83 852C1492.6 852 1477 836.405 1477 817.166Z" stroke="#C57B57" stroke-width="10.3125" stroke-linejoin="round" stroke-miterlimit="10" fill="#F3E5DD" fill-rule="evenodd"/><text font-family="Arial,Arial_MSFontService,sans-serif" font-weight="400" font-size="64" transform="matrix(1 0 0 1 1605.28 732)">Annual plan </text><text font-family="Arial,Arial_MSFontService,sans-serif" font-weight="400" font-size="64" transform="matrix(1 0 0 1 1660.58 809)">budgets</text><path d="M1477 1013.67C1477 994.521 1492.52 979 1511.67 979L2036.33 979C2055.48 979 2071 994.521 2071 1013.67L2071 1152.33C2071 1171.48 2055.48 1187 2036.33 1187L1511.67 1187C1492.52 1187 1477 1171.48 1477 1152.33Z" stroke="#C57B57" stroke-width="10.3125" stroke-linejoin="round" stroke-miterlimit="10" fill="#F3E5DD" fill-rule="evenodd"/><text font-family="Arial,Arial_MSFontService,sans-serif" font-weight="400" font-size="64" transform="matrix(1 0 0 1 1537.96 1068)">Marketing spend </text><text font-family="Arial,Arial_MSFontService,sans-serif" font-weight="400" font-size="64" transform="matrix(1 0 0 1 1601.83 1145)">prioritization</text><path d="M1477 1348.83C1477 1329.6 1492.6 1314 1511.83 1314L2036.17 1314C2055.4 1314 2071 1329.6 2071 1348.83L2071 1488.17C2071 1507.4 2055.4 1523 2036.17 1523L1511.83 1523C1492.6 1523 1477 1507.4 1477 1488.17Z" stroke="#C57B57" stroke-width="10.3125" stroke-linejoin="round" stroke-miterlimit="10" fill="#F3E5DD" fill-rule="evenodd"/><text font-family="Arial,Arial_MSFontService,sans-serif" font-weight="400" font-size="64" transform="matrix(1 0 0 1 1553.72 1404)">Premiumization</text><text font-family="Arial,Arial_MSFontService,sans-serif" font-weight="400" font-size="64" transform="matrix(1 0 0 1 1591.26 1481)">opportunities</text><path d="M1477 1684.83C1477 1665.6 1492.6 1650 1511.83 1650L2036.17 1650C2055.4 1650 2071 1665.6 2071 1684.83L2071 1824.17C2071 1843.4 2055.4 1859 2036.17 1859L1511.83 1859C1492.6 1859 1477 1843.4 1477 1824.17Z" stroke="#C57B57" stroke-width="10.3125" stroke-linejoin="round" stroke-miterlimit="10" fill="#F3E5DD" fill-rule="evenodd"/><text font-family="Arial,Arial_MSFontService,sans-serif" font-weight="400" font-size="64" transform="matrix(1 0 0 1 1578.64 1739)">Portfolio gaps</text><text font-family="Arial,Arial_MSFontService,sans-serif" font-weight="400" font-size="64" transform="matrix(1 0 0 1 1596.4 1816)">identification</text><path d="M1477 2019.83C1477 2000.6 1492.6 1985 1511.83 1985L2036.17 1985C2055.4 1985 2071 2000.6 2071 2019.83L2071 2159.17C2071 2178.4 2055.4 2194 2036.17 2194L1511.83 2194C1492.6 2194 1477 2178.4 1477 2159.17Z" stroke="#C57B57" stroke-width="10.3125" stroke-linejoin="round" stroke-miterlimit="10" fill="#F3E5DD" fill-rule="evenodd"/><text font-family="Arial,Arial_MSFontService,sans-serif" font-weight="400" font-size="64" transform="matrix(1 0 0 1 1594.68 2075)">Fixed assets</text><text font-family="Arial,Arial_MSFontService,sans-serif" font-weight="400" font-size="64" transform="matrix(1 0 0 1 1546.56 2152)">location choices</text><path d="M3381 958 3381 1222" stroke="#BFBFBF" stroke-width="27.5" stroke-miterlimit="8" fill="none" fill-rule="evenodd"/><path d="M3381 619 3381 883" stroke="#BFBFBF" stroke-width="27.5" stroke-miterlimit="8" fill="none" fill-rule="evenodd"/><path d="M3381 1624 3381 1888" stroke="#BFBFBF" stroke-width="27.5" stroke-miterlimit="8" fill="none" fill-rule="evenodd"/><path d="M3381 1291 3381 1555" stroke="#BFBFBF" stroke-width="27.5" stroke-miterlimit="8" fill="none" fill-rule="evenodd"/><path d="M3381 1959 3381 2223" stroke="#BFBFBF" stroke-width="27.5" stroke-miterlimit="8" fill="none" fill-rule="evenodd"/><path d="M3381 291 3381 555" stroke="#BFBFBF" stroke-width="27.5" stroke-miterlimit="8" fill="none" fill-rule="evenodd"/><text font-family="Arial,Arial_MSFontService,sans-serif" font-weight="400" font-size="64" transform="matrix(1 0 0 1 3453.57 329)">Strategic planning</text><text font-family="Arial,Arial_MSFontService,sans-serif" font-weight="400" font-size="64" transform="matrix(1 0 0 1 3453.57 406)">Marketing</text><text font-family="Arial,Arial_MSFontService,sans-serif" font-weight="400" font-size="64" transform="matrix(1 0 0 1 3453.57 483)">Sales &amp; Distribution</text><text font-family="Arial,Arial_MSFontService,sans-serif" font-weight="400" font-size="64" transform="matrix(1 0 0 1 3453.57 560)">Finance</text><text font-family="Arial,Arial_MSFontService,sans-serif" font-weight="400" font-size="64" transform="matrix(1 0 0 1 3453.57 696)">Sales&amp; Distribution</text><text font-family="Arial,Arial_MSFontService,sans-serif" font-weight="400" font-size="64" transform="matrix(1 0 0 1 3453.57 773)">Marketing</text><text font-family="Arial,Arial_MSFontService,sans-serif" font-weight="400" font-size="64" transform="matrix(1 0 0 1 3453.57 850)">Finance</text><text font-family="Arial,Arial_MSFontService,sans-serif" font-weight="400" font-size="64" transform="matrix(1 0 0 1 3453.57 1074)">Marketing</text><text font-family="Arial,Arial_MSFontService,sans-serif" font-weight="400" font-size="64" transform="matrix(1 0 0 1 3453.57 1151)">Finance</text><text font-family="Arial,Arial_MSFontService,sans-serif" font-weight="400" font-size="64" transform="matrix(1 0 0 1 3453.57 1407)">Marketing</text><text font-family="Arial,Arial_MSFontService,sans-serif" font-weight="400" font-size="64" transform="matrix(1 0 0 1 3453.57 1484)">Regional sales</text><text font-family="Arial,Arial_MSFontService,sans-serif" font-weight="400" font-size="64" transform="matrix(1 0 0 1 3453.57 1740)">Marketing</text><text font-family="Arial,Arial_MSFontService,sans-serif" font-weight="400" font-size="64" transform="matrix(1 0 0 1 3453.57 1817)">Strategic planning</text><text font-family="Arial,Arial_MSFontService,sans-serif" font-weight="400" font-size="64" transform="matrix(1 0 0 1 3453.57 2036)">Supply chain</text><text font-family="Arial,Arial_MSFontService,sans-serif" font-weight="400" font-size="64" transform="matrix(1 0 0 1 3453.57 2113)">Finance</text><text font-family="Arial,Arial_MSFontService,sans-serif" font-weight="400" font-size="64" transform="matrix(1 0 0 1 3453.57 2190)">Strategic planning</text><text font-family="Arial,Arial_MSFontService,sans-serif" font-weight="400" font-size="55" transform="matrix(1 0 0 1 2127.13 376)">Create fact</text><text font-family="Arial,Arial_MSFontService,sans-serif" font-weight="400" font-size="55" transform="matrix(1 0 0 1 2395.83 376)">-</text><text font-family="Arial,Arial_MSFontService,sans-serif" font-weight="400" font-size="55" transform="matrix(1 0 0 1 2414.16 376)">based forecasts anchored in the </text><text font-family="Arial,Arial_MSFontService,sans-serif" font-weight="400" font-size="55" transform="matrix(1 0 0 1 2127.13 442)">economic realties of </text><text font-family="Arial,Arial_MSFontService,sans-serif" font-weight="400" font-size="55" transform="matrix(1 0 0 1 2630.15 442)">the market</text><text font-family="Arial,Arial_MSFontService,sans-serif" font-weight="400" font-size="55" transform="matrix(1 0 0 1 2889.68 442)">. </text><text font-family="Arial,Arial_MSFontService,sans-serif" font-weight="400" font-size="55" transform="matrix(1 0 0 1 2919.64 442)">They have a </text><text font-family="Arial,Arial_MSFontService,sans-serif" font-weight="400" font-size="55" transform="matrix(1 0 0 1 2127.13 508)">statistical and a judgment</text><text font-family="Arial,Arial_MSFontService,sans-serif" font-weight="400" font-size="55" transform="matrix(1 0 0 1 2745.88 508)">-</text><text font-family="Arial,Arial_MSFontService,sans-serif" font-weight="400" font-size="55" transform="matrix(1 0 0 1 2764.22 508)">based component</text><text font-family="Arial,Arial_MSFontService,sans-serif" font-weight="400" font-size="55" transform="matrix(1 0 0 1 2127.13 704)">Use as backstop for budgeting to see if proposed </text><text font-family="Arial,Arial_MSFontService,sans-serif" font-weight="400" font-size="55" transform="matrix(1 0 0 1 2127.13 770)">budgets are well aligned with demand </text><text font-family="Arial,Arial_MSFontService,sans-serif" font-weight="400" font-size="55" transform="matrix(1 0 0 1 2127.13 836)">expectations</text><text font-family="Arial,Arial_MSFontService,sans-serif" font-weight="400" font-size="55" transform="matrix(1 0 0 1 2127.13 1076)">Run what</text><text font-family="Arial,Arial_MSFontService,sans-serif" font-weight="400" font-size="55" transform="matrix(1 0 0 1 2358.59 1076)">-</text><text font-family="Arial,Arial_MSFontService,sans-serif" font-weight="400" font-size="55" transform="matrix(1 0 0 1 2376.92 1076)">if scenarios on marketing spend  and </text><text font-family="Arial,Arial_MSFontService,sans-serif" font-weight="400" font-size="55" transform="matrix(1 0 0 1 2127.13 1142)">prices to see where opportunities are largest</text><text font-family="Arial,Arial_MSFontService,sans-serif" font-weight="400" font-size="55" transform="matrix(1 0 0 1 2127.13 1376)">See which categories have the largest </text><text font-family="Arial,Arial_MSFontService,sans-serif" font-weight="400" font-size="55" transform="matrix(1 0 0 1 2127.13 1442)">premiumization opportunities using </text><text font-family="Arial,Arial_MSFontService,sans-serif" font-weight="400" font-size="55" transform="matrix(1 0 0 1 2988.8 1442)">Po</text><text font-family="Arial,Arial_MSFontService,sans-serif" font-weight="400" font-size="55" transform="matrix(1 0 0 1 3055.83 1442)">l</text><text font-family="Arial,Arial_MSFontService,sans-serif" font-weight="400" font-size="55" transform="matrix(1 0 0 1 3067.86 1442)">u</text><text font-family="Arial,Arial_MSFontService,sans-serif" font-weight="400" font-size="55" transform="matrix(1 0 0 1 3098.23 1442)">Si</text><text font-family="Arial,Arial_MSFontService,sans-serif" font-weight="400" font-size="55" transform="matrix(1 0 0 1 3146.92 1442)">m’s </text><text font-family="Arial,Arial_MSFontService,sans-serif" font-weight="400" font-size="55" transform="matrix(1 0 0 1 2127.13 1508)">price segment view</text><text font-family="Arial,Arial_MSFontService,sans-serif" font-weight="400" font-size="55" transform="matrix(1 0 0 1 2127.13 1709)">Knowing expectations for category growth, </text><text font-family="Arial,Arial_MSFontService,sans-serif" font-weight="400" font-size="55" transform="matrix(1 0 0 1 2127.13 1775)">identify gaps in current portfolio. This may lead </text><text font-family="Arial,Arial_MSFontService,sans-serif" font-weight="400" font-size="55" transform="matrix(1 0 0 1 2127.13 1841)">to acquisition and divestiture insights</text><text font-family="Arial,Arial_MSFontService,sans-serif" font-weight="400" font-size="55" transform="matrix(1 0 0 1 2127.13 2044)">Combine market demand forecasts, with skilled </text><text font-family="Arial,Arial_MSFontService,sans-serif" font-weight="400" font-size="55" transform="matrix(1 0 0 1 2127.13 2110)">workforce availability and water supply to find </text><text font-family="Arial,Arial_MSFontService,sans-serif" font-weight="400" font-size="55" transform="matrix(1 0 0 1 2127.13 2176)">best location of new facilities</text><text font-family="Arial,Arial_MSFontService,sans-serif" font-weight="400" font-size="50" transform="matrix(1 0 0 1 1495.69 2334)">Source: Tellusant thought</text><text font-family="Arial,Arial_MSFontService,sans-serif" font-weight="700" font-size="69" transform="matrix(1 0 0 1 934.954 204)">USE</text><text font-family="Arial,Arial_MSFontService,sans-serif" font-weight="700" font-size="69" transform="matrix(1 0 0 1 1076.46 204)">-</text><text font-family="Arial,Arial_MSFontService,sans-serif" font-weight="700" font-size="69" transform="matrix(1 0 0 1 1099.38 204)">CASES FOR POLUSIM </text><text font-family="Arial,Arial_MSFontService,sans-serif" font-weight="700" font-size="69" transform="matrix(1 0 0 1 1851.05 204)">–</text><text font-family="Arial,Arial_MSFontService,sans-serif" font-weight="700" font-size="69" transform="matrix(1 0 0 1 1908.34 204)">TELLUSANT’S </text><text font-family="Arial,Arial_MSFontService,sans-serif" font-weight="700" font-size="69" transform="matrix(1 0 0 1 2400.48 204)">STRATEGIC FORECASTING SOLUTION </text></g></svg>