<svg width="2357" height="2920" xmlns="http://www.w3.org/2000/svg" xmlns:xlink="http://www.w3.org/1999/xlink" xml:space="preserve" overflow="hidden"><defs><clipPath id="clip0"><rect x="9630" y="209" width="2357" height="2920"/></clipPath></defs><g clip-path="url(#clip0)" transform="translate(-9630 -209)"><rect x="9630" y="209" width="2357" height="2920" fill="#FFFFFF"/><g><path d="M0 0 0.000360892 2533" stroke="#D9D9D9" stroke-width="3.4375" stroke-linejoin="round" stroke-miterlimit="10" fill="none" fill-rule="evenodd" transform="matrix(1 0 0 -1 10710.5 3021.5)"/></g><g><path d="M10808 2990 10710 2990" stroke="#BFBFBF" stroke-width="8.02083" stroke-linejoin="round" stroke-miterlimit="10" fill="none"/></g><g><path d="M10810 2926 10710 2926" stroke="#BFBFBF" stroke-width="8.02083" stroke-linejoin="round" stroke-miterlimit="10" fill="none"/></g><g><path d="M10817 2863 10710 2863" stroke="#BFBFBF" stroke-width="8.02083" stroke-linejoin="round" stroke-miterlimit="10" fill="none"/></g><g><path d="M10819 2800 10710 2800" stroke="#BFBFBF" stroke-width="8.02083" stroke-linejoin="round" stroke-miterlimit="10" fill="none"/></g><g><path d="M10821 2736 10710 2736" stroke="#BFBFBF" stroke-width="8.02083" stroke-linejoin="round" stroke-miterlimit="10" fill="none"/></g><g><path d="M10822 2673 10710 2673" stroke="#BFBFBF" stroke-width="8.02083" stroke-linejoin="round" stroke-miterlimit="10" fill="none"/></g><g><path d="M10825 2610 10710 2610" stroke="#BFBFBF" stroke-width="8.02083" stroke-linejoin="round" stroke-miterlimit="10" fill="none"/></g><g><path d="M10825 2547 10710 2547" stroke="#BFBFBF" stroke-width="8.02083" stroke-linejoin="round" stroke-miterlimit="10" fill="none"/></g><g><path d="M10826 2483 10710 2483" stroke="#BFBFBF" stroke-width="8.02083" stroke-linejoin="round" stroke-miterlimit="10" fill="none"/></g><g><path d="M10829 2420 10710 2420" stroke="#BFBFBF" stroke-width="8.02083" stroke-linejoin="round" stroke-miterlimit="10" fill="none"/></g><g><path d="M10834 2357 10710 2357" stroke="#BFBFBF" stroke-width="8.02083" stroke-linejoin="round" stroke-miterlimit="10" fill="none"/></g><g><path d="M10837 2293 10710 2293" stroke="#BFBFBF" stroke-width="8.02083" stroke-linejoin="round" stroke-miterlimit="10" fill="none"/></g><g><path d="M10838 2230 10710 2230" stroke="#BFBFBF" stroke-width="8.02083" stroke-linejoin="round" stroke-miterlimit="10" fill="none"/></g><g><path d="M10851 2167 10710 2167" stroke="#BFBFBF" stroke-width="8.02083" stroke-linejoin="round" stroke-miterlimit="10" fill="none"/></g><g><path d="M10856 2103 10710 2103" stroke="#BFBFBF" stroke-width="8.02083" stroke-linejoin="round" stroke-miterlimit="10" fill="none"/></g><g><path d="M10859 2040 10710 2040" stroke="#BFBFBF" stroke-width="8.02083" stroke-linejoin="round" stroke-miterlimit="10" fill="none"/></g><g><path d="M10869 1977 10710 1977" stroke="#BFBFBF" stroke-width="8.02083" stroke-linejoin="round" stroke-miterlimit="10" fill="none"/></g><g><path d="M10872 1913 10710 1913" stroke="#BFBFBF" stroke-width="8.02083" stroke-linejoin="round" stroke-miterlimit="10" fill="none"/></g><g><path d="M10873 1850 10710 1850" stroke="#BFBFBF" stroke-width="8.02083" stroke-linejoin="round" stroke-miterlimit="10" fill="none"/></g><g><path d="M10876 1787 10710 1787" stroke="#BFBFBF" stroke-width="8.02083" stroke-linejoin="round" stroke-miterlimit="10" fill="none"/></g><g><path d="M10877 1723 10710 1723" stroke="#BFBFBF" stroke-width="8.02083" stroke-linejoin="round" stroke-miterlimit="10" fill="none"/></g><g><path d="M10883 1660 10710 1660" stroke="#BFBFBF" stroke-width="8.02083" stroke-linejoin="round" stroke-miterlimit="10" fill="none"/></g><g><path d="M10895 1597 10710 1597" stroke="#BFBFBF" stroke-width="8.02083" stroke-linejoin="round" stroke-miterlimit="10" fill="none"/></g><g><path d="M10910 1533 10710 1533" stroke="#BFBFBF" stroke-width="8.02083" stroke-linejoin="round" stroke-miterlimit="10" fill="none"/></g><g><path d="M10932 1470 10710 1470" stroke="#BFBFBF" stroke-width="8.02083" stroke-linejoin="round" stroke-miterlimit="10" fill="none"/></g><g><path d="M10948 1407 10710 1407" stroke="#BFBFBF" stroke-width="8.02083" stroke-linejoin="round" stroke-miterlimit="10" fill="none"/></g><g><path d="M10960 1344 10710 1344" stroke="#BFBFBF" stroke-width="8.02083" stroke-linejoin="round" stroke-miterlimit="10" fill="none"/></g><g><path d="M10972 1280 10710 1280" stroke="#BFBFBF" stroke-width="8.02083" stroke-linejoin="round" stroke-miterlimit="10" fill="none"/></g><g><path d="M10974 1217 10710 1217" stroke="#BFBFBF" stroke-width="8.02083" stroke-linejoin="round" stroke-miterlimit="10" fill="none"/></g><g><path d="M10992 1154 10710 1154" stroke="#BFBFBF" stroke-width="8.02083" stroke-linejoin="round" stroke-miterlimit="10" fill="none"/></g><g><path d="M11001 1090 10710 1090" stroke="#BFBFBF" stroke-width="8.02083" stroke-linejoin="round" stroke-miterlimit="10" fill="none"/></g><g><path d="M11028 1027 10710 1027" stroke="#BFBFBF" stroke-width="8.02083" stroke-linejoin="round" stroke-miterlimit="10" fill="none"/></g><g><path d="M11045 964 10710 964" stroke="#BFBFBF" stroke-width="8.02083" stroke-linejoin="round" stroke-miterlimit="10" fill="none"/></g><g><path d="M11147 900 10710 900" stroke="#BFBFBF" stroke-width="8.02083" stroke-linejoin="round" stroke-miterlimit="10" fill="none"/></g><g><path d="M11163 837 10710 837" stroke="#BFBFBF" stroke-width="8.02083" stroke-linejoin="round" stroke-miterlimit="10" fill="none"/></g><g><path d="M11260 774 10710 774" stroke="#BFBFBF" stroke-width="8.02083" stroke-linejoin="round" stroke-miterlimit="10" fill="none"/></g><g><path d="M11301 710 10710 710" stroke="#BFBFBF" stroke-width="8.02083" stroke-linejoin="round" stroke-miterlimit="10" fill="none"/></g><g><path d="M11309 647 10710 647" stroke="#BFBFBF" stroke-width="8.02083" stroke-linejoin="round" stroke-miterlimit="10" fill="none"/></g><g><path d="M11372 584 10710 584" stroke="#BFBFBF" stroke-width="8.02083" stroke-linejoin="round" stroke-miterlimit="10" fill="none"/></g><g><path d="M11724 520 10710 520" stroke="#BFBFBF" stroke-width="8.02083" stroke-linejoin="round" stroke-miterlimit="10" fill="none"/></g><g><path d="M10818 2989C10818 2995.07 10813.1 3000 10807 3000 10800.9 3000 10796 2995.07 10796 2989 10796 2982.92 10800.9 2978 10807 2978 10813.1 2978 10818 2982.92 10818 2989Z" stroke="#000000" stroke-width="17.1875" stroke-linejoin="round" stroke-miterlimit="10" fill="#70AD47"/></g><g><path d="M10821 2926.5C10821 2932.31 10816.1 2937.02 10810 2937.02 10803.9 2937.02 10799 2932.31 10799 2926.5 10799 2920.69 10803.9 2915.98 10810 2915.98 10816.1 2915.98 10821 2920.69 10821 2926.5Z" stroke="#000000" stroke-width="17.1875" stroke-linejoin="round" stroke-miterlimit="10" fill="#C00000"/></g><g><path d="M10827 2863C10827 2869.07 10822.1 2874 10816 2874 10809.9 2874 10805 2869.07 10805 2863 10805 2856.92 10809.9 2852 10816 2852 10822.1 2852 10827 2856.92 10827 2863Z" stroke="#000000" stroke-width="17.1875" stroke-linejoin="round" stroke-miterlimit="10" fill="#C00000"/></g><g><path d="M10829 2799C10829 2805.07 10824.1 2810 10818 2810 10811.9 2810 10807 2805.07 10807 2799 10807 2792.92 10811.9 2788 10818 2788 10824.1 2788 10829 2792.92 10829 2799Z" stroke="#000000" stroke-width="17.1875" stroke-linejoin="round" stroke-miterlimit="10" fill="#C00000"/></g><g><path d="M10831 2736C10831 2742.07 10826.1 2747 10820 2747 10813.9 2747 10809 2742.07 10809 2736 10809 2729.92 10813.9 2725 10820 2725 10826.1 2725 10831 2729.92 10831 2736Z" stroke="#000000" stroke-width="17.1875" stroke-linejoin="round" stroke-miterlimit="10" fill="#C00000"/></g><g><path d="M10832 2673.5C10832 2679.31 10827.1 2684.02 10821 2684.02 10814.9 2684.02 10810 2679.31 10810 2673.5 10810 2667.69 10814.9 2662.98 10821 2662.98 10827.1 2662.98 10832 2667.69 10832 2673.5Z" stroke="#C00000" stroke-width="17.1875" stroke-linejoin="round" stroke-miterlimit="10" fill="#C00000"/></g><g><path d="M10835 2609C10835 2615.07 10830.3 2620 10824.5 2620 10818.7 2620 10814 2615.07 10814 2609 10814 2602.92 10818.7 2598 10824.5 2598 10830.3 2598 10835 2602.92 10835 2609Z" stroke="#0070C0" stroke-width="17.1875" stroke-linejoin="round" stroke-miterlimit="10" fill="#C00000"/></g><g><path d="M10835 2546C10835 2552.07 10830.3 2557 10824.5 2557 10818.7 2557 10814 2552.07 10814 2546 10814 2539.92 10818.7 2535 10824.5 2535 10830.3 2535 10835 2539.92 10835 2546Z" stroke="#000000" stroke-width="17.1875" stroke-linejoin="round" stroke-miterlimit="10" fill="#C00000"/></g><g><path d="M10836 2483C10836 2489.07 10831.1 2494 10825 2494 10818.9 2494 10814 2489.07 10814 2483 10814 2476.92 10818.9 2472 10825 2472 10831.1 2472 10836 2476.92 10836 2483Z" stroke="#0070C0" stroke-width="17.1875" stroke-linejoin="round" stroke-miterlimit="10" fill="#C00000"/></g><g><path d="M10840 2419C10840 2425.07 10835.1 2430 10829 2430 10822.9 2430 10818 2425.07 10818 2419 10818 2412.92 10822.9 2408 10829 2408 10835.1 2408 10840 2412.92 10840 2419Z" stroke="#C00000" stroke-width="17.1875" stroke-linejoin="round" stroke-miterlimit="10" fill="#C00000"/></g><g><path d="M10845 2356C10845 2362.07 10840.1 2367 10834 2367 10827.9 2367 10823 2362.07 10823 2356 10823 2349.92 10827.9 2345 10834 2345 10840.1 2345 10845 2349.92 10845 2356Z" stroke="#70AD47" stroke-width="17.1875" stroke-linejoin="round" stroke-miterlimit="10" fill="#4472C4"/></g><g><path d="M10848 2293C10848 2299.07 10843.1 2304 10837 2304 10830.9 2304 10826 2299.07 10826 2293 10826 2286.92 10830.9 2282 10837 2282 10843.1 2282 10848 2286.92 10848 2293Z" stroke="#0070C0" stroke-width="17.1875" stroke-linejoin="round" stroke-miterlimit="10" fill="#C00000"/></g><g><path d="M10849 2229C10849 2235.07 10844.1 2240 10838 2240 10831.9 2240 10827 2235.07 10827 2229 10827 2222.92 10831.9 2218 10838 2218 10844.1 2218 10849 2222.92 10849 2229Z" stroke="#C00000" stroke-width="17.1875" stroke-linejoin="round" stroke-miterlimit="10" fill="#4472C4"/></g><g><path d="M10861 2166C10861 2172.07 10856.1 2177 10850 2177 10843.9 2177 10839 2172.07 10839 2166 10839 2159.92 10843.9 2155 10850 2155 10856.1 2155 10861 2159.92 10861 2166Z" stroke="#000000" stroke-width="17.1875" stroke-linejoin="round" stroke-miterlimit="10" fill="#4472C4"/></g><g><path d="M10867 2103C10867 2109.07 10862.1 2114 10856 2114 10849.9 2114 10845 2109.07 10845 2103 10845 2096.92 10849.9 2092 10856 2092 10862.1 2092 10867 2096.92 10867 2103Z" stroke="#000000" stroke-width="17.1875" stroke-linejoin="round" stroke-miterlimit="10" fill="#C00000"/></g><g><path d="M10869 2039C10869 2045.07 10864.1 2050 10858 2050 10851.9 2050 10847 2045.07 10847 2039 10847 2032.92 10851.9 2028 10858 2028 10864.1 2028 10869 2032.92 10869 2039Z" stroke="#C00000" stroke-width="17.1875" stroke-linejoin="round" stroke-miterlimit="10" fill="#C00000"/></g><g><path d="M10880 1976C10880 1982.07 10875.1 1987 10869 1987 10862.9 1987 10858 1982.07 10858 1976 10858 1969.92 10862.9 1965 10869 1965 10875.1 1965 10880 1969.92 10880 1976Z" stroke="#C00000" stroke-width="17.1875" stroke-linejoin="round" stroke-miterlimit="10"/></g><g><path d="M10883 1913C10883 1919.07 10878.1 1924 10872 1924 10865.9 1924 10861 1919.07 10861 1913 10861 1906.92 10865.9 1902 10872 1902 10878.1 1902 10883 1906.92 10883 1913Z" stroke="#70AD47" stroke-width="17.1875" stroke-linejoin="round" stroke-miterlimit="10" fill="#70AD47"/></g><g><path d="M10884 1850C10884 1856.07 10879.1 1861 10873 1861 10866.9 1861 10862 1856.07 10862 1850 10862 1843.92 10866.9 1839 10873 1839 10879.1 1839 10884 1843.92 10884 1850Z" stroke="#000000" stroke-width="17.1875" stroke-linejoin="round" stroke-miterlimit="10"/></g><g><path d="M10887 1786C10887 1792.07 10882.1 1797 10876 1797 10869.9 1797 10865 1792.07 10865 1786 10865 1779.92 10869.9 1775 10876 1775 10882.1 1775 10887 1779.92 10887 1786Z" stroke="#70AD47" stroke-width="17.1875" stroke-linejoin="round" stroke-miterlimit="10" fill="#4472C4"/></g><g><path d="M10888 1723C10888 1729.07 10883.1 1734 10877 1734 10870.9 1734 10866 1729.07 10866 1723 10866 1716.92 10870.9 1712 10877 1712 10883.1 1712 10888 1716.92 10888 1723Z" stroke="#000000" stroke-width="17.1875" stroke-linejoin="round" stroke-miterlimit="10"/></g><g><path d="M10894 1660C10894 1666.07 10889.1 1671 10883 1671 10876.9 1671 10872 1666.07 10872 1660 10872 1653.92 10876.9 1649 10883 1649 10889.1 1649 10894 1653.92 10894 1660Z" stroke="#000000" stroke-width="17.1875" stroke-linejoin="round" stroke-miterlimit="10" fill="#C00000"/></g><g><path d="M10906 1596C10906 1602.07 10901.1 1607 10895 1607 10888.9 1607 10884 1602.07 10884 1596 10884 1589.92 10888.9 1585 10895 1585 10901.1 1585 10906 1589.92 10906 1596Z" stroke="#000000" stroke-width="17.1875" stroke-linejoin="round" stroke-miterlimit="10" fill="#C00000"/></g><g><path d="M10920 1533C10920 1539.07 10915.1 1544 10909 1544 10902.9 1544 10898 1539.07 10898 1533 10898 1526.92 10902.9 1522 10909 1522 10915.1 1522 10920 1526.92 10920 1533Z" stroke="#C00000" stroke-width="17.1875" stroke-linejoin="round" stroke-miterlimit="10" fill="#C00000"/></g><g><path d="M10942 1470C10942 1476.07 10937.1 1481 10931 1481 10924.9 1481 10920 1476.07 10920 1470 10920 1463.92 10924.9 1459 10931 1459 10937.1 1459 10942 1463.92 10942 1470Z" stroke="#70AD47" stroke-width="17.1875" stroke-linejoin="round" stroke-miterlimit="10" fill="#C00000"/></g><g><path d="M10958 1406C10958 1412.07 10953.1 1417 10947 1417 10940.9 1417 10936 1412.07 10936 1406 10936 1399.92 10940.9 1395 10947 1395 10953.1 1395 10958 1399.92 10958 1406Z" stroke="#000000" stroke-width="17.1875" stroke-linejoin="round" stroke-miterlimit="10" fill="#C00000"/></g><g><path d="M10970 1343C10970 1349.07 10965.1 1354 10959 1354 10952.9 1354 10948 1349.07 10948 1343 10948 1336.92 10952.9 1332 10959 1332 10965.1 1332 10970 1336.92 10970 1343Z" stroke="#000000" stroke-width="17.1875" stroke-linejoin="round" stroke-miterlimit="10" fill="#C00000"/></g><g><path d="M10983 1280C10983 1286.07 10978.1 1291 10972 1291 10965.9 1291 10961 1286.07 10961 1280 10961 1273.92 10965.9 1269 10972 1269 10978.1 1269 10983 1273.92 10983 1280Z" stroke="#000000" stroke-width="17.1875" stroke-linejoin="round" stroke-miterlimit="10"/></g><g><path d="M10984 1216C10984 1222.07 10979.1 1227 10973 1227 10966.9 1227 10962 1222.07 10962 1216 10962 1209.92 10966.9 1205 10973 1205 10979.1 1205 10984 1209.92 10984 1216Z" stroke="#70AD47" stroke-width="17.1875" stroke-linejoin="round" stroke-miterlimit="10"/></g><g><path d="M11003 1153C11003 1159.07 10998.1 1164 10992 1164 10985.9 1164 10981 1159.07 10981 1153 10981 1146.92 10985.9 1142 10992 1142 10998.1 1142 11003 1146.92 11003 1153Z" stroke="#000000" stroke-width="17.1875" stroke-linejoin="round" stroke-miterlimit="10" fill="#C00000"/></g><g><path d="M11011 1090C11011 1096.07 11006.3 1101 11000.5 1101 10994.7 1101 10990 1096.07 10990 1090 10990 1083.92 10994.7 1079 11000.5 1079 11006.3 1079 11011 1083.92 11011 1090Z" stroke="#000000" stroke-width="17.1875" stroke-linejoin="round" stroke-miterlimit="10" fill="#C00000"/></g><g><path d="M11039 1026C11039 1032.07 11034.1 1037 11028 1037 11021.9 1037 11017 1032.07 11017 1026 11017 1019.92 11021.9 1015 11028 1015 11034.1 1015 11039 1019.92 11039 1026Z" stroke="#0070C0" stroke-width="17.1875" stroke-linejoin="round" stroke-miterlimit="10"/></g><g><path d="M11056 963C11056 969.075 11051.1 973.999 11045 973.999 11038.9 973.999 11034 969.075 11034 963 11034 956.925 11038.9 952 11045 952 11051.1 952 11056 956.925 11056 963Z" stroke="#000000" stroke-width="17.1875" stroke-linejoin="round" stroke-miterlimit="10" fill="#4472C4"/></g><g><path d="M11157 900C11157 906.075 11152.1 911 11146 911 11139.9 911 11135 906.075 11135 900 11135 893.925 11139.9 889 11146 889 11152.1 889 11157 893.925 11157 900Z" stroke="#4472C4" stroke-width="17.1875" stroke-linejoin="round" stroke-miterlimit="10" fill="#4472C4"/></g><g><path d="M11174 836.499C11174 842.31 11169.1 847.021 11163 847.021 11156.9 847.021 11152 842.31 11152 836.499 11152 830.689 11156.9 825.978 11163 825.978 11169.1 825.978 11174 830.689 11174 836.499Z" stroke="#0070C0" stroke-width="17.1875" stroke-linejoin="round" stroke-miterlimit="10" fill="#5B9BD5"/></g><g><path d="M11271 773C11271 779.075 11266.1 783.999 11260 783.999 11253.9 783.999 11249 779.075 11249 773 11249 766.924 11253.9 762 11260 762 11266.1 762 11271 766.924 11271 773Z" stroke="#70AD47" stroke-width="17.1875" stroke-linejoin="round" stroke-miterlimit="10" fill="#C00000"/></g><g><path d="M11311 710C11311 716.075 11306.1 720.999 11300 720.999 11293.9 720.999 11289 716.075 11289 710 11289 703.925 11293.9 699 11300 699 11306.1 699 11311 703.925 11311 710Z" stroke="#000000" stroke-width="17.1875" stroke-linejoin="round" stroke-miterlimit="10"/></g><g><path d="M11319 647C11319 653.075 11314.3 658 11308.5 658 11302.7 658 11298 653.075 11298 647 11298 640.925 11302.7 636 11308.5 636 11314.3 636 11319 640.925 11319 647Z" stroke="#4472C4" stroke-width="17.1875" stroke-linejoin="round" stroke-miterlimit="10" fill="#4472C4"/></g><g><path d="M11383 583.499C11383 589.31 11378.1 594.021 11372 594.021 11365.9 594.021 11361 589.31 11361 583.499 11361 577.689 11365.9 572.978 11372 572.978 11378.1 572.978 11383 577.689 11383 583.499Z" stroke="#4472C4" stroke-width="17.1875" stroke-linejoin="round" stroke-miterlimit="10" fill="#4472C4"/></g><g><path d="M11734 520C11734 526.075 11729.1 530.999 11723 530.999 11716.9 530.999 11712 526.075 11712 520 11712 513.925 11716.9 509 11723 509 11729.1 509 11734 513.925 11734 520Z" stroke="#4472C4" stroke-width="17.1875" stroke-linejoin="round" stroke-miterlimit="10" fill="#4472C4"/></g><g><text font-family="Arial,Arial_MSFontService,sans-serif" font-weight="400" font-size="50" transform="matrix(1 0 0 1 10835.3 3008)">30.1</text></g><g><text font-family="Arial,Arial_MSFontService,sans-serif" font-weight="400" font-size="50" transform="matrix(1 0 0 1 10837.6 2944)">30.8</text></g><g><text font-family="Arial,Arial_MSFontService,sans-serif" font-weight="400" font-size="50" transform="matrix(1 0 0 1 10844.2 2881)">32.8</text></g><g><text font-family="Arial,Arial_MSFontService,sans-serif" font-weight="400" font-size="50" transform="matrix(1 0 0 1 10846.2 2818)">33.4</text></g><g><text font-family="Arial,Arial_MSFontService,sans-serif" font-weight="400" font-size="50" transform="matrix(1 0 0 1 10848.1 2754)">34.0</text></g><g><text font-family="Arial,Arial_MSFontService,sans-serif" font-weight="400" font-size="50" transform="matrix(1 0 0 1 10849.2 2691)">34.3</text></g><g><text font-family="Arial,Arial_MSFontService,sans-serif" font-weight="400" font-size="50" transform="matrix(1 0 0 1 10852.3 2628)">35.3</text></g><g><text font-family="Arial,Arial_MSFontService,sans-serif" font-weight="400" font-size="50" transform="matrix(1 0 0 1 10852.3 2565)">35.3</text></g><g><text font-family="Arial,Arial_MSFontService,sans-serif" font-weight="400" font-size="50" transform="matrix(1 0 0 1 10853.2 2501)">35.6</text></g><g><text font-family="Arial,Arial_MSFontService,sans-serif" font-weight="400" font-size="50" transform="matrix(1 0 0 1 10856.7 2438)">36.6</text></g><g><text font-family="Arial,Arial_MSFontService,sans-serif" font-weight="400" font-size="50" transform="matrix(1 0 0 1 10861.6 2375)">38.1</text></g><g><text font-family="Arial,Arial_MSFontService,sans-serif" font-weight="400" font-size="50" transform="matrix(1 0 0 1 10864.9 2311)">39.1</text></g><g><text font-family="Arial,Arial_MSFontService,sans-serif" font-weight="400" font-size="50" transform="matrix(1 0 0 1 10865.8 2248)">39.4</text></g><g><text font-family="Arial,Arial_MSFontService,sans-serif" font-weight="400" font-size="50" transform="matrix(1 0 0 1 10878.4 2185)">43.3</text></g><g><text font-family="Arial,Arial_MSFontService,sans-serif" font-weight="400" font-size="50" transform="matrix(1 0 0 1 10884 2121)">45.0</text></g><g><text font-family="Arial,Arial_MSFontService,sans-serif" font-weight="400" font-size="50" transform="matrix(1 0 0 1 10886.4 2058)">45.8</text></g><g><text font-family="Arial,Arial_MSFontService,sans-serif" font-weight="400" font-size="50" transform="matrix(1 0 0 1 10896.8 1995)">49.0</text></g><g><text font-family="Arial,Arial_MSFontService,sans-serif" font-weight="400" font-size="50" transform="matrix(1 0 0 1 10899.8 1931)">49.9</text></g><g><text font-family="Arial,Arial_MSFontService,sans-serif" font-weight="400" font-size="50" transform="matrix(1 0 0 1 10900.5 1868)">50.1</text></g><g><text font-family="Arial,Arial_MSFontService,sans-serif" font-weight="400" font-size="50" transform="matrix(1 0 0 1 10903.7 1805)">51.1</text></g><g><text font-family="Arial,Arial_MSFontService,sans-serif" font-weight="400" font-size="50" transform="matrix(1 0 0 1 10904.7 1741)">51.4</text></g><g><text font-family="Arial,Arial_MSFontService,sans-serif" font-weight="400" font-size="50" transform="matrix(1 0 0 1 10910.9 1678)">53.3</text></g><g><text font-family="Arial,Arial_MSFontService,sans-serif" font-weight="400" font-size="50" transform="matrix(1 0 0 1 10922.7 1615)">56.9</text></g><g><text font-family="Arial,Arial_MSFontService,sans-serif" font-weight="400" font-size="50" transform="matrix(1 0 0 1 10937.1 1551)">61.4</text></g><g><text font-family="Arial,Arial_MSFontService,sans-serif" font-weight="400" font-size="50" transform="matrix(1 0 0 1 10959.2 1488)">68.2</text></g><g><text font-family="Arial,Arial_MSFontService,sans-serif" font-weight="400" font-size="50" transform="matrix(1 0 0 1 10975.3 1425)">73.1</text></g><g><text font-family="Arial,Arial_MSFontService,sans-serif" font-weight="400" font-size="50" transform="matrix(1 0 0 1 10987.1 1362)">76.7</text></g><g><text font-family="Arial,Arial_MSFontService,sans-serif" font-weight="400" font-size="50" transform="matrix(1 0 0 1 11000 1298)">80.7</text></g><g><text font-family="Arial,Arial_MSFontService,sans-serif" font-weight="400" font-size="50" transform="matrix(1 0 0 1 11001.2 1235)">81.1</text></g><g><text font-family="Arial,Arial_MSFontService,sans-serif" font-weight="400" font-size="50" transform="matrix(1 0 0 1 11019.5 1172)">86.7</text></g><g><text font-family="Arial,Arial_MSFontService,sans-serif" font-weight="400" font-size="50" transform="matrix(1 0 0 1 11028.3 1108)">89.4</text></g><g><text font-family="Arial,Arial_MSFontService,sans-serif" font-weight="400" font-size="50" transform="matrix(1 0 0 1 11055.8 1045)">97.9</text></g><g><text font-family="Arial,Arial_MSFontService,sans-serif" font-weight="400" font-size="50" transform="matrix(1 0 0 1 11073 982)">103.1</text></g><g><text font-family="Arial,Arial_MSFontService,sans-serif" font-weight="400" font-size="50" transform="matrix(1 0 0 1 11174.4 918)">134.3</text></g><g><text font-family="Arial,Arial_MSFontService,sans-serif" font-weight="400" font-size="50" transform="matrix(1 0 0 1 11190.7 855)">139.4</text></g><g><text font-family="Arial,Arial_MSFontService,sans-serif" font-weight="400" font-size="50" transform="matrix(1 0 0 1 11287.9 792)">169.2</text></g><g><text font-family="Arial,Arial_MSFontService,sans-serif" font-weight="400" font-size="50" transform="matrix(1 0 0 1 11328.4 728)">181.7</text></g><g><text font-family="Arial,Arial_MSFontService,sans-serif" font-weight="400" font-size="50" transform="matrix(1 0 0 1 11336.2 665)">184.1</text></g><g><text font-family="Arial,Arial_MSFontService,sans-serif" font-weight="400" font-size="50" transform="matrix(1 0 0 1 11400 602)">203.7</text></g><g><text font-family="Arial,Arial_MSFontService,sans-serif" font-weight="400" font-size="50" transform="matrix(1 0 0 1 11751 538)">311.7</text></g><g><text font-family="Arial Mono MT Pro,Arial Mono MT Pro_MSFontService,sans-serif" font-weight="400" font-size="50" transform="matrix(1 0 0 1 10210.5 3004)">Target(28%)  +1</text></g><g><text font-family="Arial Mono MT Pro,Arial Mono MT Pro_MSFontService,sans-serif" font-weight="400" font-size="50" transform="matrix(1 0 0 1 10180.3 2941)">Charter(56%)  +8</text></g><g><g><text font-family="Arial Mono MT Pro,Arial Mono MT Pro_MSFontService,sans-serif" font-weight="400" font-size="50" transform="matrix(1 0 0 1 10210.5 2877)">Costco(13%)  −3</text></g></g><g><g><text font-family="Arial Mono MT Pro,Arial Mono MT Pro_MSFontService,sans-serif" font-weight="400" font-size="50" transform="matrix(1 0 0 1 10210.5 2814)">Kroger(23%)  −4</text></g></g><g><g><text font-family="Arial Mono MT Pro,Arial Mono MT Pro_MSFontService,sans-serif" font-weight="400" font-size="50" transform="matrix(1 0 0 1 10210.5 2751)">Disney(37%)  −2</text></g></g><g><g><text font-family="Arial Mono MT Pro,Arial Mono MT Pro_MSFontService,sans-serif" font-weight="400" font-size="50" transform="matrix(1 0 0 1 9787.01 2687)">Bristol</text></g></g><g><g><text font-family="Arial Mono MT Pro,Arial Mono MT Pro_MSFontService,sans-serif" font-weight="400" font-size="50" transform="matrix(1 0 0 1 9998.76 2687)">-</text></g></g><g><g><text font-family="Arial Mono MT Pro,Arial Mono MT Pro_MSFontService,sans-serif" font-weight="400" font-size="50" transform="matrix(1 0 0 1 10029 2687)">Myers Squibb(71%)  −6</text></g></g><g><text font-family="Arial Mono MT Pro,Arial Mono MT Pro_MSFontService,sans-serif" font-weight="400" font-size="50" transform="matrix(1 0 0 1 10150 2624)">Broadcom(65%) +11</text></g><g><g><text font-family="Arial Mono MT Pro,Arial Mono MT Pro_MSFontService,sans-serif" font-weight="400" font-size="50" transform="matrix(1 0 0 1 10240.8 2561)">Cisco(65%)  −5</text></g></g><g><g><text font-family="Arial Mono MT Pro,Arial Mono MT Pro_MSFontService,sans-serif" font-weight="400" font-size="50" transform="matrix(1 0 0 1 10301.3 2497)">IBM(57%)  −2</text></g></g><g><text font-family="Arial Mono MT Pro,Arial Mono MT Pro_MSFontService,sans-serif" font-weight="400" font-size="50" transform="matrix(1 0 0 1 10119.8 2434)">Eli Lilly(81%)  +9</text></g><g><text font-family="Arial Mono MT Pro,Arial Mono MT Pro_MSFontService,sans-serif" font-weight="400" font-size="50" transform="matrix(1 0 0 1 9998.76 2371)">Goldman Sachs(71%)  +7</text></g><g><g><text font-family="Arial Mono MT Pro,Arial Mono MT Pro_MSFontService,sans-serif" font-weight="400" font-size="50" transform="matrix(1 0 0 1 10210.5 2307)">Oracle(71%)  −2</text></g></g><g><text font-family="Arial Mono MT Pro,Arial Mono MT Pro_MSFontService,sans-serif" font-weight="400" font-size="50" transform="matrix(1 0 0 1 10210.5 2244)">AbbVie(70%)  +3</text></g><g><g><text font-family="Arial Mono MT Pro,Arial Mono MT Pro_MSFontService,sans-serif" font-weight="400" font-size="50" transform="matrix(1 0 0 1 10301.3 2181)">P&amp;G(51%)  −3</text></g></g><g><g><text font-family="Arial Mono MT Pro,Arial Mono MT Pro_MSFontService,sans-serif" font-weight="400" font-size="50" transform="matrix(1 0 0 1 9968.51 2118)">HCA Healthcare(64%)  −1</text></g></g><g><text font-family="Arial Mono MT Pro,Arial Mono MT Pro_MSFontService,sans-serif" font-weight="400" font-size="50" transform="matrix(1 0 0 1 10210.5 2054)">Pfizer(72%)  +7</text></g><g><g><text font-family="Arial Mono MT Pro,Arial Mono MT Pro_MSFontService,sans-serif" font-weight="400" font-size="50" transform="matrix(1 0 0 1 10240.8 1991)">Merck(76%)  −1</text></g></g><g><text font-family="Arial Mono MT Pro,Arial Mono MT Pro_MSFontService,sans-serif" font-weight="400" font-size="50" transform="matrix(1 0 0 1 9968.51 1928)">Morgan Stanley(87%)  +3</text></g><g><g><text font-family="Arial Mono MT Pro,Arial Mono MT Pro_MSFontService,sans-serif" font-weight="400" font-size="50" transform="matrix(1 0 0 1 10180.3 1864)">PepsiCo(55%)  −2</text></g></g><g><text font-family="Arial Mono MT Pro,Arial Mono MT Pro_MSFontService,sans-serif" font-weight="400" font-size="50" transform="matrix(1 0 0 1 10119.8 1801)">CitiGroup(63%)   =</text></g><g><g><text font-family="Arial Mono MT Pro,Arial Mono MT Pro_MSFontService,sans-serif" font-weight="400" font-size="50" transform="matrix(1 0 0 1 10089.5 1738)">CVS Health(14%)  −2</text></g></g><g><text font-family="Arial Mono MT Pro,Arial Mono MT Pro_MSFontService,sans-serif" font-weight="400" font-size="50" transform="matrix(1 0 0 1 10089.5 1674)">Home Depot(33%)   =</text></g><g><g><text font-family="Arial Mono MT Pro,Arial Mono MT Pro_MSFontService,sans-serif" font-weight="400" font-size="50" transform="matrix(1 0 0 1 10180.3 1611)">Chevron(29%)  −2</text></g></g><g><text font-family="Arial Mono MT Pro,Arial Mono MT Pro_MSFontService,sans-serif" font-weight="400" font-size="50" transform="matrix(1 0 0 1 10301.3 1548)">J&amp;J(69%)   =</text></g><g><g><text font-family="Arial Mono MT Pro,Arial Mono MT Pro_MSFontService,sans-serif" font-weight="400" font-size="50" transform="matrix(1 0 0 1 10059.3 1484)">Wells Fargo(83%)  −1</text></g></g><g><g><text font-family="Arial Mono MT Pro,Arial Mono MT Pro_MSFontService,sans-serif" font-weight="400" font-size="50" transform="matrix(1 0 0 1 10271 1421)">AT&amp;T(60%)  −1</text></g></g><g><g><text font-family="Arial Mono MT Pro,Arial Mono MT Pro_MSFontService,sans-serif" font-weight="400" font-size="50" transform="matrix(1 0 0 1 10059.3 1358)">Exxon Mobil(23%)  −3</text></g></g><g><g><text font-family="Arial Mono MT Pro,Arial Mono MT Pro_MSFontService,sans-serif" font-weight="400" font-size="50" transform="matrix(1 0 0 1 10180.3 1294)">Verizon(60%)  −1</text></g></g><g><text font-family="Arial Mono MT Pro,Arial Mono MT Pro_MSFontService,sans-serif" font-weight="400" font-size="50" transform="matrix(1 0 0 1 9938.26 1231)">Bank of America(80%)  +1</text></g><g><g><text font-family="Arial Mono MT Pro,Arial Mono MT Pro_MSFontService,sans-serif" font-weight="400" font-size="50" transform="matrix(1 0 0 1 10180.3 1168)">Comcast(70%)  −1</text></g></g><g><g><text font-family="Arial Mono MT Pro,Arial Mono MT Pro_MSFontService,sans-serif" font-weight="400" font-size="50" transform="matrix(1 0 0 1 10029 1104)">UnitedHealth(22%)  −2</text></g></g><g><text font-family="Arial Mono MT Pro,Arial Mono MT Pro_MSFontService,sans-serif" font-weight="400" font-size="50" transform="matrix(1 0 0 1 10210.5 1041)">Nvidia(75%) +13</text></g><g><text font-family="Arial Mono MT Pro,Arial Mono MT Pro_MSFontService,sans-serif" font-weight="400" font-size="50" transform="matrix(1 0 0 1 9847.51 978)">Berkshire Hathaway(28%)  +1</text></g><g><text font-family="Arial Mono MT Pro,Arial Mono MT Pro_MSFontService,sans-serif" font-weight="400" font-size="50" transform="matrix(1 0 0 1 10271 915)">Meta(82%)   =</text></g><g><text font-family="Arial Mono MT Pro,Arial Mono MT Pro_MSFontService,sans-serif" font-weight="400" font-size="50" transform="matrix(1 0 0 1 9968.51 851)">JPMorgan Chase(79%)   =</text></g><g><text font-family="Arial Mono MT Pro,Arial Mono MT Pro_MSFontService,sans-serif" font-weight="400" font-size="50" transform="matrix(1 0 0 1 10180.3 788)">Walmart(25%)   =</text></g><g><text font-family="Arial Mono MT Pro,Arial Mono MT Pro_MSFontService,sans-serif" font-weight="400" font-size="50" transform="matrix(1 0 0 1 10119.8 725)">Microsoft(69%)   =</text></g><g><text font-family="Arial Mono MT Pro,Arial Mono MT Pro_MSFontService,sans-serif" font-weight="400" font-size="50" transform="matrix(1 0 0 1 10240.8 661)">Apple(47%)   =</text></g><g><text font-family="Arial Mono MT Pro,Arial Mono MT Pro_MSFontService,sans-serif" font-weight="400" font-size="50" transform="matrix(1 0 0 1 10150 598)">Alphabet(58%)   =</text></g><g><text font-family="Arial Mono MT Pro,Arial Mono MT Pro_MSFontService,sans-serif" font-weight="400" font-size="50" transform="matrix(1 0 0 1 10210.5 535)">Amazon(49%)   =</text></g><g><text font-family="Arial,Arial_MSFontService,sans-serif" font-weight="700" font-size="64" transform="matrix(1 0 0 1 10079.4 303)">THE LARGEST AMERICAN COMPANIES IN 2024</text></g><g><text font-family="Arial,Arial_MSFontService,sans-serif" font-weight="400" font-size="60" transform="matrix(1 0 0 1 10290.1 373)">Top 40 U.S. companies by value added</text></g></g></svg>