<svg width="3453" height="2260" xmlns="http://www.w3.org/2000/svg" xmlns:xlink="http://www.w3.org/1999/xlink" xml:space="preserve" overflow="hidden"><g transform="translate(-604 -116)"><path d="M0 0 274.593 838.797" stroke="#7F7F7F" stroke-width="4.58333" stroke-miterlimit="8" fill="none" fill-rule="evenodd" transform="matrix(1 0 0 -1 1203.5 1262.3)"/><path d="M0 0 274.593 510.548" stroke="#7F7F7F" stroke-width="4.58333" stroke-miterlimit="8" fill="none" fill-rule="evenodd" transform="matrix(1 0 0 -1 1203.5 1262.05)"/><path d="M0 0 274.593 172.176" stroke="#7F7F7F" stroke-width="4.58333" stroke-miterlimit="8" fill="none" fill-rule="evenodd" transform="matrix(1 0 0 -1 1203.5 1262.68)"/><path d="M1203.5 1262.5 1478.09 1423.63" stroke="#7F7F7F" stroke-width="4.58333" stroke-miterlimit="8" fill="none" fill-rule="evenodd"/><path d="M1203.5 1262.5 1478.09 1756.94" stroke="#7F7F7F" stroke-width="4.58333" stroke-miterlimit="8" fill="none" fill-rule="evenodd"/><path d="M1203.5 1262.5 1478.09 2091.54" stroke="#7F7F7F" stroke-width="4.58333" stroke-miterlimit="8" fill="none" fill-rule="evenodd"/><path d="M609 1191.83C609 1172.6 624.596 1157 643.834 1157L1168.17 1157C1187.4 1157 1203 1172.6 1203 1191.83L1203 1331.17C1203 1350.4 1187.4 1366 1168.17 1366L643.834 1366C624.596 1366 609 1350.4 609 1331.17Z" stroke="#00124D" stroke-width="10.3125" stroke-linejoin="round" stroke-miterlimit="10" fill="#D4DEFF" fill-rule="evenodd" fill-opacity="0.4"/><text font-family="Arial,Arial_MSFontService,sans-serif" font-weight="700" font-size="64" transform="matrix(1 0 0 1 777.353 1246)">PoluSim</text><text font-family="Arial,Arial_MSFontService,sans-serif" font-weight="700" font-size="64" transform="matrix(1 0 0 1 751.297 1323)">use</text><text font-family="Arial,Arial_MSFontService,sans-serif" font-weight="700" font-size="64" transform="matrix(1 0 0 1 861.297 1323)">-</text><text font-family="Arial,Arial_MSFontService,sans-serif" font-weight="700" font-size="64" transform="matrix(1 0 0 1 882.495 1323)">cases</text><path d="M1477 353.668C1477 334.521 1492.52 319 1511.67 319L2036.33 319C2055.48 319 2071 334.521 2071 353.668L2071 492.332C2071 511.479 2055.48 527 2036.33 527L1511.67 527C1492.52 527 1477 511.479 1477 492.332Z" stroke="#C57B57" stroke-width="10.3125" stroke-linejoin="round" stroke-miterlimit="10" fill="#F3E5DD" fill-rule="evenodd"/><text font-family="Arial,Arial_MSFontService,sans-serif" font-weight="400" font-size="64" transform="matrix(1 0 0 1 1578.64 408)">Strategic plan </text><text font-family="Arial,Arial_MSFontService,sans-serif" font-weight="400" font-size="64" transform="matrix(1 0 0 1 1644.53 485)">forecasts</text><path d="M1477 681.834C1477 662.596 1492.6 647 1511.83 647L2036.17 647C2055.4 647 2071 662.596 2071 681.834L2071 821.166C2071 840.404 2055.4 856 2036.17 856L1511.83 856C1492.6 856 1477 840.404 1477 821.166Z" stroke="#C57B57" stroke-width="10.3125" stroke-linejoin="round" stroke-miterlimit="10" fill="#F3E5DD" fill-rule="evenodd"/><text font-family="Arial,Arial_MSFontService,sans-serif" font-weight="400" font-size="64" transform="matrix(1 0 0 1 1605.28 736)">Annual plan </text><text font-family="Arial,Arial_MSFontService,sans-serif" font-weight="400" font-size="64" transform="matrix(1 0 0 1 1660.58 813)">budgets</text><path d="M1477 1019.83C1477 1000.6 1492.6 985 1511.83 985L2036.17 985C2055.4 985 2071 1000.6 2071 1019.83L2071 1159.17C2071 1178.4 2055.4 1194 2036.17 1194L1511.83 1194C1492.6 1194 1477 1178.4 1477 1159.17Z" stroke="#C57B57" stroke-width="10.3125" stroke-linejoin="round" stroke-miterlimit="10" fill="#F3E5DD" fill-rule="evenodd"/><text font-family="Arial,Arial_MSFontService,sans-serif" font-weight="400" font-size="64" transform="matrix(1 0 0 1 1537.96 1075)">Marketing spend </text><text font-family="Arial,Arial_MSFontService,sans-serif" font-weight="400" font-size="64" transform="matrix(1 0 0 1 1601.83 1152)">prioritization</text><path d="M1477 1352.83C1477 1333.6 1492.6 1318 1511.83 1318L2036.17 1318C2055.4 1318 2071 1333.6 2071 1352.83L2071 1492.17C2071 1511.4 2055.4 1527 2036.17 1527L1511.83 1527C1492.6 1527 1477 1511.4 1477 1492.17Z" stroke="#C57B57" stroke-width="10.3125" stroke-linejoin="round" stroke-miterlimit="10" fill="#F3E5DD" fill-rule="evenodd"/><text font-family="Arial,Arial_MSFontService,sans-serif" font-weight="400" font-size="64" transform="matrix(1 0 0 1 1553.72 1408)">Premiumization</text><text font-family="Arial,Arial_MSFontService,sans-serif" font-weight="400" font-size="64" transform="matrix(1 0 0 1 1591.26 1485)">opportunities</text><path d="M1477 1686.83C1477 1667.6 1492.6 1652 1511.83 1652L2036.17 1652C2055.4 1652 2071 1667.6 2071 1686.83L2071 1826.17C2071 1845.4 2055.4 1861 2036.17 1861L1511.83 1861C1492.6 1861 1477 1845.4 1477 1826.17Z" stroke="#C57B57" stroke-width="10.3125" stroke-linejoin="round" stroke-miterlimit="10" fill="#F3E5DD" fill-rule="evenodd"/><text font-family="Arial,Arial_MSFontService,sans-serif" font-weight="400" font-size="64" transform="matrix(1 0 0 1 1578.64 1741)">Portfolio gaps</text><text font-family="Arial,Arial_MSFontService,sans-serif" font-weight="400" font-size="64" transform="matrix(1 0 0 1 1596.4 1818)">identification</text><path d="M1477 2020.83C1477 2001.6 1492.6 1986 1511.83 1986L2036.17 1986C2055.4 1986 2071 2001.6 2071 2020.83L2071 2160.17C2071 2179.4 2055.4 2195 2036.17 2195L1511.83 2195C1492.6 2195 1477 2179.4 1477 2160.17Z" stroke="#C57B57" stroke-width="10.3125" stroke-linejoin="round" stroke-miterlimit="10" fill="#F3E5DD" fill-rule="evenodd"/><text font-family="Arial,Arial_MSFontService,sans-serif" font-weight="400" font-size="64" transform="matrix(1 0 0 1 1594.68 2076)">Fixed assets</text><text font-family="Arial,Arial_MSFontService,sans-serif" font-weight="400" font-size="64" transform="matrix(1 0 0 1 1546.56 2153)">location choices</text><path d="M3381 958 3381 1222" stroke="#BFBFBF" stroke-width="27.5" stroke-miterlimit="8" fill="none" fill-rule="evenodd"/><path d="M3381 619 3381 883" stroke="#BFBFBF" stroke-width="27.5" stroke-miterlimit="8" fill="none" fill-rule="evenodd"/><path d="M3381 1624 3381 1888" stroke="#BFBFBF" stroke-width="27.5" stroke-miterlimit="8" fill="none" fill-rule="evenodd"/><path d="M3381 1291 3381 1555" stroke="#BFBFBF" stroke-width="27.5" stroke-miterlimit="8" fill="none" fill-rule="evenodd"/><path d="M3381 1959 3381 2223" stroke="#BFBFBF" stroke-width="27.5" stroke-miterlimit="8" fill="none" fill-rule="evenodd"/><path d="M3381 291 3381 555" stroke="#BFBFBF" stroke-width="27.5" stroke-miterlimit="8" fill="none" fill-rule="evenodd"/><text font-family="Arial,Arial_MSFontService,sans-serif" font-weight="400" font-size="64" transform="matrix(1 0 0 1 3453.57 329)">Strategic planning</text><text font-family="Arial,Arial_MSFontService,sans-serif" font-weight="400" font-size="64" transform="matrix(1 0 0 1 3453.57 406)">Marketing</text><text font-family="Arial,Arial_MSFontService,sans-serif" font-weight="400" font-size="64" transform="matrix(1 0 0 1 3453.57 483)">Sales &amp; Distribution</text><text font-family="Arial,Arial_MSFontService,sans-serif" font-weight="400" font-size="64" transform="matrix(1 0 0 1 3453.57 560)">Finance</text><text font-family="Arial,Arial_MSFontService,sans-serif" font-weight="400" font-size="64" transform="matrix(1 0 0 1 3453.57 696)">Sales</text><text font-family="Arial,Arial_MSFontService,sans-serif" font-weight="400" font-size="64" transform="matrix(1 0 0 1 3631.75 696)">&amp; </text><text font-family="Arial,Arial_MSFontService,sans-serif" font-weight="400" font-size="64" transform="matrix(1 0 0 1 3692.48 696)">Distribution</text><text font-family="Arial,Arial_MSFontService,sans-serif" font-weight="400" font-size="64" transform="matrix(1 0 0 1 3453.57 773)">Marketing</text><text font-family="Arial,Arial_MSFontService,sans-serif" font-weight="400" font-size="64" transform="matrix(1 0 0 1 3453.57 850)">Finance</text><text font-family="Arial,Arial_MSFontService,sans-serif" font-weight="400" font-size="64" transform="matrix(1 0 0 1 3453.57 1074)">Marketing</text><text font-family="Arial,Arial_MSFontService,sans-serif" font-weight="400" font-size="64" transform="matrix(1 0 0 1 3453.57 1151)">Finance</text><text font-family="Arial,Arial_MSFontService,sans-serif" font-weight="400" font-size="64" transform="matrix(1 0 0 1 3453.57 1407)">Marketing</text><text font-family="Arial,Arial_MSFontService,sans-serif" font-weight="400" font-size="64" transform="matrix(1 0 0 1 3453.57 1484)">Regional sales</text><text font-family="Arial,Arial_MSFontService,sans-serif" font-weight="400" font-size="64" transform="matrix(1 0 0 1 3453.57 1740)">Marketing</text><text font-family="Arial,Arial_MSFontService,sans-serif" font-weight="400" font-size="64" transform="matrix(1 0 0 1 3453.57 1817)">Strategic planning</text><text font-family="Arial,Arial_MSFontService,sans-serif" font-weight="400" font-size="64" transform="matrix(1 0 0 1 3453.57 2036)">Supply chain</text><text font-family="Arial,Arial_MSFontService,sans-serif" font-weight="400" font-size="64" transform="matrix(1 0 0 1 3453.57 2113)">Finance</text><text font-family="Arial,Arial_MSFontService,sans-serif" font-weight="400" font-size="64" transform="matrix(1 0 0 1 3453.57 2190)">Strategic planning</text><text font-family="Arial,Arial_MSFontService,sans-serif" font-weight="400" font-size="55" transform="matrix(1 0 0 1 2127.13 376)">Create fact</text><text font-family="Arial,Arial_MSFontService,sans-serif" font-weight="400" font-size="55" transform="matrix(1 0 0 1 2395.83 376)">-</text><text font-family="Arial,Arial_MSFontService,sans-serif" font-weight="400" font-size="55" transform="matrix(1 0 0 1 2414.16 376)">based forecasts anchored in the </text><text font-family="Arial,Arial_MSFontService,sans-serif" font-weight="400" font-size="55" transform="matrix(1 0 0 1 2127.13 442)">economic realties of the market. They have a </text><text font-family="Arial,Arial_MSFontService,sans-serif" font-weight="400" font-size="55" transform="matrix(1 0 0 1 2127.13 508)">statistical and a judgment</text><text font-family="Arial,Arial_MSFontService,sans-serif" font-weight="400" font-size="55" transform="matrix(1 0 0 1 2745.88 508)">-</text><text font-family="Arial,Arial_MSFontService,sans-serif" font-weight="400" font-size="55" transform="matrix(1 0 0 1 2764.22 508)">based component</text><text font-family="Arial,Arial_MSFontService,sans-serif" font-weight="400" font-size="55" transform="matrix(1 0 0 1 2127.13 704)">Use as backstop for budgeting to see if proposed </text><text font-family="Arial,Arial_MSFontService,sans-serif" font-weight="400" font-size="55" transform="matrix(1 0 0 1 2127.13 770)">budgets are well aligned with demand </text><text font-family="Arial,Arial_MSFontService,sans-serif" font-weight="400" font-size="55" transform="matrix(1 0 0 1 2127.13 836)">expectations</text><text font-family="Arial,Arial_MSFontService,sans-serif" font-weight="400" font-size="55" transform="matrix(1 0 0 1 2127.13 1076)">Run what</text><text font-family="Arial,Arial_MSFontService,sans-serif" font-weight="400" font-size="55" transform="matrix(1 0 0 1 2358.59 1076)">-</text><text font-family="Arial,Arial_MSFontService,sans-serif" font-weight="400" font-size="55" transform="matrix(1 0 0 1 2376.92 1076)">if scenarios on marketing spend  and </text><text font-family="Arial,Arial_MSFontService,sans-serif" font-weight="400" font-size="55" transform="matrix(1 0 0 1 2127.13 1142)">prices to see where opportunities are largest</text><text font-family="Arial,Arial_MSFontService,sans-serif" font-weight="400" font-size="55" transform="matrix(1 0 0 1 2127.13 1376)">See which categories have the largest </text><text font-family="Arial,Arial_MSFontService,sans-serif" font-weight="400" font-size="55" transform="matrix(1 0 0 1 2127.13 1442)">premiumization opportunities using PoluSim’s </text><text font-family="Arial,Arial_MSFontService,sans-serif" font-weight="400" font-size="55" transform="matrix(1 0 0 1 2127.13 1508)">price segment view</text><text font-family="Arial,Arial_MSFontService,sans-serif" font-weight="400" font-size="55" transform="matrix(1 0 0 1 2127.13 1709)">Knowing expectations for category growth, </text><text font-family="Arial,Arial_MSFontService,sans-serif" font-weight="400" font-size="55" transform="matrix(1 0 0 1 2127.13 1775)">identify gaps in current portfolio. This may lead </text><text font-family="Arial,Arial_MSFontService,sans-serif" font-weight="400" font-size="55" transform="matrix(1 0 0 1 2127.13 1841)">to acquisition and divestiture insights</text><text font-family="Arial,Arial_MSFontService,sans-serif" font-weight="400" font-size="55" transform="matrix(1 0 0 1 2127.13 2044)">Combine market demand forecasts, with skilled </text><text font-family="Arial,Arial_MSFontService,sans-serif" font-weight="400" font-size="55" transform="matrix(1 0 0 1 2127.13 2110)">workforce availability and water supply to find </text><text font-family="Arial,Arial_MSFontService,sans-serif" font-weight="400" font-size="55" transform="matrix(1 0 0 1 2127.13 2176)">best location of new facilities</text><text font-family="Arial,Arial_MSFontService,sans-serif" font-weight="400" font-size="50" transform="matrix(1 0 0 1 1495.69 2334)">Source: Tellusant thought</text><text font-family="Arial,Arial_MSFontService,sans-serif" font-weight="700" font-size="69" transform="matrix(1 0 0 1 756.814 204)">USE</text><text font-family="Arial,Arial_MSFontService,sans-serif" font-weight="700" font-size="69" transform="matrix(1 0 0 1 898.324 204)">-</text><text font-family="Arial,Arial_MSFontService,sans-serif" font-weight="700" font-size="69" transform="matrix(1 0 0 1 921.241 204)">CASE EXAMPLES FOR POLUSIM </text><text font-family="Arial,Arial_MSFontService,sans-serif" font-weight="700" font-size="69" transform="matrix(1 0 0 1 2024.11 204)">–</text><text font-family="Arial,Arial_MSFontService,sans-serif" font-weight="700" font-size="69" transform="matrix(1 0 0 1 2081.4 204)">TELLUSANT’S </text><text font-family="Arial,Arial_MSFontService,sans-serif" font-weight="700" font-size="69" transform="matrix(1 0 0 1 2573.53 204)">STRATEGIC FORECASTING SOLUTION </text></g></svg>