<svg width="3100" height="2112" xmlns="http://www.w3.org/2000/svg" xmlns:xlink="http://www.w3.org/1999/xlink" xml:space="preserve" overflow="hidden"><defs><clipPath id="clip0"><rect x="841" y="194" width="3100" height="2112"/></clipPath><clipPath id="clip1"><rect x="841" y="339" width="3101" height="1967"/></clipPath></defs><g clip-path="url(#clip0)" transform="translate(-841 -194)"><g clip-path="url(#clip1)"><g><path d="M1405.23 255.531 1452.64 267.904 1445.8 311.402 1412.91 348.752 1327.76 397.86 1252.29 408.004 1187.12 445.2 1105.12 454.192 1082.22 474.019 1024.58 486.315 902.619 470.33 824.231 432.52 793.106 407.312 740.693 320.393 756.371 297.031 799.869 281.276 731.471 261.371 646.243 277.664 641.786 240.084 699.578 198.507 745.228 201.889 774.354 170.917 846.518 209.113 847.517 249.767 884.482 260.449 986.618 242.082 1014.82 210.726 1048.87 198.968 1128.56 203.887 1164.07 218.796 1238.54 198.507 1239.38 166.691 1284.57 166.076 1293.95 189.823 1359.65 196.432 1372.49 243.235 1405.23 255.531Z" stroke="#FFFFFF" stroke-width="7.68514" stroke-linecap="round" stroke-linejoin="round" fill="#7DB9DF" transform="matrix(1 0 0 1.00011 309.619 339.563)"/><path d="M1079.3 2219.93 1068.7 2212.32 1082.37 2204.17 1085.06 2212.55 1079.3 2219.93Z" stroke="#D3D3D3" stroke-width="7.68514" stroke-linecap="round" stroke-linejoin="round" fill="#D3D3D3" transform="matrix(1 0 0 1.00011 309.619 339.563)"/><path d="M1067.47 2188.73 1069.77 2152.53 1068.39 2150.84 1068.93 2150.15 1074.15 2149.84 1147.24 2147.92 1160.84 2163.29 1136.17 2188.88 1067.47 2188.73Z" stroke="#D3D3D3" stroke-width="7.68514" stroke-linecap="round" stroke-linejoin="round" fill="#D3D3D3" transform="matrix(1 0 0 1.00011 309.619 339.563)"/><path d="M1067.47 2188.73 1136.17 2188.88 1144.24 2226.46 1136.09 2223 1051.4 2227.38 1031.19 2224.23 1067.47 2188.73ZM1079.3 2219.93 1085.06 2212.55 1082.37 2204.17 1068.7 2212.32 1079.3 2219.93Z" stroke="#D3D3D3" stroke-width="7.68514" stroke-linecap="round" stroke-linejoin="round" fill="#D3D3D3" fill-rule="evenodd" transform="matrix(1 0 0 1.00011 309.619 339.563)"/><path d="M1136.17 2188.88 1160.84 2163.29 1190.74 2168.05 1213.1 2178.74 1197.73 2215.86 1144.24 2226.46 1136.17 2188.88Z" stroke="#D3D3D3" stroke-width="7.68514" stroke-linecap="round" stroke-linejoin="round" fill="#D3D3D3" transform="matrix(1 0 0 1.00011 309.619 339.563)"/><path d="M1069.77 2152.53 1067.47 2188.73 1031.19 2224.23 993.227 2220.77 992.612 2162.44 1037.8 2170.67 1069.77 2152.53Z" stroke="#D3D3D3" stroke-width="7.68514" stroke-linecap="round" stroke-linejoin="round" fill="#D3D3D3" transform="matrix(1 0 0 1.00011 309.619 339.563)"/><path d="M992.612 2162.44 993.227 2220.77 966.867 2222.46 953.802 2220.24 937.817 2228.15 916.068 2194.57 990.23 2151.15 992.612 2162.44Z" stroke="#D3D3D3" stroke-width="7.68514" stroke-linecap="round" stroke-linejoin="round" fill="#D3D3D3" transform="matrix(1 0 0 1.00011 309.619 339.563)"/><path d="M1051.4 2227.38 1136.09 2223 1131.87 2235.38 1093.29 2247.52 1051.4 2227.38Z" stroke="#D3D3D3" stroke-width="7.68514" stroke-linecap="round" stroke-linejoin="round" fill="#D3D3D3" transform="matrix(1 0 0 1.00011 309.619 339.563)"/><path d="M1031.19 2224.23 1051.4 2227.38 1093.29 2247.52 1070.69 2290.63 1075.07 2317.07 1055.17 2314.84 1040.18 2268.27 1007.52 2270.96 966.867 2222.46 993.227 2220.77 1031.19 2224.23Z" stroke="#D3D3D3" stroke-width="7.68514" stroke-linecap="round" stroke-linejoin="round" fill="#D3D3D3" transform="matrix(1 0 0 1.00011 309.619 339.563)"/><path d="M1136.09 2223 1144.24 2226.46 1197.73 2215.86 1197.42 2221.54 1216.1 2221.62 1228.7 2225.77 1258.9 2272.26 1232.62 2294.32 1222.71 2289.25 1166.83 2265.5 1131.87 2235.38 1136.09 2223Z" stroke="#D3D3D3" stroke-width="7.68514" stroke-linecap="round" stroke-linejoin="round" fill="#D3D3D3" transform="matrix(1 0 0 1.00011 309.619 339.563)"/><path d="M1166.83 2265.5 1222.71 2289.25 1194.19 2321.76 1197.42 2362.95 1163.15 2366.1 1121.88 2333.13 1166.83 2265.5Z" stroke="#D3D3D3" stroke-width="7.68514" stroke-linecap="round" stroke-linejoin="round" fill="#D3D3D3" transform="matrix(1 0 0 1.00011 309.619 339.563)"/><path d="M1093.29 2247.52 1131.87 2235.38 1166.83 2265.5 1121.88 2333.13 1075.07 2317.07 1070.69 2290.63 1093.29 2247.52Z" stroke="#D3D3D3" stroke-width="7.68514" stroke-linecap="round" stroke-linejoin="round" fill="#D3D3D3" transform="matrix(1 0 0 1.00011 309.619 339.563)"/><path d="M3197.4 2120.1 3165.97 2102.58 3102.87 2100.04 3067.22 2086.28 2909.9 2088.36 2878.08 2126.09 2841.58 2134.16 2841.5 2068.15 2799.08 2045.4 2866.79 1988.99 2916.97 1991.14 2933.19 1966.4 2979.68 1978.85 3014.42 1956.1 3019.57 1921.51 3083.35 1919.98 3087.35 1963.78 3150.52 1997.6 3171.58 2031.26 3197.09 2048.78 3197.4 2120.1Z" stroke="#D3D3D3" stroke-width="7.68514" stroke-linecap="round" stroke-linejoin="round" fill="#D3D3D3" transform="matrix(1 0 0 1.00011 309.619 339.563)"/><path d="M3219 1876.56 3182.03 1887.32 3139.61 1858.73 3166.97 1819.53 3210.85 1840.13 3219 1876.56Z" stroke="#D3D3D3" stroke-width="7.68514" stroke-linecap="round" stroke-linejoin="round" fill="#D3D3D3" transform="matrix(1 0 0 1.00011 309.619 339.563)"/><path d="M3582.04 2065.53 3506.04 2068.99 3469.99 2117.02 3441.94 2135.08 3379.23 2145.92 3345.96 2118.41 3316.06 2130.86 3211.62 2133.01 3197.4 2120.1 3197.09 2048.78 3171.58 2031.26 3202.32 2014.2 3233.83 2027.26 3280.32 1999.06 3342.34 1965.93 3389.22 1968.62 3394.45 1924.28 3430.95 1937.5 3499.97 1928.43 3536.16 1952.64 3560.06 1989.68 3562.75 2043.17 3582.04 2065.53Z" stroke="#D3D3D3" stroke-width="7.68514" stroke-linecap="round" stroke-linejoin="round" fill="#D3D3D3" transform="matrix(1 0 0 1.00011 309.619 339.563)"/><path d="M3083.35 1919.98 3019.57 1921.51 3014.42 1956.1 2979.68 1978.85 2933.19 1966.4 2916.97 1991.14 2866.79 1988.99 2825.44 1853.27 2909.21 1859.57 2945.25 1831.68 3018.88 1810.23 3021.8 1758.13 3063.22 1734.46 3069.14 1740.99 3105.72 1777.42 3079.67 1821.99 3072.29 1874.79 3083.35 1919.98Z" stroke="#D3D3D3" stroke-width="7.68514" stroke-linecap="round" stroke-linejoin="round" fill="#D3D3D3" transform="matrix(1 0 0 1.00011 309.619 339.563)"/><path d="M3536.16 1952.64 3499.97 1928.43 3430.95 1937.5 3394.45 1924.28 3389.22 1968.62 3342.34 1965.93 3280.32 1999.06 3265.03 1906.53 3346.72 1884.7 3350.95 1821.45 3511.19 1794.02 3522.87 1818.46 3574.43 1846.66 3657.13 1921.28 3607.4 1953.18 3559.29 1936.27 3536.16 1952.64Z" stroke="#D3D3D3" stroke-width="7.68514" stroke-linecap="round" stroke-linejoin="round" fill="#D3D3D3" transform="matrix(1 0 0 1.00011 309.619 339.563)"/><path d="M3171.58 2031.26 3150.52 1997.6 3087.35 1963.78 3083.35 1919.98 3072.29 1874.79 3079.67 1821.99 3105.72 1777.42 3069.14 1740.99 3148.52 1734.69 3203.4 1778.49 3261.42 1785.03 3357.41 1781.49 3350.95 1821.45 3346.72 1884.7 3265.03 1906.53 3280.32 1999.06 3233.83 2027.26 3202.32 2014.2 3171.58 2031.26ZM3219 1876.56 3210.85 1840.13 3166.97 1819.53 3139.61 1858.73 3182.03 1887.32 3219 1876.56Z" stroke="#D3D3D3" stroke-width="7.68514" stroke-linecap="round" stroke-linejoin="round" fill="#D3D3D3" fill-rule="evenodd" transform="matrix(1 0 0 1.00011 309.619 339.563)"/><path d="M3069.14 1740.99 3063.22 1734.46 3114.63 1703.18 3096.8 1658.91 3185.87 1628.71 3227.3 1602.66 3415.66 1635.55 3474.83 1663.22 3482.67 1738.84 3511.19 1794.02 3350.95 1821.45 3357.41 1781.49 3261.42 1785.03 3203.4 1778.49 3148.52 1734.69 3069.14 1740.99Z" stroke="#D3D3D3" stroke-width="7.68514" stroke-linecap="round" stroke-linejoin="round" fill="#D3D3D3" transform="matrix(1 0 0 1.00011 309.619 339.563)"/><path d="M2018.66 2006.05 2034.26 2070.22 2018.12 2096.66 2029.88 2126.32 1975.62 2130.78 1938.58 2151.84 1877.02 2118.72 1884.63 2094.43 1803.93 2058 1808.93 1978.85 1752.67 1958.71 1723.24 1948.87 1795.86 1922.74 1860.11 1941.34 1927.74 1926.13 1955.79 1905.61 2007.74 1925.05 1988.3 1984.07 2018.66 2006.05ZM1922.36 2007.28 1897.08 2005.59 1898.38 2029.49 1929.74 2032.57 1922.36 2007.28Z" stroke="#D3D3D3" stroke-width="7.68514" stroke-linecap="round" stroke-linejoin="round" fill="#D3D3D3" fill-rule="evenodd" transform="matrix(1 0 0 1.00011 309.619 339.563)"/><path d="M1922.36 2007.28 1929.74 2032.57 1898.38 2029.49 1897.08 2005.59 1922.36 2007.28Z" stroke="#D3D3D3" stroke-width="7.68514" stroke-linecap="round" stroke-linejoin="round" fill="#D3D3D3" transform="matrix(1 0 0 1.00011 309.619 339.563)"/><path d="M1547.25 2598.27 1531.19 2602.11 1467.78 2584.28 1460.25 2581.28 1454.1 2579.21 1448.26 2567.07 1432.36 2570.29 1423.9 2581.9 1444.65 2584.59 1424.52 2594.19 1358.27 2597.58 1350.89 2594.89 1347.05 2591.04 1340.9 2583.13 1374.41 2474.23 1416.99 2430.5 1443.19 2392.31 1439.12 2358.49 1502.06 2359.18 1523.19 2336.82 1570.38 2344.43 1623.41 2436.27 1621.18 2465.7 1574.53 2499.74 1588.83 2538.17 1585.44 2581.67 1547.25 2598.27ZM1447.8 2579.9 1453.26 2579.52 1448.73 2580.67 1447.8 2579.9Z" stroke="#D3D3D3" stroke-width="7.68514" stroke-linecap="round" stroke-linejoin="round" fill="#D3D3D3" fill-rule="evenodd" transform="matrix(1 0 0 1.00011 309.619 339.563)"/><path d="M1937.42 2453.33 1925.97 2483.45 1834.52 2528.49 1842.9 2544.01 1863.42 2587.2 1814.61 2586.74 1778.19 2578.75 1675.05 2614.71 1615.26 2595.73 1587.67 2629.32 1547.25 2598.27 1585.44 2581.67 1588.83 2538.17 1574.53 2499.74 1621.18 2465.7 1623.41 2436.27 1570.38 2344.43 1523.19 2336.82 1502.06 2359.18 1497.99 2296.93 1543.56 2298.32 1594.97 2249.82 1645.31 2271.11 1767.2 2260.51 1783.34 2272.88 1822.76 2320.99 1811.62 2344.2 1897.61 2428.04 1914.21 2430.12 1937.42 2453.33Z" stroke="#D3D3D3" stroke-width="7.68514" stroke-linecap="round" stroke-linejoin="round" fill="#D3D3D3" transform="matrix(1 0 0 1.00011 309.619 339.563)"/><path d="M1490.15 1942.42 1513.51 1945.49 1508.9 1961.32 1492.22 1957.64 1490.15 1942.42Z" stroke="#D3D3D3" stroke-width="7.68514" stroke-linecap="round" stroke-linejoin="round" fill="#D3D3D3" transform="matrix(1 0 0 1.00011 309.619 339.563)"/><path d="M1502.06 2359.18 1439.12 2358.49 1416.6 2277.64 1420.21 2230.15 1482 2173.2 1470.63 2154.76 1547.79 2118.41 1590.44 2150.22 1614.49 2174.59 1585.44 2221.62 1594.97 2249.82 1543.56 2298.32 1497.99 2296.93 1502.06 2359.18Z" stroke="#D3D3D3" stroke-width="7.68514" stroke-linecap="round" stroke-linejoin="round" fill="#D3D3D3" transform="matrix(1 0 0 1.00011 309.619 339.563)"/><path d="M1639.01 1913.14 1591.67 1900.53 1588.44 1898 1639.01 1913.14Z" stroke="#D3D3D3" stroke-width="7.68514" stroke-linecap="round" stroke-linejoin="round" fill="#D3D3D3" transform="matrix(1 0 0 1.00011 309.619 339.563)"/><path d="M2007.74 1925.05 1955.79 1905.61 1927.74 1926.13 1860.11 1941.34 1795.86 1922.74 1723.24 1948.87 1664.37 1921.05 1694.19 1897.15 1696.03 1853.19 1743.53 1858.57 1766.97 1830.75 1833.29 1805.01 1895.54 1813.46 1958.71 1850.04 1993.52 1856.42 2007.74 1925.05Z" stroke="#D3D3D3" stroke-width="7.68514" stroke-linecap="round" stroke-linejoin="round" fill="#D3D3D3" transform="matrix(1 0 0 1.00011 309.619 339.563)"/><path d="M1723.24 1948.87 1752.67 1958.71 1675.05 1987.38 1700.57 2052.78 1665.6 2072.3 1662.76 2119.33 1590.44 2150.22 1547.79 2118.41 1507.36 2031.72 1462.1 2026.26 1456.18 2065.46 1422.67 2070.22 1396.77 2031.8 1336.52 2050.16 1308.01 2005.59 1344.36 1981.38 1358.66 1935.66 1344.28 1907.37 1370.49 1884.78 1434.97 1881.32 1478.62 1905.15 1479.77 1893.31 1485.92 1866.18 1549.4 1864.57 1591.67 1900.53 1639.01 1913.14 1664.37 1921.05 1723.24 1948.87ZM1490.15 1942.42 1492.22 1957.64 1508.9 1961.32 1513.51 1945.49 1490.15 1942.42Z" stroke="#D3D3D3" stroke-width="7.68514" stroke-linecap="round" stroke-linejoin="round" fill="#D3D3D3" fill-rule="evenodd" transform="matrix(1 0 0 1.00011 309.619 339.563)"/><path d="M1258.9 2272.26 1228.7 2225.77 1223.7 2195.03 1252.14 2134.24 1230.62 2107.73 1312.47 2082.21 1308.39 2064.3 1336.52 2050.16 1396.77 2031.8 1422.67 2070.22 1456.18 2065.46 1462.1 2026.26 1507.36 2031.72 1547.79 2118.41 1470.63 2154.76 1482 2173.2 1420.21 2230.15 1377.64 2220.62 1258.9 2272.26Z" stroke="#D3D3D3" stroke-width="7.68514" stroke-linecap="round" stroke-linejoin="round" fill="#D3D3D3" transform="matrix(1 0 0 1.00011 309.619 339.563)"/><path d="M1232.62 2294.32 1258.9 2272.26 1377.64 2220.62 1420.21 2230.15 1416.6 2277.64 1439.12 2358.49 1443.19 2392.31 1416.99 2430.5 1338.21 2407.68 1332.68 2361.03 1305.55 2352.57 1249.83 2362.26 1263.74 2334.13 1232.62 2294.32Z" stroke="#D3D3D3" stroke-width="7.68514" stroke-linecap="round" stroke-linejoin="round" fill="#D3D3D3" transform="matrix(1 0 0 1.00011 309.619 339.563)"/><path d="M1639.01 1913.14 1588.44 1898 1560.31 1869.87 1522.58 1860.57 1519.81 1779.8 1501.14 1744.37 1569.92 1753.44 1621.95 1785.41 1714.63 1825.45 1696.03 1853.19 1694.19 1897.15 1664.37 1921.05 1639.01 1913.14Z" stroke="#D3D3D3" stroke-width="7.68514" stroke-linecap="round" stroke-linejoin="round" fill="#D3D3D3" transform="matrix(1 0 0 1.00011 309.619 339.563)"/><path d="M1249.83 2362.26 1305.55 2352.57 1332.68 2361.03 1338.21 2407.68 1277.42 2404.53 1248.37 2372.09 1249.83 2362.26Z" stroke="#D3D3D3" stroke-width="7.68514" stroke-linecap="round" stroke-linejoin="round" fill="#D3D3D3" transform="matrix(1 0 0 1.00011 309.619 339.563)"/><path d="M1864.8 2261.2 1783.34 2272.88 1767.2 2260.51 1800.47 2215.62 1804.24 2183.12 1793.71 2140.08 1844.13 2117.02 1877.02 2118.72 1938.58 2151.84 1975.62 2130.78 2029.88 2126.32 2051.39 2151.53 2035.87 2208.71 2035.87 2208.71 2035.95 2208.71 2019.73 2211.24 1890.16 2241.22 1864.8 2261.2Z" stroke="#D3D3D3" stroke-width="7.68514" stroke-linecap="round" stroke-linejoin="round" fill="#D3D3D3" transform="matrix(1 0 0 1.00011 309.619 339.563)"/><path d="M1752.67 1958.71 1808.93 1978.85 1803.93 2058 1884.63 2094.43 1877.02 2118.72 1844.13 2117.02 1793.71 2140.08 1804.24 2183.12 1795.56 2198.72 1729.16 2180.58 1717.94 2146.23 1662.76 2119.33 1665.6 2072.3 1700.57 2052.78 1675.05 1987.38 1752.67 1958.71Z" stroke="#D3D3D3" stroke-width="7.68514" stroke-linecap="round" stroke-linejoin="round" fill="#D3D3D3" transform="matrix(1 0 0 1.00011 309.619 339.563)"/><path d="M1767.2 2260.51 1645.31 2271.11 1594.97 2249.82 1585.44 2221.62 1614.49 2174.59 1590.44 2150.22 1662.76 2119.33 1717.94 2146.23 1729.16 2180.58 1795.56 2198.72 1804.24 2183.12 1800.47 2215.62 1767.2 2260.51Z" stroke="#D3D3D3" stroke-width="7.68514" stroke-linecap="round" stroke-linejoin="round" fill="#D3D3D3" transform="matrix(1 0 0 1.00011 309.619 339.563)"/><path d="M1652.54 1543.64 1612.65 1558.16 1575.68 1544.56 1576.61 1508.44 1632.86 1502.6 1652.54 1543.64ZM1495.84 1544.64 1495.68 1545.17 1481.46 1531.72 1517.89 1494.07 1588.13 1489.07 1636.63 1442.81 1690.04 1458.64 1666.91 1509.36 1604.81 1499.68 1521.5 1513.51 1495.84 1544.64Z" stroke="#FFFFFF" stroke-width="7.68514" stroke-linecap="round" stroke-linejoin="round" fill="#D0CD9F" fill-rule="evenodd" transform="matrix(1 0 0 1.00011 309.619 339.563)"/><path d="M1575.68 1544.56 1612.65 1558.16 1652.54 1543.64 1717.17 1569.31 1697.88 1594.74 1649.85 1605.35 1630.09 1654.3 1599.2 1653.46 1575.68 1629.25 1492.99 1645.62 1469.09 1639.93 1469.32 1572.07 1545.94 1530.42 1575.68 1544.56Z" stroke="#FFFFFF" stroke-width="7.68514" stroke-linecap="round" stroke-linejoin="round" fill="#DBA497" transform="matrix(1 0 0 1.00011 309.619 339.563)"/><path d="M1670.29 1682.51 1689.35 1726.39 1651.61 1728.08 1608.73 1683.05 1670.29 1682.51ZM1569.92 1753.44 1501.14 1744.37 1503.9 1685.73 1467.55 1641.39 1468.55 1640.24 1469.09 1639.93 1492.99 1645.62 1575.68 1629.25 1599.2 1653.46 1569.92 1753.44Z" stroke="#FFFFFF" stroke-width="7.68514" stroke-linecap="round" stroke-linejoin="round" fill="#C7E87E" fill-rule="evenodd" transform="matrix(1 0 0 1.00011 309.619 339.563)"/><path d="M1836.06 1666.83 1812.77 1645.93 1832.75 1606.27 1860.03 1615.95 1858.8 1653 1836.06 1666.83Z" stroke="#FFFFFF" stroke-width="7.68514" stroke-linecap="round" stroke-linejoin="round" fill="#8CBABB" transform="matrix(1 0 0 1.00011 309.619 339.563)"/><path d="M1812.77 1645.93 1836.06 1666.83 1833.52 1707.25 1785.33 1731.62 1738.92 1712.4 1727 1664.45 1761.82 1637.4 1793.02 1651.07 1803.01 1651.46 1812.77 1645.93Z" stroke="#FFFFFF" stroke-width="7.68514" stroke-linecap="round" stroke-linejoin="round" fill="#C698C0" transform="matrix(1 0 0 1.00011 309.619 339.563)"/><path d="M3200.01 1234.23 3150.98 1308.01 3165.12 1414.83 3147.91 1446.8 3075.36 1449.26 2974.84 1392.7 2928.73 1398.31 2887.77 1409.92 2878.16 1365.19 2840.2 1357.2 2810.38 1300.94 2809.38 1261.44 2883.92 1232.16 2971.77 1230.54 3024.1 1215.79 3102.87 1236.15 3200.01 1234.23ZM2739.29 1368.11 2702.09 1378.48 2673.35 1343.13 2798.62 1323.92 2739.29 1368.11Z" stroke="#FFFFFF" stroke-width="7.68514" stroke-linecap="round" stroke-linejoin="round" fill="#808D79" fill-rule="evenodd" transform="matrix(1 0 0 1.00011 309.619 339.563)"/><path d="M2512.96 1163.84 2481.99 1147.47 2502.2 1127.33 2532.41 1144.47 2512.96 1163.84Z" stroke="#FFFFFF" stroke-width="7.68514" stroke-linecap="round" stroke-linejoin="round" fill="#838CD3" transform="matrix(1 0 0 1.00011 309.619 339.563)"/><path d="M3356.79 971.478 3286.24 1034.42 3185.57 1100.59 3184.72 1100.82 3117.71 1074.77 3116.4 1046.56 3144.37 1025.43 3281.78 1002.91 3309.45 985.235 3356.79 971.478Z" stroke="#FFFFFF" stroke-width="7.68514" stroke-linecap="round" stroke-linejoin="round" fill="#D5E494" transform="matrix(1 0 0 1.00011 309.619 339.563)"/><path d="M2870.01 834.222 2884.16 900.775 2844.35 915.761 2783.48 910.305 2746.44 925.828 2677.19 956.953 2647.84 953.034 2642.38 889.708 2693.95 873.57 2731.61 833.76 2721.69 818.006 2814.6 806.171 2854.72 830.763 2870.01 834.222Z" stroke="#FFFFFF" stroke-width="7.68514" stroke-linecap="round" stroke-linejoin="round" fill="#8C8091" transform="matrix(1 0 0 1.00011 309.619 339.563)"/><path d="M3309.45 985.235 3281.78 1002.91 3144.37 1025.43 3116.4 1046.56 3057.22 1034.34 3039.09 997.915 3056.84 988.232 3029.1 943.581 3067.22 906.308 3123.09 900.698 3179.65 924.676 3227.14 884.482 3282.01 912.917 3309.45 985.235Z" stroke="#FFFFFF" stroke-width="7.68514" stroke-linecap="round" stroke-linejoin="round" fill="#CAA3D3" transform="matrix(1 0 0 1.00011 309.619 339.563)"/><path d="M3295.39 580.843 3287.78 627.03 3323.98 655.465 3327.9 696.658 3369.47 734.545 3327.59 766.285 3302.07 752.99 3194.71 766.131 3071.44 736.236 3022.49 689.28 3088.35 650.931 3102.72 623.649 3252.73 578.383 3295.39 580.843Z" stroke="#FFFFFF" stroke-width="7.68514" stroke-linecap="round" stroke-linejoin="round" fill="#88C89B" transform="matrix(1 0 0 1.00011 309.619 339.563)"/><path d="M2941.18 1083.99 2897.07 1110.58 2839.58 1102.74 2777.64 1087.37 2779.64 1064.31 2923.04 1029.04 2956.09 1055.71 2941.18 1083.99Z" stroke="#FFFFFF" stroke-width="7.68514" stroke-linecap="round" stroke-linejoin="round" fill="#98EAC2" transform="matrix(1 0 0 1.00011 309.619 339.563)"/><path d="M2814.6 806.171 2809.3 775.123 2757.2 759.676 2811.76 721.096 2923.43 797.794 2870.01 834.222 2854.72 830.763 2814.6 806.171ZM2755.28 762.366 2747.13 757.37 2742.9 753.989 2742.21 753.681 2745.28 750.684 2755.28 762.366Z" stroke="#FFFFFF" stroke-width="7.68514" stroke-linecap="round" stroke-linejoin="round" fill="#A6939B" fill-rule="evenodd" transform="matrix(1 0 0 1.00011 309.619 339.563)"/><path d="M2844.35 915.761 2884.16 900.775 2870.01 834.222 2923.43 797.794 2939.95 781.655 3014.5 798.025 3021.26 861.35 3067.22 906.308 3029.1 943.581 3056.84 988.232 3039.09 997.915 2998.05 979.932 2966.46 1011.06 2926.65 1014.98 2925.89 1014.44 2916.36 949.422 2844.35 915.761Z" stroke="#FFFFFF" stroke-width="7.68514" stroke-linecap="round" stroke-linejoin="round" fill="#82A9B2" transform="matrix(1 0 0 1.00011 309.619 339.563)"/><path d="M3116.4 1046.56 3117.71 1074.77 3184.72 1100.82 3170.58 1115.11 3147.6 1120.03 3056.99 1120.88 3034.71 1091.06 3024.26 1056.01 3057.22 1034.34 3116.4 1046.56Z" stroke="#FFFFFF" stroke-width="7.68514" stroke-linecap="round" stroke-linejoin="round" fill="#B7C6E6" transform="matrix(1 0 0 1.00011 309.619 339.563)"/><path d="M3200.17 212.187 3167.35 264.061 3186.33 300.181 3239.98 312.555 3293.62 369.962 3226.68 425.833 3272.1 482.703 3201.94 477.016 3206.62 513.751 3174.58 547.95 3105.49 532.119 3059.91 559.247 2945.33 554.867 2918.97 571.544 2843.35 546.567 2801.92 480.628 2828.51 442.971 2792.47 407.697 2807.61 379.646 2757.66 295.801 2656.44 260.68 2553.31 212.033 2636.46 189.823 2693.1 237.317 2758.96 254.762 2909.29 239.161 2957.09 214.953 2963 149.86 3004.27 123.5 3092.58 109.206 3211.47 147.631 3227.76 170.687 3200.17 212.187Z" stroke="#FFFFFF" stroke-width="7.68514" stroke-linecap="round" stroke-linejoin="round" fill="#7DD4A8" transform="matrix(1 0 0 1.00011 309.619 339.563)"/><path d="M2746.44 925.828 2783.48 910.305 2844.35 915.761 2916.36 949.422 2925.89 1014.44 2923.04 1029.04 2779.64 1064.31 2760.35 1059.32 2733.22 1037.49 2746.44 925.828Z" stroke="#FFFFFF" stroke-width="7.68514" stroke-linecap="round" stroke-linejoin="round" fill="#9B8E97" transform="matrix(1 0 0 1.00011 309.619 339.563)"/><path d="M2814.6 806.171 2721.69 818.006 2731.61 833.76 2693.95 873.57 2642.38 889.708 2647.84 953.034 2621.55 960.488 2625.09 930.44 2619.48 917.298 2601.8 896.548 2613.25 862.81 2614.02 859.198 2619.94 847.056 2629.85 842.137 2632.24 839.217 2635.93 832.531 2726.46 764.056 2733.83 756.294 2739.21 754.911 2747.13 757.37 2755.28 762.366 2757.2 759.676 2809.3 775.123 2814.6 806.171Z" stroke="#FFFFFF" stroke-width="7.68514" stroke-linecap="round" stroke-linejoin="round" fill="#A2B5B0" transform="matrix(1 0 0 1.00011 309.619 339.563)"/><path d="M3356.79 971.478 3309.45 985.235 3282.01 912.917 3227.14 884.482 3257.11 846.518 3194.71 766.131 3302.07 752.99 3327.59 766.285 3433.72 822.156 3466.15 856.355 3441.33 900.314 3356.79 971.478Z" stroke="#FFFFFF" stroke-width="7.68514" stroke-linecap="round" stroke-linejoin="round" fill="#BFB379" transform="matrix(1 0 0 1.00011 309.619 339.563)"/><path d="M3295.39 580.843 3252.73 578.383 3102.72 623.649 3088.35 650.931 3022.49 689.28 3071.44 736.236 3020.11 757.293 3014.5 798.025 2939.95 781.655 2923.43 797.794 2811.76 721.096 2865.71 680.519 2879.62 652.622 2933.03 639.327 2941.87 588.605 2918.97 571.544 2945.33 554.867 3059.91 559.247 3105.49 532.119 3174.58 547.95 3206.62 513.751 3201.94 477.016 3272.1 482.703 3322.52 555.789 3295.39 580.843Z" stroke="#FFFFFF" stroke-width="7.68514" stroke-linecap="round" stroke-linejoin="round" fill="#BD8CD5" transform="matrix(1 0 0 1.00011 309.619 339.563)"/><path d="M3227.14 884.482 3179.65 924.676 3123.09 900.698 3067.22 906.308 3021.26 861.35 3014.5 798.025 3020.11 757.293 3071.44 736.236 3194.71 766.131 3257.11 846.518 3227.14 884.482Z" stroke="#FFFFFF" stroke-width="7.68514" stroke-linecap="round" stroke-linejoin="round" fill="#9CAFB4" transform="matrix(1 0 0 1.00011 309.619 339.563)"/><path d="M3039.09 997.915 3057.22 1034.34 3024.26 1056.01 3034.71 1091.06 2976.53 1097.13 2941.18 1083.99 2956.09 1055.71 2923.04 1029.04 2925.89 1014.44 2926.65 1014.98 2966.46 1011.06 2998.05 979.932 3039.09 997.915Z" stroke="#FFFFFF" stroke-width="7.68514" stroke-linecap="round" stroke-linejoin="round" fill="#AF7FD6" transform="matrix(1 0 0 1.00011 309.619 339.563)"/><path d="M2647.84 953.034 2677.19 956.953 2746.44 925.828 2733.22 1037.49 2760.35 1059.32 2680.19 1075.07 2630.01 1059.24 2640.08 1038.8 2637.62 1023.74 2633.39 1016.51 2647.15 1001.3 2635.93 980.623 2621.55 960.488 2647.84 953.034Z" stroke="#FFFFFF" stroke-width="7.68514" stroke-linecap="round" stroke-linejoin="round" fill="#7AC389" transform="matrix(1 0 0 1.00011 309.619 339.563)"/><path d="M2839.58 1102.74 2897.07 1110.58 2941.18 1083.99 2976.53 1097.13 3034.71 1091.06 3056.99 1120.88 3039.47 1127.1 3007.5 1130.56 2901.45 1167.91 2858.1 1171.6 2779.02 1186.66 2767.26 1163.07 2810.38 1152.08 2823.52 1124.41 2839.58 1102.74Z" stroke="#FFFFFF" stroke-width="7.68514" stroke-linecap="round" stroke-linejoin="round" fill="#B1C586" transform="matrix(1 0 0 1.00011 309.619 339.563)"/><path d="M2779.64 1064.31 2777.64 1087.37 2839.58 1102.74 2823.52 1124.41 2810.38 1152.08 2767.26 1163.07 2753.97 1159.92 2718.77 1174.14 2720.31 1162.61 2709.55 1134.02 2664.9 1132.87 2625.32 1099.9 2617.71 1079.15 2617.4 1079.15 2623.17 1083.22 2613.64 1073.61 2630.01 1059.24 2680.19 1075.07 2760.35 1059.32 2779.64 1064.31Z" stroke="#FFFFFF" stroke-width="7.68514" stroke-linecap="round" stroke-linejoin="round" fill="#C7A782" transform="matrix(1 0 0 1.00011 309.619 339.563)"/><path d="M1448.73 3315.91 1420.75 3305.45 1419.98 3247.59 1403.38 3234.75 1414.76 3192.48 1481.85 3165.97 1498.45 3186.26 1498.6 3238.75 1479.7 3294 1448.73 3315.91Z" stroke="#D3D3D3" stroke-width="7.68514" stroke-linecap="round" stroke-linejoin="round" fill="#D3D3D3" transform="matrix(1 0 0 1.00011 309.619 339.563)"/><path d="M1202.65 2737.06 1182.44 2761.96 1198.57 2762.35 1208.1 2742.13 1209.41 2739.91 1210.33 2738.29 1266.13 2728.68 1261.59 2759.19 1282.96 2786.25 1260.52 2811.84 1284.95 2842.19 1286.57 2867.09 1237.61 2884.23 1140.01 2942.25 1140.09 2992.36 1117.34 3001.58 1081.15 2979.14 1041.49 2983.68 986.925 2976.68 960.027 2916.43 893.397 2920.35 865.039 2904.29 838.602 2937.64 807.862 2940.1 801.099 2899.99 845.98 2847.73 863.118 2775.18 836.604 2729.45 911.304 2685.34 966.483 2691.64 1023.35 2760.5 1064.7 2745.44 1088.29 2718.39 1143.16 2747.28 1194.04 2729.91 1202.65 2737.06Z" stroke="#D3D3D3" stroke-width="7.68514" stroke-linecap="round" stroke-linejoin="round" fill="#D3D3D3" transform="matrix(1 0 0 1.00011 309.619 339.563)"/><path d="M1303.02 2602.03 1274.2 2641.77 1234 2679.73 1194.04 2729.91 1143.16 2747.28 1088.29 2718.39 1064.7 2745.44 1023.35 2760.5 966.483 2691.64 911.304 2685.34 917.682 2657.6 902.466 2596.35 932.207 2546.85 916.299 2524.49 963.255 2497.9 1004.29 2550.93 1087.98 2542.7 1102.13 2580.05 1137.25 2591.58 1208.03 2541.86 1293.72 2573.98 1303.02 2602.03Z" stroke="#D3D3D3" stroke-width="7.68514" stroke-linecap="round" stroke-linejoin="round" fill="#D3D3D3" transform="matrix(1 0 0 1.00011 309.619 339.563)"/><path d="M500.764 2468.54 546.336 2484.07 544.261 2544.24 431.597 2602.65 402.547 2608.49 341.604 2594.5 306.944 2572.06 251.765 2559.69 226.788 2498.75 245.54 2464.32 367.119 2447.56 393.786 2478.92 431.29 2464.78 500.764 2468.54Z" stroke="#D3D3D3" stroke-width="7.68514" stroke-linecap="round" stroke-linejoin="round" fill="#D3D3D3" transform="matrix(1 0 0 1.00011 309.619 339.563)"/><path d="M911.304 2685.34 836.604 2729.45 763.826 2729.53 730.626 2719.77 693.199 2672.58 634.946 2641.77 656.772 2589.66 691.586 2582.21 718.483 2549.08 716.793 2520.88 730.319 2459.86 772.741 2454.56 791.031 2433.5 813.702 2488.83 916.299 2524.49 932.207 2546.85 902.466 2596.35 917.682 2657.6 911.304 2685.34Z" stroke="#D3D3D3" stroke-width="7.68514" stroke-linecap="round" stroke-linejoin="round" fill="#D3D3D3" transform="matrix(1 0 0 1.00011 309.619 339.563)"/><path d="M1055.17 2314.84 1075.07 2317.07 1121.88 2333.13 1163.15 2366.1 1197.42 2362.95 1248.37 2372.09 1277.42 2404.53 1338.21 2407.68 1416.99 2430.5 1374.41 2474.23 1340.9 2583.13 1347.05 2591.04 1343.36 2594.81 1338.6 2601.88 1332.53 2606.34 1330.3 2608.03 1326.61 2610.33 1321.23 2609.49 1303.02 2602.03 1293.72 2573.98 1208.03 2541.86 1137.25 2591.58 1102.13 2580.05 1087.98 2542.7 1004.29 2550.93 963.255 2497.9 974.552 2443.87 996.532 2388.62 1021.05 2378.93 1055.17 2314.84Z" stroke="#D3D3D3" stroke-width="7.68514" stroke-linecap="round" stroke-linejoin="round" fill="#D3D3D3" transform="matrix(1 0 0 1.00011 309.619 339.563)"/><path d="M966.867 2222.46 1007.52 2270.96 1040.18 2268.27 1055.17 2314.84 1021.05 2378.93 996.532 2388.62 974.552 2443.87 947.424 2414.9 893.781 2417.28 813.241 2399.45 818.851 2319.45 793.029 2302.31 805.94 2287.25 820.926 2210.63 857.277 2193.57 916.068 2194.57 937.817 2228.15 953.802 2220.24 966.867 2222.46Z" stroke="#D3D3D3" stroke-width="7.68514" stroke-linecap="round" stroke-linejoin="round" fill="#D3D3D3" transform="matrix(1 0 0 1.00011 309.619 339.563)"/><path d="M963.255 2497.9 916.299 2524.49 813.702 2488.83 791.031 2433.5 813.241 2399.45 893.781 2417.28 947.424 2414.9 974.552 2443.87 963.255 2497.9Z" stroke="#D3D3D3" stroke-width="7.68514" stroke-linecap="round" stroke-linejoin="round" fill="#D3D3D3" transform="matrix(1 0 0 1.00011 309.619 339.563)"/><path d="M552.254 3153.67 511.215 3144.07 443.894 3129 419.147 3099.26 414.229 3092.81 450.503 3057.84 469.716 2997.36 500.917 2839.58 495.384 2812.84 516.595 2741.9 563.474 2736.6 565.549 2705.86 544.646 2663.98 634.946 2641.77 693.199 2672.58 730.626 2719.77 763.826 2729.53 836.604 2729.45 863.118 2775.18 845.98 2847.73 801.099 2899.99 740.309 2912.28 696.273 2952.17 698.963 2972.3 651.085 3006.35 575.77 3023.33 565.78 3065.22 588.912 3093.27 552.254 3153.67Z" stroke="#D3D3D3" stroke-width="7.68514" stroke-linecap="round" stroke-linejoin="round" fill="#D3D3D3" transform="matrix(1 0 0 1.00011 309.619 339.563)"/><path d="M546.336 2484.07 500.764 2468.54 507.373 2427.27 484.471 2363.41 541.879 2345.73 553.176 2384.62 654.313 2389.31 680.288 2343.2 793.029 2302.31 818.851 2319.45 813.241 2399.45 791.031 2433.5 772.741 2454.56 730.319 2459.86 716.793 2520.88 611.583 2485.83 546.336 2484.07Z" stroke="#D3D3D3" stroke-width="7.68514" stroke-linecap="round" stroke-linejoin="round" fill="#D3D3D3" transform="matrix(1 0 0 1.00011 309.619 339.563)"/><path d="M743.383 3193.87 717.023 3183.49 710.337 3167.89 649.164 3150.98 642.708 3171.27 578.921 3171.96 552.254 3153.67 588.912 3093.27 565.78 3065.22 575.77 3023.33 651.085 3006.35 698.963 2972.3 696.273 2952.17 740.309 2912.28 801.099 2899.99 807.862 2940.1 838.602 2937.64 865.039 2904.29 893.397 2920.35 960.027 2916.43 986.925 2976.68 1041.49 2983.68 1057.4 3017.42 994.149 3079.82 973.63 3068.83 877.72 3133.15 871.495 3180.88 883.176 3201.7 816.93 3212.69 743.383 3193.87Z" stroke="#D3D3D3" stroke-width="7.68514" stroke-linecap="round" stroke-linejoin="round" fill="#D3D3D3" transform="matrix(1 0 0 1.00011 309.619 339.563)"/><path d="M1041.49 2983.68 1081.15 2979.14 1117.34 3001.58 1140.09 2992.36 1140.01 2942.25 1237.61 2884.23 1275.89 2931.34 1255.67 2952.71 1267.28 2986.83 1333.29 3008.19 1313.7 3041.32 1304.94 3045.47 1304.86 3045.47 1304.55 3045.31 1302.25 3047.23 1302.25 3048.39 1221.55 3115.17 1164.38 3125.31 1089.21 3095.42 994.149 3079.82 1057.4 3017.42 1041.49 2983.68Z" stroke="#D3D3D3" stroke-width="7.68514" stroke-linecap="round" stroke-linejoin="round" fill="#D3D3D3" transform="matrix(1 0 0 1.00011 309.619 339.563)"/><path d="M402.547 2608.49 431.597 2602.65 544.261 2544.24 546.336 2484.07 611.583 2485.83 716.793 2520.88 718.483 2549.08 691.586 2582.21 656.772 2589.66 634.946 2641.77 544.646 2663.98 565.549 2705.86 563.474 2736.6 516.595 2741.9 450.503 2720.15 423.835 2682.5 441.742 2657.52 402.547 2608.49Z" stroke="#D3D3D3" stroke-width="7.68514" stroke-linecap="round" stroke-linejoin="round" fill="#D3D3D3" transform="matrix(1 0 0 1.00011 309.619 339.563)"/><path d="M533.349 1795.94 503.991 1754.29 499.303 1712.79 548.642 1681.58 567.778 1642.16 599.671 1671.52 615.964 1760.67 658.001 1784.34 533.349 1795.94Z" stroke="#D3D3D3" stroke-width="7.68514" stroke-linecap="round" stroke-linejoin="round" fill="#D3D3D3" transform="matrix(1 0 0 1.00011 309.619 339.563)"/><path d="M499.303 1712.79 503.991 1754.29 533.349 1795.94 493.693 1831.14 534.194 1867.8 541.956 1901.07 529.813 1938.35 459.494 1964.78 433.749 1933.81 450.887 1882.47 437.976 1839.13 403.316 1789.25 430.752 1749.29 463.26 1735.77 499.303 1712.79Z" stroke="#D3D3D3" stroke-width="7.68514" stroke-linecap="round" stroke-linejoin="round" fill="#D3D3D3" transform="matrix(1 0 0 1.00011 309.619 339.563)"/><path d="M533.349 1795.94 658.001 1784.34 706.495 1837.29 696.965 1889.39 680.058 1907.91 566.318 1927.12 541.956 1901.07 534.194 1867.8 493.693 1831.14 533.349 1795.94Z" stroke="#D3D3D3" stroke-width="7.68514" stroke-linecap="round" stroke-linejoin="round" fill="#D3D3D3" transform="matrix(1 0 0 1.00011 309.619 339.563)"/><path d="M529.813 1938.35 541.956 1901.07 566.318 1927.12 680.058 1907.91 696.965 1889.39 740.54 1941.8 727.706 1983.61 633.793 2055.54 573.158 2058.62 590.526 2036.33 558.556 2010.97 544.415 1944.65 529.813 1938.35Z" stroke="#D3D3D3" stroke-width="7.68514" stroke-linecap="round" stroke-linejoin="round" fill="#D3D3D3" transform="matrix(1 0 0 1.00011 309.619 339.563)"/><path d="M459.494 1964.78 529.813 1938.35 544.415 1944.65 558.556 2010.97 590.526 2036.33 573.158 2058.62 556.404 2070.68 523.127 2071.84 448.043 2098.12 408.772 2068.84 404.93 2028.42 459.494 1964.78Z" stroke="#D3D3D3" stroke-width="7.68514" stroke-linecap="round" stroke-linejoin="round" fill="#D3D3D3" transform="matrix(1 0 0 1.00011 309.619 339.563)"/><path d="M633.793 2055.54 727.706 1983.61 753.143 1965.7 822.54 1970.55 855.509 1994.91 858.353 2022.65 828.458 2071.22 771.203 2124.94 722.096 2141.62 705.111 2137.85 677.599 2113.64 640.633 2124.25 633.793 2055.54Z" stroke="#D3D3D3" stroke-width="7.68514" stroke-linecap="round" stroke-linejoin="round" fill="#D3D3D3" transform="matrix(1 0 0 1.00011 309.619 339.563)"/><path d="M640.633 2124.25 677.599 2113.64 705.111 2137.85 667.685 2155.45 640.633 2124.25Z" stroke="#D3D3D3" stroke-width="7.68514" stroke-linecap="round" stroke-linejoin="round" fill="#D3D3D3" transform="matrix(1 0 0 1.00011 309.619 339.563)"/><path d="M573.158 2058.62 633.793 2055.54 640.633 2124.25 667.685 2155.45 705.111 2137.85 722.096 2141.62 809.091 2173.82 696.811 2224.62 655.773 2213.7 555.712 2215.24 519.285 2224.23 532.734 2114.72 556.404 2070.68 573.158 2058.62Z" stroke="#D3D3D3" stroke-width="7.68514" stroke-linecap="round" stroke-linejoin="round" fill="#D3D3D3" transform="matrix(1 0 0 1.00011 309.619 339.563)"/><path d="M448.043 2098.12 523.127 2071.84 556.404 2070.68 532.734 2114.72 519.285 2224.23 446.045 2241.14 407.389 2224.62 356.36 2241.06 322.468 2280.33 259.758 2269.11 160.235 2295.01 257.068 2218.31 296.108 2170.67 404.161 2169.36 443.74 2122.33 448.043 2098.12Z" stroke="#D3D3D3" stroke-width="7.68514" stroke-linecap="round" stroke-linejoin="round" fill="#D3D3D3" transform="matrix(1 0 0 1.00011 309.619 339.563)"/><path d="M433.749 1933.81 459.494 1964.78 404.93 2028.42 408.772 2068.84 448.043 2098.12 443.74 2122.33 358.435 2147.3 335.072 2122.17 286.732 2106.19 226.25 2112.64 238.624 2075.6 313.477 2047.55 335.303 1995.29 290.037 1983.92 337.685 1935.58 412.154 1921.9 433.749 1933.81Z" stroke="#D3D3D3" stroke-width="7.68514" stroke-linecap="round" stroke-linejoin="round" fill="#D3D3D3" transform="matrix(1 0 0 1.00011 309.619 339.563)"/><path d="M567.778 1642.16 548.642 1681.58 499.303 1712.79 463.26 1735.77 462.568 1735.92 461.877 1736.3 416.15 1737.46 379.185 1760.13 272.899 1743.76 308.174 1705.49 333.766 1678.36 281.43 1637.93 251.15 1683.2 246.77 1625.25 255.838 1614.42 278.894 1565.16 240.852 1558.62 240.699 1532.34 278.433 1483.92 261.986 1454.8 274.667 1412.37 313.4 1390.24 360.663 1326.15 423.528 1337.44 503.761 1323.76 525.971 1330.84 495.384 1365.19 435.517 1399.54 438.053 1441.89 608.355 1432.05 619.422 1451.65 536.038 1557.01 525.894 1590.67 503.069 1613.65 567.778 1642.16ZM168.612 1379.17 216.798 1386.4 209.804 1405.61 163.617 1417.6 168.612 1379.17Z" stroke="#D3D3D3" stroke-width="7.68514" stroke-linecap="round" stroke-linejoin="round" fill="#D3D3D3" fill-rule="evenodd" transform="matrix(1 0 0 1.00011 309.619 339.563)"/><path d="M159.082 1835.44 159.082 1835.44 157.007 1837.06 153.318 1835.6 151.858 1839.98 150.782 1840.36 149.937 1840.67 142.329 1839.82 142.098 1840.59 141.944 1840.67 138.563 1841.67 132.184 1841.9 130.724 1843.13 130.647 1843.13 99.9836 1800.7 97.9855 1800.78 97.9086 1800.86 95.8337 1802.55 91.7605 1805.93 91.3763 1807.47 90.3004 1808.01 89.0707 1808.62 88.6096 1808.85 87.7643 1809.23 85.2282 1809.77 83.8448 1811.85 82.3078 1812.77 83.3069 1815.54 83.3069 1816.46 85.4587 1818.84 85.4587 1819.61 84.8439 1822.38 81.4625 1822.91 80.5402 1822.99 78.3884 1823.76 76.7745 1824.53 76.3903 1824.68 76.2366 1826.07 76.006 1826.14 75.1606 1828.52 75.0069 1828.91 71.0875 1834.13 68.6283 1833.37 68.7051 1833.14 69.781 1829.22 68.3209 1833.98 63.9403 1833.44 62.2496 1833.83 62.9413 1832.44 61.558 1832.52 60.9431 1832.52 59.3293 1832.44 59.9441 1830.83 59.3293 1830.52 57.8691 1830.83 53.796 1833.83 49.2617 1832.98 48.1858 1833.21 44.9581 1832.37 44.7275 1832.14 38.5025 1827.06 37.5035 1827.06 36.0433 1824.99 35.8896 1824.76 21.4415 1815.54 21.1341 1814.61 19.5202 1813.85 18.2138 1814.38 17.599 1814.15 16.3693 1813.62 7.68514 1792.64 10.2212 1792.33 18.2906 1786.26 22.1332 1787.02 22.2869 1787.02 30.8174 1785.8 31.8165 1783.95 33.5072 1783.18 36.9655 1781.41 37.4266 1781.11 42.6525 1778.96 43.8053 1778.26 43.2673 1776.11 40.0396 1777.5 38.5794 1777.57 37.8877 1777.11 26.898 1768.04 28.2045 1767.97 28.8193 1767.97 29.7415 1767.5 32.047 1765.2 34.5063 1764.35 35.3516 1764.81 40.2701 1767.5 45.5729 1765.51 45.8803 1765.43 52.5663 1762.89 56.1784 1762.74 57.0237 1762.66 58.2533 1763.28 58.8681 1763.35 60.0978 1763.28 61.9422 1756.75 71.5486 1747.75 75.3912 1740.68 77.2356 1740.45 85.1513 1728.69 86.4578 1728.77 88.1485 1728.16 89.993 1727.85 91.7605 1726.7 162.31 1706.18 193.051 1708.41 236.318 1774.19 236.856 1776.27 222.946 1819.61 197.047 1825.6 159.082 1835.44Z" stroke="#D3D3D3" stroke-width="7.68514" stroke-linecap="round" stroke-linejoin="round" fill="#D3D3D3" transform="matrix(1 0 0 1.00011 309.619 339.563)"/><path d="M2945.25 1831.68 2909.21 1859.57 2825.44 1853.27 2806.69 1819.15 2845.5 1793.48 2904.6 1786.41 2959.24 1795.94 2945.25 1831.68Z" stroke="#FFFFFF" stroke-width="7.68514" stroke-linecap="round" stroke-linejoin="round" fill="#DF9EDB" transform="matrix(1 0 0 1.00011 309.619 339.563)"/><path d="M2707.55 1727 2624.4 1706.87 2625.09 1700.34 2604.49 1613.57 2685.03 1577.3 2680.65 1607.19 2644.53 1643.62 2677.04 1666.6 2707.55 1727Z" stroke="#FFFFFF" stroke-width="7.68514" stroke-linecap="round" stroke-linejoin="round" fill="#95C7D2" transform="matrix(1 0 0 1.00011 309.619 339.563)"/><path d="M2904.6 1786.41 2845.5 1793.48 2812.68 1725.16 2746.05 1680.05 2853.8 1670.6 2902.68 1688.66 2932.96 1752.52 2904.6 1786.41Z" stroke="#FFFFFF" stroke-width="7.68514" stroke-linecap="round" stroke-linejoin="round" fill="#BEBAC7" transform="matrix(1 0 0 1.00011 309.619 339.563)"/><path d="M2845.5 1793.48 2806.69 1819.15 2759.89 1806.78 2759.5 1806.7 2764.57 1745.45 2740.9 1727.39 2812.68 1725.16 2845.5 1793.48Z" stroke="#FFFFFF" stroke-width="7.68514" stroke-linecap="round" stroke-linejoin="round" fill="#C8C69D" transform="matrix(1 0 0 1.00011 309.619 339.563)"/><path d="M2902.68 1688.66 2853.8 1670.6 2875.86 1591.75 2941.1 1574.07 2958.55 1599.89 3022.1 1614.26 3043.78 1627.87 3017.11 1650.61 2927.42 1651.61 2921.81 1674.28 2902.68 1688.66Z" stroke="#FFFFFF" stroke-width="7.68514" stroke-linecap="round" stroke-linejoin="round" fill="#B5C7A8" transform="matrix(1 0 0 1.00011 309.619 339.563)"/><path d="M2853.8 1670.6 2746.05 1680.05 2729.22 1658.15 2746.9 1636.78 2725.76 1595.05 2742.59 1579.76 2767.73 1575.45 2875.86 1591.75 2853.8 1670.6Z" stroke="#FFFFFF" stroke-width="7.68514" stroke-linecap="round" stroke-linejoin="round" fill="#E0B77A" transform="matrix(1 0 0 1.00011 309.619 339.563)"/><path d="M2707.55 1727 2677.04 1666.6 2729.22 1658.15 2746.05 1680.05 2812.68 1725.16 2740.9 1727.39 2740.37 1726.85 2707.55 1727Z" stroke="#FFFFFF" stroke-width="7.68514" stroke-linecap="round" stroke-linejoin="round" fill="#CCC782" transform="matrix(1 0 0 1.00011 309.619 339.563)"/><path d="M2677.04 1666.6 2644.53 1643.62 2680.65 1607.19 2685.03 1577.3 2742.59 1579.76 2725.76 1595.05 2746.9 1636.78 2729.22 1658.15 2677.04 1666.6Z" stroke="#FFFFFF" stroke-width="7.68514" stroke-linecap="round" stroke-linejoin="round" fill="#B8C9E9" transform="matrix(1 0 0 1.00011 309.619 339.563)"/><path d="M3096.8 1658.91 3114.63 1703.18 3022.56 1697.88 3022.33 1728.54 2978.45 1727.39 2921.81 1674.28 2927.42 1651.61 3017.11 1650.61 3043.78 1627.87 3096.8 1658.91Z" stroke="#FFFFFF" stroke-width="7.68514" stroke-linecap="round" stroke-linejoin="round" fill="#84BD87" transform="matrix(1 0 0 1.00011 309.619 339.563)"/><path d="M3063.22 1734.46 3021.8 1758.13 3018.88 1810.23 2945.25 1831.68 2959.24 1795.94 2904.6 1786.41 2932.96 1752.52 2902.68 1688.66 2921.81 1674.28 2978.45 1727.39 3022.33 1728.54 3022.56 1697.88 3114.63 1703.18 3063.22 1734.46Z" stroke="#FFFFFF" stroke-width="7.68514" stroke-linecap="round" stroke-linejoin="round" fill="#D97A89" transform="matrix(1 0 0 1.00011 309.619 339.563)"/><path d="M1222.71 2289.25 1232.62 2294.32 1263.74 2334.13 1249.83 2362.26 1248.37 2372.09 1197.42 2362.95 1194.19 2321.76 1222.71 2289.25Z" stroke="#D3D3D3" stroke-width="7.68514" stroke-linecap="round" stroke-linejoin="round" fill="#D3D3D3" transform="matrix(1 0 0 1.00011 309.619 339.563)"/><path d="M2685.03 1577.3 2604.49 1613.57 2604.11 1525.65 2633.77 1502.14 2658.29 1444.58 2723.61 1426.28 2783.94 1471.78 2725.84 1509.44 2757.66 1542.18 2767.73 1575.45 2742.59 1579.76 2685.03 1577.3Z" stroke="#FFFFFF" stroke-width="7.68514" stroke-linecap="round" stroke-linejoin="round" fill="#A99288" transform="matrix(1 0 0 1.00011 309.619 339.563)"/><path d="M3227.3 1602.66 3185.87 1628.71 3096.8 1658.91 3043.78 1627.87 3022.1 1614.26 3050.15 1577.45 3091.88 1559.01 3121.16 1524.12 3131.77 1483.46 3181.57 1467.09 3185.64 1515.43 3234.37 1588.06 3227.3 1602.66Z" stroke="#FFFFFF" stroke-width="7.68514" stroke-linecap="round" stroke-linejoin="round" fill="#A98D85" transform="matrix(1 0 0 1.00011 309.619 339.563)"/><path d="M2869.94 1498.52 2854.03 1507.29 2855.03 1506.52 2855.03 1506.52 2855.11 1506.52 2855.11 1506.52 2855.18 1506.44 2855.18 1506.44 2855.18 1506.44 2855.26 1506.44 2855.34 1506.36 2855.34 1506.36 2855.34 1506.36 2855.41 1506.36 2855.49 1506.36 2855.49 1506.36 2860.95 1502.21 2860.95 1502.21 2861.02 1502.14 2861.02 1502.14 2861.1 1502.14 2861.1 1502.14 2861.48 1501.45 2861.41 1501.37 2869.94 1498.52Z" stroke="#FFFFFF" stroke-width="7.68514" stroke-linecap="round" stroke-linejoin="round" fill="#8C99C6" transform="matrix(1 0 0 1.00011 309.619 339.563)"/><path d="M2887.77 1409.92 2928.73 1398.31 2952.55 1423.67 2933.11 1460.87 2944.87 1499.37 2992.52 1528.27 2949.63 1553.7 2900.45 1539.1 2757.66 1542.18 2725.84 1509.44 2783.94 1471.78 2799.62 1501.21 2854.03 1507.29 2869.94 1498.52 2894.91 1477.7 2887.77 1409.92Z" stroke="#FFFFFF" stroke-width="7.68514" stroke-linecap="round" stroke-linejoin="round" fill="#8796B4" transform="matrix(1 0 0 1.00011 309.619 339.563)"/><path d="M2928.73 1398.31 2974.84 1392.7 3075.36 1449.26 3147.91 1446.8 3181.57 1467.09 3131.77 1483.46 3121.16 1524.12 3091.88 1559.01 3031.17 1547.86 2992.52 1528.27 2944.87 1499.37 2933.11 1460.87 2952.55 1423.67 2928.73 1398.31Z" stroke="#FFFFFF" stroke-width="7.68514" stroke-linecap="round" stroke-linejoin="round" fill="#A78EB7" transform="matrix(1 0 0 1.00011 309.619 339.563)"/><path d="M3022.1 1614.26 2958.55 1599.89 2941.1 1574.07 2875.86 1591.75 2767.73 1575.45 2757.66 1542.18 2900.45 1539.1 2949.63 1553.7 2992.52 1528.27 3031.17 1547.86 3091.88 1559.01 3050.15 1577.45 3022.1 1614.26Z" stroke="#FFFFFF" stroke-width="7.68514" stroke-linecap="round" stroke-linejoin="round" fill="#BECDA7" transform="matrix(1 0 0 1.00011 309.619 339.563)"/><path d="M1344.36 1981.38 1308.01 2005.59 1257.21 1979.69 1277.35 1952.1 1297.64 1940.5 1344.36 1981.38Z" stroke="#D3D3D3" stroke-width="7.68514" stroke-linecap="round" stroke-linejoin="round" fill="#D3D3D3" transform="matrix(1 0 0 1.00011 309.619 339.563)"/><path d="M1230.16 2015.2 1230.31 2015.35 1187.05 2048.78 1162.53 2033.87 1203.57 2009.82 1230.16 2015.2ZM1220.32 1981.54 1227.39 1985.15 1242.69 2001.98 1220.32 1981.54Z" stroke="#D3D3D3" stroke-width="7.68514" stroke-linecap="round" stroke-linejoin="round" fill="#D3D3D3" fill-rule="evenodd" transform="matrix(1 0 0 1.00011 309.619 339.563)"/><path d="M1277.35 1952.1 1257.21 1979.69 1227.39 1985.15 1220.32 1981.54 1172.37 1963.09 1172.14 1962.86 1199.73 1937.65 1269.05 1915.6 1277.35 1952.1Z" stroke="#D3D3D3" stroke-width="7.68514" stroke-linecap="round" stroke-linejoin="round" fill="#D3D3D3" transform="matrix(1 0 0 1.00011 309.619 339.563)"/><path d="M1308.39 2064.3 1312.47 2082.21 1230.62 2107.73 1223.55 2105.88 1145.16 2098.66 1147.93 2094.28 1191.2 2079.98 1186.12 2049.55 1231.01 2018.19 1253.75 2051.62 1308.39 2064.3Z" stroke="#D3D3D3" stroke-width="7.68514" stroke-linecap="round" stroke-linejoin="round" fill="#D3D3D3" transform="matrix(1 0 0 1.00011 309.619 339.563)"/><path d="M1358.66 1935.66 1344.36 1981.38 1297.64 1940.5 1277.35 1952.1 1269.05 1915.6 1325.07 1909.68 1358.66 1935.66Z" stroke="#D3D3D3" stroke-width="7.68514" stroke-linecap="round" stroke-linejoin="round" fill="#D3D3D3" transform="matrix(1 0 0 1.00011 309.619 339.563)"/><path d="M1197.73 2215.86 1213.1 2178.74 1190.74 2168.05 1220.25 2152.68 1223.55 2105.88 1230.62 2107.73 1252.14 2134.24 1223.7 2195.03 1228.7 2225.77 1216.1 2221.62 1197.42 2221.54 1197.73 2215.86Z" stroke="#D3D3D3" stroke-width="7.68514" stroke-linecap="round" stroke-linejoin="round" fill="#D3D3D3" transform="matrix(1 0 0 1.00011 309.619 339.563)"/><path d="M1160.84 2163.29 1147.24 2147.92 1074.15 2149.84 1073.38 2141.62 1071.08 2133.01 1073.31 2120.33 1089.37 2113.57 1145.16 2098.66 1223.55 2105.88 1220.25 2152.68 1190.74 2168.05 1160.84 2163.29Z" stroke="#D3D3D3" stroke-width="7.68514" stroke-linecap="round" stroke-linejoin="round" fill="#D3D3D3" transform="matrix(1 0 0 1.00011 309.619 339.563)"/><path d="M1130.48 2051.93 1104.05 2040.25 1131.71 1967.7 1164.38 1988.91 1148.93 2036.79 1177.67 2046.01 1130.48 2051.93Z" stroke="#D3D3D3" stroke-width="7.68514" stroke-linecap="round" stroke-linejoin="round" fill="#D3D3D3" transform="matrix(1 0 0 1.00011 309.619 339.563)"/><path d="M1308.01 2005.59 1336.52 2050.16 1308.39 2064.3 1253.75 2051.62 1231.01 2018.19 1230.31 2015.35 1230.16 2015.2 1242.69 2001.98 1227.39 1985.15 1257.21 1979.69 1308.01 2005.59Z" stroke="#D3D3D3" stroke-width="7.68514" stroke-linecap="round" stroke-linejoin="round" fill="#D3D3D3" transform="matrix(1 0 0 1.00011 309.619 339.563)"/><path d="M1186.12 2049.55 1191.2 2079.98 1147.93 2094.28 1130.48 2051.93 1177.67 2046.01 1186.12 2049.55Z" stroke="#D3D3D3" stroke-width="7.68514" stroke-linecap="round" stroke-linejoin="round" fill="#D3D3D3" transform="matrix(1 0 0 1.00011 309.619 339.563)"/><path d="M1068.39 2150.84 1069.77 2152.53 1037.8 2170.67 992.612 2162.44 990.23 2151.15 990.384 2151.07 990.998 2151.22 1068.39 2150.84ZM1074.15 2149.84 1068.93 2150.15 1073.38 2141.62 1074.15 2149.84Z" stroke="#D3D3D3" stroke-width="7.68514" stroke-linecap="round" stroke-linejoin="round" fill="#D3D3D3" fill-rule="evenodd" transform="matrix(1 0 0 1.00011 309.619 339.563)"/><path d="M1147.93 2094.28 1145.16 2098.66 1089.37 2113.57 1066.39 2114.72 1066.24 2114.64 1038.57 2106.11 1038.26 2105.96 1104.05 2040.25 1130.48 2051.93 1147.93 2094.28Z" stroke="#D3D3D3" stroke-width="7.68514" stroke-linecap="round" stroke-linejoin="round" fill="#D3D3D3" transform="matrix(1 0 0 1.00011 309.619 339.563)"/><path d="M1715.4 1183.9 1704.26 1172.98 1724.7 1160.23 1740.38 1177.13 1725.77 1192.66 1715.71 1183.9 1715.4 1183.9Z" stroke="#FFFFFF" stroke-width="7.68514" stroke-linecap="round" stroke-linejoin="round" fill="#BEBEE9" transform="matrix(1 0 0 1.00011 309.619 339.563)"/><path d="M1419.75 1209.72 1385.78 1246.61 1389.55 1272.12 1353.05 1309.09 1356.35 1354.43 1336.91 1365.88 1276.65 1334.45 1273.35 1296.02 1329.84 1256.14 1282.88 1242.15 1251.45 1228.47 1270.05 1229.55 1278.19 1224.55 1412.68 1198.19 1419.75 1209.72Z" stroke="#FFFFFF" stroke-width="7.68514" stroke-linecap="round" stroke-linejoin="round" fill="#DAEF7F" transform="matrix(1 0 0 1.00011 309.619 339.563)"/><path d="M1602.89 914.839 1528.57 918.758 1457.33 954.263 1307.86 959.874 1302.78 952.803 1303.09 952.573 1303.48 952.419 1335.98 949.576 1394.31 938.97 1390.7 930.44 1409.68 902.005 1371.03 895.472 1441.65 884.636 1493.15 894.089 1496.99 893.858 1434.51 876.72 1441.81 850.207 1464.86 846.21 1480.08 839.448 1494.61 835.221 1555.55 873.8 1511.97 844.443 1585.83 827.305 1643.39 828.074 1636.24 867.652 1602.89 914.839ZM1586.83 801.56 1592.28 825.307 1586.21 801.637 1586.6 801.637 1586.83 801.56Z" stroke="#FFFFFF" stroke-width="7.68514" stroke-linecap="round" stroke-linejoin="round" fill="#9EE8DE" fill-rule="evenodd" transform="matrix(1 0 0 1.00011 309.619 339.563)"/><path d="M2053.24 621.036 2051.62 622.035 1952.95 621.574 1879.09 636.253 1859.34 618.346 1910.53 585.838 1897.31 566.702 1945.95 525.817 1977 462.184 2067.69 400.857 2107.26 351.749 2099.27 348.06 2119.87 335.226 2184.5 308.405 2234.68 297.031 2233.69 264.676 2244.52 264.446 2365.1 265.291 2366.71 300.258 2300.39 308.328 2255.05 329.308 2203.64 379.492 2225.31 418.994 2143.92 477.016 2149.07 492.848 2073.07 513.828 2079.67 548.104 2053.24 621.036ZM2190.03 221.178 2178.89 269.518 2236.07 263.216 2172.2 288.577 2141.46 282.352 2159.06 236.933 2190.03 221.178Z" stroke="#FFFFFF" stroke-width="7.68514" stroke-linecap="round" stroke-linejoin="round" fill="#7BE6AF" fill-rule="evenodd" transform="matrix(1 0 0 1.00011 309.619 339.563)"/><path d="M1725.77 1192.66 1740.38 1177.13 1724.7 1160.23 1704.26 1172.98 1715.4 1183.9 1685.89 1208.1 1626.56 1239.38 1604.96 1197.27 1556.32 1154.77 1449.72 1163.15 1467.25 1141.7 1483.15 1077.38 1523.19 1055.94 1607.96 1090.29 1616.8 1113.65 1702.26 1139.94 1773.81 1119.72 1815.61 1169.83 1816.92 1191.58 1802.7 1217.56 1811.08 1258.67 1758.67 1275.12 1709.25 1235.62 1725.77 1192.66Z" stroke="#FFFFFF" stroke-width="7.68514" stroke-linecap="round" stroke-linejoin="round" fill="#B1E7CC" transform="matrix(1 0 0 1.00011 309.619 339.563)"/><path d="M1457.33 954.263 1528.57 918.758 1602.89 914.839 1646.92 927.596 1688.27 909.075 1691.81 883.406 1758.28 879.641 1819.84 913.686 1867.64 919.373 1871.02 926.443 1854.27 985.849 1911.68 1024.04 1894.54 1058.17 1857.42 1062.32 1885.09 1114.5 1870.87 1168.99 1816.92 1191.58 1815.61 1169.83 1773.81 1119.72 1702.26 1139.94 1616.8 1113.65 1607.96 1090.29 1523.19 1055.94 1526.42 1004.83 1466.55 984.62 1457.33 954.263Z" stroke="#FFFFFF" stroke-width="7.68514" stroke-linecap="round" stroke-linejoin="round" fill="#83A380" transform="matrix(1 0 0 1.00011 309.619 339.563)"/><path d="M1419.75 1209.72 1412.68 1198.19 1449.8 1163.45 1449.72 1163.15 1556.32 1154.77 1604.96 1197.27 1626.56 1239.38 1685.89 1208.1 1692.96 1214.64 1693.04 1214.64 1693.57 1265.36 1596.89 1310.93 1478.77 1287.41 1443.88 1214.17 1419.75 1209.72Z" stroke="#FFFFFF" stroke-width="7.68514" stroke-linecap="round" stroke-linejoin="round" fill="#BDB799" transform="matrix(1 0 0 1.00011 309.619 339.563)"/><path d="M1336.91 1365.88 1356.35 1354.43 1353.05 1309.09 1389.55 1272.12 1385.78 1246.61 1419.75 1209.72 1443.88 1214.17 1478.77 1287.41 1596.89 1310.93 1495.6 1381.56 1432.13 1399 1381.17 1389.7 1336.91 1365.88Z" stroke="#FFFFFF" stroke-width="7.68514" stroke-linecap="round" stroke-linejoin="round" fill="#B6DD8B" transform="matrix(1 0 0 1.00011 309.619 339.563)"/><path d="M1412.68 1198.19 1278.19 1224.55 1339.9 1161.76 1342.21 1138.55 1302.48 1154.38 1272.66 1157.15 1251.22 1106.74 1237.61 1092.6 1243.46 1093.75 1255.29 1099.9 1257.98 1099.44 1248.22 1090.52 1269.89 1083.91 1264.05 1082.53 1253.29 1068.85 1305.94 1053.09 1395.24 1047.87 1419.83 1066.77 1421.06 1059.7 1421.9 1057.71 1433.74 1051.33 1435.66 1049.94 1447.57 1051.1 1455.33 1024.43 1446.73 1046.95 1285.65 1056.32 1248.76 1034.19 1280.5 1004.45 1256.6 995.61 1295.87 964.331 1332.91 970.863 1272.74 965.023 1302.78 952.803 1307.86 959.874 1457.33 954.263 1466.55 984.62 1526.42 1004.83 1523.19 1055.94 1483.15 1077.38 1467.25 1141.7 1449.72 1163.15 1449.8 1163.45 1412.68 1198.19Z" stroke="#FFFFFF" stroke-width="7.68514" stroke-linecap="round" stroke-linejoin="round" fill="#E48B90" transform="matrix(1 0 0 1.00011 309.619 339.563)"/><path d="M1602.89 914.839 1636.24 867.652 1643.39 828.074 1585.83 827.305 1592.28 825.307 1586.83 801.56 1666.52 778.12 1688.12 799.639 1764.2 796.718 1699.26 793.798 1668.52 755.142 1698.18 733.316 1763.43 695.582 1770.5 687.128 1809.93 693.814 1832.83 653.467 1759.05 651.546 1755.05 646.397 1762.2 643.323 1796.48 638.02 1859.34 618.346 1879.09 636.253 1952.95 621.574 2051.62 622.035 1996.37 676.446 2030.26 688.511 2019.04 737.62 1963.48 730.626 1914.52 741.769 1867.72 783.039 1851.66 819.927 1868.95 847.824 1853.42 887.787 1867.64 919.373 1819.84 913.686 1758.28 879.641 1691.81 883.406 1688.27 909.075 1646.92 927.596 1602.89 914.839Z" stroke="#FFFFFF" stroke-width="7.68514" stroke-linecap="round" stroke-linejoin="round" fill="#A196D9" transform="matrix(1 0 0 1.00011 309.619 339.563)"/><path d="M3200.17 212.187 3227.76 170.687 3211.47 147.631 3092.58 109.206 3004.27 123.5 2963 149.86 2957.09 214.953 2909.29 239.161 2758.96 254.762 2693.1 237.317 2636.46 189.823 2553.31 212.033 2527.8 270.671 2505.05 283.582 2432.73 267.289 2365.1 265.291 2244.52 264.446 2297.55 242.773 2383.93 176.451 2428.5 185.212 2455.32 139.408 2546.62 141.483 2596.5 129.956 2623.78 85.9198 2754.81 96.679 2897.37 24.5924 2921.43 84.306 3006.43 21.9026 3127.47 7.68514 3148.83 30.3563 3272.95 46.1877 3350.49 78.081 3248.12 119.734 3341.19 137.871 3351.1 158.621 3228.3 187.287 3200.17 212.187ZM2236.07 263.216 2178.89 269.518 2190.03 221.178 2247.29 239.238 2236.07 263.216Z" stroke="#FFFFFF" stroke-width="7.68514" stroke-linecap="round" stroke-linejoin="round" fill="#C189C8" fill-rule="evenodd" transform="matrix(1 0 0 1.00011 309.619 339.563)"/><path d="M2096.58 2218.01 2078.98 2198.03 2035.87 2208.71 2051.39 2151.53 2184.19 2102.88 2220.62 2126.94 2282.56 2122.4 2309 2171.2 2288.86 2178.74 2240.45 2254.59 2226.23 2257.66 2221.93 2286.87 2195.72 2292.55 2174.82 2232.99 2096.58 2218.01Z" stroke="#D3D3D3" stroke-width="7.68514" stroke-linecap="round" stroke-linejoin="round" fill="#D3D3D3" transform="matrix(1 0 0 1.00011 309.619 339.563)"/><path d="M2489.22 1945.42 2446.26 2032.72 2424.28 2039.64 2337.67 2018.04 2283.48 1993.99 2268.5 1965.86 2276.11 1906.53 2337.82 1873.33 2432.5 1895.39 2489.22 1945.42Z" stroke="#D3D3D3" stroke-width="7.68514" stroke-linecap="round" stroke-linejoin="round" fill="#D3D3D3" transform="matrix(1 0 0 1.00011 309.619 339.563)"/><path d="M2841.58 2134.16 2843.04 2156.76 2887.15 2235.99 2878.54 2261.97 2837.51 2280.64 2741.52 2269.88 2743.82 2243.37 2681.73 2216.62 2675.81 2185.35 2680.5 2084.59 2777.18 2062.31 2794.55 2044.78 2799.08 2045.4 2841.5 2068.15 2841.58 2134.16Z" stroke="#D3D3D3" stroke-width="7.68514" stroke-linecap="round" stroke-linejoin="round" fill="#D3D3D3" transform="matrix(1 0 0 1.00011 309.619 339.563)"/><path d="M2029.88 2126.32 2018.12 2096.66 2034.26 2070.22 2018.66 2006.05 2065.38 1982.3 2146.46 1958.1 2135.93 2063 2184.19 2102.88 2051.39 2151.53 2029.88 2126.32Z" stroke="#D3D3D3" stroke-width="7.68514" stroke-linecap="round" stroke-linejoin="round" fill="#D3D3D3" transform="matrix(1 0 0 1.00011 309.619 339.563)"/><path d="M2424.28 2039.64 2446.26 2032.72 2500.28 2042.33 2566.07 2099.27 2550.24 2154.37 2513.04 2170.51 2487.53 2209.25 2411.52 2182.58 2389.16 2187.11 2342.66 2173.74 2371.56 2095.2 2412.98 2068.92 2424.28 2039.64Z" stroke="#D3D3D3" stroke-width="7.68514" stroke-linecap="round" stroke-linejoin="round" fill="#D3D3D3" transform="matrix(1 0 0 1.00011 309.619 339.563)"/><path d="M2461.4 2354.88 2429.43 2308.85 2463.55 2263.73 2506.12 2251.21 2549.01 2287.64 2621.94 2268.65 2616.87 2312.61 2640.15 2375.55 2542.01 2379.32 2498.13 2403.37 2461.4 2354.88Z" stroke="#D3D3D3" stroke-width="7.68514" stroke-linecap="round" stroke-linejoin="round" fill="#D3D3D3" transform="matrix(1 0 0 1.00011 309.619 339.563)"/><path d="M2275.95 2280.1 2226.23 2257.66 2240.45 2254.59 2288.86 2178.74 2309 2171.2 2342.66 2173.74 2389.16 2187.11 2365.79 2278.64 2329.44 2302.24 2275.95 2280.1Z" stroke="#D3D3D3" stroke-width="7.68514" stroke-linecap="round" stroke-linejoin="round" fill="#D3D3D3" transform="matrix(1 0 0 1.00011 309.619 339.563)"/><path d="M2837.51 2280.64 2755.2 2364.72 2749.13 2416.21 2693.33 2385.85 2640.15 2375.55 2616.87 2312.61 2621.94 2268.65 2658.14 2249.29 2681.73 2216.62 2743.82 2243.37 2741.52 2269.88 2837.51 2280.64Z" stroke="#D3D3D3" stroke-width="7.68514" stroke-linecap="round" stroke-linejoin="round" fill="#D3D3D3" transform="matrix(1 0 0 1.00011 309.619 339.563)"/><path d="M2866.79 1988.99 2799.08 2045.4 2794.55 2044.78 2743.52 2031.57 2694.79 1980 2655.68 1907.68 2677.81 1910.22 2752.59 1875.56 2736.91 1819.84 2759.89 1806.78 2806.69 1819.15 2825.44 1853.27 2866.79 1988.99Z" stroke="#D3D3D3" stroke-width="7.68514" stroke-linecap="round" stroke-linejoin="round" fill="#D3D3D3" transform="matrix(1 0 0 1.00011 309.619 339.563)"/><path d="M2432.5 1895.39 2337.82 1873.33 2276.11 1906.53 2231.69 1887.62 2216.55 1783.26 2265.35 1764.97 2362.18 1752.98 2384.08 1798.32 2437.5 1808.16 2479.38 1796.48 2447.33 1814.08 2450.02 1869.56 2432.5 1895.39Z" stroke="#D3D3D3" stroke-width="7.68514" stroke-linecap="round" stroke-linejoin="round" fill="#D3D3D3" transform="matrix(1 0 0 1.00011 309.619 339.563)"/><path d="M2404.22 2366.02 2379.78 2320.14 2329.44 2302.24 2365.79 2278.64 2389.16 2187.11 2411.52 2182.58 2487.53 2209.25 2506.12 2251.21 2463.55 2263.73 2429.43 2308.85 2461.4 2354.88 2404.22 2366.02Z" stroke="#D3D3D3" stroke-width="7.68514" stroke-linecap="round" stroke-linejoin="round" fill="#D3D3D3" transform="matrix(1 0 0 1.00011 309.619 339.563)"/><path d="M2675.81 2185.35 2681.73 2216.62 2658.14 2249.29 2621.94 2268.65 2549.01 2287.64 2506.12 2251.21 2487.53 2209.25 2513.04 2170.51 2550.24 2154.37 2650.76 2186.88 2675.81 2185.35Z" stroke="#D3D3D3" stroke-width="7.68514" stroke-linecap="round" stroke-linejoin="round" fill="#D3D3D3" transform="matrix(1 0 0 1.00011 309.619 339.563)"/><path d="M2759.5 1806.7 2759.89 1806.78 2736.91 1819.84 2752.59 1875.56 2677.81 1910.22 2655.68 1907.68 2489.22 1945.42 2432.5 1895.39 2450.02 1869.56 2447.33 1814.08 2479.38 1796.48 2493.14 1797.78 2639.31 1811.46 2759.5 1806.7Z" stroke="#D3D3D3" stroke-width="7.68514" stroke-linecap="round" stroke-linejoin="round" fill="#D3D3D3" transform="matrix(1 0 0 1.00011 309.619 339.563)"/><path d="M2309 2171.2 2282.56 2122.4 2220.62 2126.94 2184.19 2102.88 2135.93 2063 2146.46 1958.1 2182.81 1953.49 2193.49 1918.13 2231.69 1887.62 2276.11 1906.53 2268.5 1965.86 2283.48 1993.99 2337.67 2018.04 2424.28 2039.64 2412.98 2068.92 2371.56 2095.2 2342.66 2173.74 2309 2171.2Z" stroke="#D3D3D3" stroke-width="7.68514" stroke-linecap="round" stroke-linejoin="round" fill="#D3D3D3" transform="matrix(1 0 0 1.00011 309.619 339.563)"/><path d="M2018.66 2006.05 1988.3 1984.07 2007.74 1925.05 1993.52 1856.42 2171.82 1812.23 2216.55 1783.26 2231.69 1887.62 2193.49 1918.13 2182.81 1953.49 2146.46 1958.1 2065.38 1982.3 2018.66 2006.05Z" stroke="#D3D3D3" stroke-width="7.68514" stroke-linecap="round" stroke-linejoin="round" fill="#D3D3D3" transform="matrix(1 0 0 1.00011 309.619 339.563)"/><path d="M2626.86 2092.28 2568.37 2084.13 2547.39 2033.72 2576.75 2005.13 2663.44 2025.65 2689.8 2068.15 2626.86 2092.28Z" stroke="#D3D3D3" stroke-width="7.68514" stroke-linecap="round" stroke-linejoin="round" fill="#D3D3D3" transform="matrix(1 0 0 1.00011 309.619 339.563)"/><path d="M2446.26 2032.72 2489.22 1945.42 2655.68 1907.68 2694.79 1980 2743.52 2031.57 2794.55 2044.78 2777.18 2062.31 2680.5 2084.59 2675.81 2185.35 2650.76 2186.88 2550.24 2154.37 2566.07 2099.27 2500.28 2042.33 2446.26 2032.72ZM2626.86 2092.28 2689.8 2068.15 2663.44 2025.65 2576.75 2005.13 2547.39 2033.72 2568.37 2084.13 2626.86 2092.28Z" stroke="#D3D3D3" stroke-width="7.68514" stroke-linecap="round" stroke-linejoin="round" fill="#D3D3D3" fill-rule="evenodd" transform="matrix(1 0 0 1.00011 309.619 339.563)"/><path d="M3952.08 2268.04 3912.89 2183.66 3894.14 2168.13 3815.75 2163.6 3823.74 2098.66 3755.57 2037.1 3711.69 2035.56 3608.4 2075.37 3582.04 2065.53 3562.75 2043.17 3560.06 1989.68 3536.16 1952.64 3559.29 1936.27 3607.4 1953.18 3657.13 1921.28 3574.43 1846.66 3522.87 1818.46 3511.19 1794.02 3482.67 1738.84 3474.83 1663.22 3521.56 1649 3520.95 1584.98 3478.91 1568.38 3469.07 1515.43 3529.02 1520.5 3624.08 1463.56 3649.44 1463.1 3694.25 1427.51 3688.87 1391.39 3740.2 1374.79 3785.31 1389.78 3855.86 1347.59 3928.8 1337.83 3977.83 1302.17 4029.39 1341.21 4061.36 1314.16 4136.29 1314.77 4167.57 1292.87 4241.73 1330.37 4316.43 1337.29 4335.88 1286.57 4402.66 1272.58 4578.19 1259.98 4651.05 1271.43 4729.97 1264.21 4765.17 1243.76 4763.56 1219.17 4822.42 1217.33 4823.27 1244.84 4870.46 1276.81 4801.06 1335.06 4786.15 1388.78 4662.19 1388.7 4665.19 1410.91 4629.6 1450.11 4562.21 1480.31 4565.13 1521.35 4504.8 1534.11 4519.71 1567.46 4508.79 1623.41 4461.91 1665.22 4469.45 1687.81 4444.08 1725.39 4535 1783.57 4542.15 1829.6 4497.03 1899.38 4616.62 2000.21 4566.82 2120.94 4609.85 2164.37 4517.78 2177.89 4464.22 2222.08 4496.19 2272.19 4451.31 2347.12 4381.22 2360.87 4323.04 2339.82 4260.64 2331.9 4228.59 2312.53 4176.8 2314.99 4120.16 2259.97 4039.85 2282.18 3996.81 2257.66 3952.08 2268.04Z" stroke="#D3D3D3" stroke-width="7.68514" stroke-linecap="round" stroke-linejoin="round" fill="#D3D3D3" transform="matrix(1 0 0 1.00011 309.619 339.563)"/><path d="M3474.83 1663.22 3415.66 1635.55 3227.3 1602.66 3234.37 1588.06 3185.64 1515.43 3181.57 1467.09 3147.91 1446.8 3165.12 1414.83 3150.98 1308.01 3200.01 1234.23 3200.01 1234.08 3200.09 1234 3200.09 1234 3200.09 1234 3286.09 1175.52 3363.4 1189.28 3352.49 1158.15 3275.94 1154.38 3240.67 1135.09 3245.2 1101.51 3236.6 1101.51 3170.58 1115.11 3184.72 1100.82 3185.57 1100.59 3286.24 1034.42 3356.79 971.478 3441.33 900.314 3466.15 856.355 3433.72 822.156 3327.59 766.285 3369.47 734.545 3327.9 696.658 3323.98 655.465 3287.78 627.03 3295.39 580.843 3322.52 555.789 3272.1 482.703 3226.68 425.833 3293.62 369.962 3239.98 312.555 3186.33 300.181 3167.35 264.061 3200.17 212.187 3228.3 187.287 3351.1 158.621 3341.19 137.871 3394.37 149.169 3432.87 122.578 3514.87 143.405 3472.15 169.227 3687.71 198.507 3708.62 195.433 3880.69 249.613 4041.15 316.935 4155.89 350.903 4195.32 403.47 4182.79 450.195 4105.09 501.302 3967.91 521.667 3880.69 503.3 3734.44 484.548 3694.32 465.873 3581.58 453.039 3582.5 481.09 3697.47 539.958 3696.78 577.846 3671.8 593.293 3720.53 651.315 3711.08 682.748 3780.32 699.271 3837.27 739.08 3934.1 762.75 3981.67 746.611 3957.23 700.808 3901.44 697.042 3841.57 647.012 3880.07 615.733 3935.56 629.182 3984.97 657.694 4039.23 660.768 4097.41 682.056 4168.57 673.372 4150.13 632.256 4098.18 597.904 4104.4 567.701 4170.49 528.814 4228.59 515.442 4284.54 474.788 4362.31 485.009 4430.4 506.989 4451.62 433.98 4384.52 396.707 4403.66 345.063 4396.82 289.269 4444.16 263.6 4524.55 273.437 4583.57 307.867 4602.32 340.144 4500.26 349.597 4473.83 390.021 4529.77 406.928 4573.12 442.433 4622.92 442.818 4704.3 423.067 4697.23 363.584 4746.19 357.743 4912.8 285.58 5010.02 267.443 5070.42 238.086 5177.25 288.577 5306.36 254.301 5342.4 259.835 5412.8 265.521 5431.01 245.079 5517.24 220.333 5601.54 257.222 5680.32 227.711 5667.02 204.732 5602.08 166.537 5640.28 131.416 5790.83 145.633 5916.4 167.536 5958.21 193.051 5966.13 205.424 6063.65 265.829 6044.13 290.959 6060.27 322.853 6115.22 325.619 6140.42 376.649 6070.26 416.304 6081.94 433.826 5958.98 483.856 5934.92 543.109 5871.91 563.167 5844.7 608.663 5719.51 654.466 5717.82 685.898 5764.85 731.856 5743.79 758.369 5750.48 838.679 5797.74 909.075 5801.74 988.078 5761.85 1007.6 5584.41 1003.14 5556.12 1037.03 5476.66 1046.95 5456.37 1074.84 5273 1054.4 5192.69 1106.81 5215.98 1138.32 5188.47 1179.59 5064.51 1195.96 5035.61 1241.15 4934.24 1204.8 4920.41 1155.23 4940.31 1136.71 4903.19 1082.91 4861.46 1064.78 4796.06 1057.78 4784.92 1169.29 4822.42 1217.33 4763.56 1219.17 4765.17 1243.76 4729.97 1264.21 4651.05 1271.43 4578.19 1259.98 4402.66 1272.58 4335.88 1286.57 4316.43 1337.29 4241.73 1330.37 4167.57 1292.87 4136.29 1314.77 4061.36 1314.16 4029.39 1341.21 3977.83 1302.17 3928.8 1337.83 3855.86 1347.59 3785.31 1389.78 3740.2 1374.79 3688.87 1391.39 3694.25 1427.51 3649.44 1463.1 3624.08 1463.56 3529.02 1520.5 3469.07 1515.43 3478.91 1568.38 3520.95 1584.98 3521.56 1649 3474.83 1663.22ZM2624.4 1706.87 2707.55 1727 2740.37 1726.85 2740.9 1727.39 2764.57 1745.45 2759.5 1806.7 2639.31 1811.46 2493.14 1797.78 2533.79 1777.65 2508.74 1738.69 2564.07 1733 2594.89 1702.8 2597.81 1703.26 2558.77 1740.3 2618.79 1742.84 2624.4 1706.87ZM4751.64 167.075 4838.25 199.967 4809.59 231.937 4728.13 248.076 4692.93 225.866 4696.77 186.979 4751.64 167.075ZM5479.5 72.3171 5604.31 124.115 5578.64 151.167 5496.72 129.495 5445.69 99.5994 5479.5 72.3171Z" stroke="#D3D3D3" stroke-width="7.68514" stroke-linecap="round" stroke-linejoin="round" fill="#D3D3D3" fill-rule="evenodd" transform="matrix(1 0 0 1.00011 309.619 339.563)"/><path d="M2303.01 1290.95 2289.94 1242.92 2300.24 1215.33 2371.48 1190.12 2384.47 1157.61 2431.81 1200.19 2408.83 1209.56 2402.14 1216.33 2392.46 1246.68 2303.01 1290.95Z" stroke="#FFFFFF" stroke-width="7.68514" stroke-linecap="round" stroke-linejoin="round" fill="#C58A88" transform="matrix(1 0 0 1.00011 309.619 339.563)"/><path d="M2053.24 621.036 2079.67 548.104 2073.07 513.828 2149.07 492.848 2251.21 524.972 2323.83 564.858 2451.94 607.356 2505.51 594.368 2632.54 626.8 2620.25 635.177 2593.58 648.626 2633.62 696.197 2570.99 755.142 2549.01 764.056 2481.45 799.639 2452.1 796.488 2381.16 741.385 2326.52 753.374 2242.98 738.081 2164.29 697.503 2053.24 621.036Z" stroke="#FFFFFF" stroke-width="7.68514" stroke-linecap="round" stroke-linejoin="round" fill="#DBC4E3" transform="matrix(1 0 0 1.00011 309.619 339.563)"/><path d="M2553.31 212.033 2656.44 260.68 2757.66 295.801 2807.61 379.646 2792.47 407.697 2828.51 442.971 2801.92 480.628 2843.35 546.567 2715.31 550.333 2671.89 588.067 2632.08 592.601 2632.54 626.8 2505.51 594.368 2451.94 607.356 2323.83 564.858 2251.21 524.972 2149.07 492.848 2143.92 477.016 2225.31 418.994 2203.64 379.492 2255.05 329.308 2300.39 308.328 2366.71 300.258 2365.1 265.291 2432.73 267.289 2505.05 283.582 2527.8 270.671 2553.31 212.033Z" stroke="#FFFFFF" stroke-width="7.68514" stroke-linecap="round" stroke-linejoin="round" fill="#E7AF7E" transform="matrix(1 0 0 1.00011 309.619 339.563)"/><path d="M2384.47 1157.61 2371.48 1190.12 2300.24 1215.33 2289.94 1242.92 2252.28 1228.08 2273.42 1141.78 2289.48 1102.36 2336.51 1107.89 2363.41 1137.17 2387.39 1142.7 2380.55 1153.23 2384.47 1157.61Z" stroke="#FFFFFF" stroke-width="7.68514" stroke-linecap="round" stroke-linejoin="round" fill="#C49085" transform="matrix(1 0 0 1.00011 309.619 339.563)"/><path d="M2289.94 1242.92 2303.01 1290.95 2262.2 1323.92 2230.38 1326.22 2141.31 1287.41 2148.76 1263.67 2148.76 1263.21 2191.49 1235.08 2252.28 1228.08 2289.94 1242.92Z" stroke="#FFFFFF" stroke-width="7.68514" stroke-linecap="round" stroke-linejoin="round" fill="#A5CCAB" transform="matrix(1 0 0 1.00011 309.619 339.563)"/><path d="M2141.31 1287.41 2230.38 1326.22 2238.14 1375.1 2222.54 1397.08 2113.87 1429.97 2088.13 1428.21 2068.99 1386.94 2028.26 1375.64 2061.92 1324.69 2141.31 1287.41Z" stroke="#FFFFFF" stroke-width="7.68514" stroke-linecap="round" stroke-linejoin="round" fill="#7CD9D6" transform="matrix(1 0 0 1.00011 309.619 339.563)"/><path d="M2028.26 1375.64 2068.99 1386.94 2088.13 1428.21 2113.87 1429.97 2120.41 1486.07 2058 1483.69 1959.71 1511.82 1909.37 1492.61 1999.75 1412.99 2028.26 1375.64Z" stroke="#FFFFFF" stroke-width="7.68514" stroke-linecap="round" stroke-linejoin="round" fill="#AF8EBE" transform="matrix(1 0 0 1.00011 309.619 339.563)"/><path d="M1959.71 1511.82 2058 1483.69 2120.41 1486.07 2104.11 1567.31 2063.61 1581.06 2029.95 1569.77 1938.04 1573.61 1928.35 1523.58 1959.71 1511.82Z" stroke="#FFFFFF" stroke-width="7.68514" stroke-linecap="round" stroke-linejoin="round" fill="#F0B1E4" transform="matrix(1 0 0 1.00011 309.619 339.563)"/><path d="M2113.87 1429.97 2222.54 1397.08 2226.54 1429.28 2204.94 1475.7 2198.41 1532.11 2164.21 1585.29 2104.11 1567.31 2120.41 1486.07 2113.87 1429.97Z" stroke="#FFFFFF" stroke-width="7.68514" stroke-linecap="round" stroke-linejoin="round" fill="#ACA5D8" transform="matrix(1 0 0 1.00011 309.619 339.563)"/><path d="M2400.99 1404 2398.76 1478.01 2353.34 1500.22 2346.04 1448.11 2400.99 1404Z" stroke="#FFFFFF" stroke-width="7.68514" stroke-linecap="round" stroke-linejoin="round" fill="#90E7C4" transform="matrix(1 0 0 1.00011 309.619 339.563)"/><path d="M2029.95 1569.77 2063.61 1581.06 2104.11 1567.31 2164.21 1585.29 2128.09 1599.97 2058.46 1604.27 2031.18 1614.34 2029.95 1569.77Z" stroke="#FFFFFF" stroke-width="7.68514" stroke-linecap="round" stroke-linejoin="round" fill="#78847F" transform="matrix(1 0 0 1.00011 309.619 339.563)"/><path d="M1938.04 1573.61 2029.95 1569.77 2031.18 1614.34 2002.82 1636.78 1997.44 1690.35 1887.78 1688.58 1898.23 1658.61 1857.11 1604.66 1887.85 1570.3 1938.04 1573.61Z" stroke="#FFFFFF" stroke-width="7.68514" stroke-linecap="round" stroke-linejoin="round" fill="#C0DE9B" transform="matrix(1 0 0 1.00011 309.619 339.563)"/><path d="M1909.37 1492.61 1959.71 1511.82 1928.35 1523.58 1938.04 1573.61 1887.85 1570.3 1843.89 1517.43 1809.47 1446.5 1842.13 1442.73 1909.37 1492.61Z" stroke="#FFFFFF" stroke-width="7.68514" stroke-linecap="round" stroke-linejoin="round" fill="#B9A7DC" transform="matrix(1 0 0 1.00011 309.619 339.563)"/><path d="M1758.67 1275.12 1811.08 1258.67 1890.39 1270.51 1927.28 1313.39 1964.32 1278.96 2021.88 1283.96 2061.92 1324.69 2028.26 1375.64 1999.75 1412.99 1909.37 1492.61 1842.13 1442.73 1809.47 1446.5 1769.43 1373.95 1747.6 1295.56 1758.67 1275.12Z" stroke="#FFFFFF" stroke-width="7.68514" stroke-linecap="round" stroke-linejoin="round" fill="#A4BD8A" transform="matrix(1 0 0 1.00011 309.619 339.563)"/><path d="M1811.08 1258.67 1802.7 1217.56 1816.92 1191.58 1870.87 1168.99 1885.09 1114.5 1857.42 1062.32 1894.54 1058.17 1958.33 1124.41 2038.48 1172.14 2039.48 1226.7 2021.88 1283.96 1964.32 1278.96 1927.28 1313.39 1890.39 1270.51 1811.08 1258.67Z" stroke="#FFFFFF" stroke-width="7.68514" stroke-linecap="round" stroke-linejoin="round" fill="#8A7C85" transform="matrix(1 0 0 1.00011 309.619 339.563)"/><path d="M2141.31 1287.41 2061.92 1324.69 2021.88 1283.96 2039.48 1226.7 2038.48 1172.14 2102.19 1174.37 2121.79 1190.81 2148.76 1263.21 2148.76 1263.67 2141.31 1287.41Z" stroke="#FFFFFF" stroke-width="7.68514" stroke-linecap="round" stroke-linejoin="round" fill="#AFE0D7" transform="matrix(1 0 0 1.00011 309.619 339.563)"/><path d="M2273.42 1141.78 2252.28 1228.08 2191.49 1235.08 2148.76 1263.21 2121.79 1190.81 2153.76 1156.23 2188.11 1166.76 2231.84 1153.39 2273.42 1141.78Z" stroke="#FFFFFF" stroke-width="7.68514" stroke-linecap="round" stroke-linejoin="round" fill="#D5E2D2" transform="matrix(1 0 0 1.00011 309.619 339.563)"/><path d="M1894.54 1058.17 1911.68 1024.04 1854.27 985.849 1871.02 926.443 1911.29 931.977 1969.78 992.843 2046.78 1000.22 2110.26 1011.36 2154.84 1060.01 2206.48 1088.06 2188.88 1115.81 2231.84 1153.39 2188.11 1166.76 2153.76 1156.23 2121.79 1190.81 2102.19 1174.37 2038.48 1172.14 1958.33 1124.41 1894.54 1058.17Z" stroke="#FFFFFF" stroke-width="7.68514" stroke-linecap="round" stroke-linejoin="round" fill="#BEDF93" transform="matrix(1 0 0 1.00011 309.619 339.563)"/><path d="M2289.48 1102.36 2273.42 1141.78 2231.84 1153.39 2188.88 1115.81 2206.48 1088.06 2154.84 1060.01 2110.26 1011.36 2046.78 1000.22 2068.45 968.788 2130.17 943.504 2123.17 926.674 2301.24 940.815 2279.87 998.069 2272.57 998.069 2276.57 1097.82 2289.48 1102.36Z" stroke="#FFFFFF" stroke-width="7.68514" stroke-linecap="round" stroke-linejoin="round" fill="#A2A5A4" transform="matrix(1 0 0 1.00011 309.619 339.563)"/><path d="M2242.98 738.081 2326.52 753.374 2381.16 741.385 2452.1 796.488 2393.31 834.068 2350.04 868.882 2321.91 912.149 2305.08 937.202 2301.24 940.815 2123.17 926.674 2079.91 893.167 2210.86 879.103 2263.04 853.742 2179.97 800.33 2189.5 772.971 2233.45 771.05 2242.98 738.081Z" stroke="#FFFFFF" stroke-width="7.68514" stroke-linecap="round" stroke-linejoin="round" fill="#D4CDC8" transform="matrix(1 0 0 1.00011 309.619 339.563)"/><path d="M2051.62 622.035 2053.24 621.036 2164.29 697.503 2242.98 738.081 2233.45 771.05 2189.5 772.971 2179.97 800.33 2263.04 853.742 2210.86 879.103 2079.91 893.167 2123.17 926.674 2130.17 943.504 2068.45 968.788 2046.78 1000.22 1969.78 992.843 1911.29 931.977 1871.02 926.443 1867.64 919.373 1853.42 887.787 1868.95 847.824 1851.66 819.927 1867.72 783.039 1914.52 741.769 1963.48 730.626 2019.04 737.62 2030.26 688.511 1996.37 676.446 2051.62 622.035Z" stroke="#FFFFFF" stroke-width="7.68514" stroke-linecap="round" stroke-linejoin="round" fill="#99C3D1" transform="matrix(1 0 0 1.00011 309.619 339.563)"/><path d="M1653.96 1504.33C1653.96 1517.07 1643.63 1527.39 1630.9 1527.39 1618.17 1527.39 1607.85 1517.07 1607.85 1504.33 1607.85 1491.6 1618.17 1481.28 1630.9 1481.28 1643.63 1481.28 1653.96 1491.6 1653.96 1504.33Z" transform="matrix(1 0 0 1.00011 309.619 339.563)"/><path d="M1673.06 1603.09C1673.06 1615.82 1662.74 1626.14 1650.01 1626.14 1637.27 1626.14 1626.95 1615.82 1626.95 1603.09 1626.95 1590.36 1637.27 1580.03 1650.01 1580.03 1662.74 1580.03 1673.06 1590.36 1673.06 1603.09Z" transform="matrix(1 0 0 1.00011 309.619 339.563)"/><path d="M1877.4 1657.53C1877.4 1670.26 1867.08 1680.59 1854.35 1680.59 1841.61 1680.59 1831.29 1670.26 1831.29 1657.53 1831.29 1644.8 1841.61 1634.47 1854.35 1634.47 1867.08 1634.47 1877.4 1644.8 1877.4 1657.53Z" transform="matrix(1 0 0 1.00011 309.619 339.563)"/><path d="M1682.76 1688.77C1682.76 1701.5 1672.44 1711.83 1659.71 1711.83 1646.97 1711.83 1636.65 1701.5 1636.65 1688.77 1636.65 1676.04 1646.97 1665.72 1659.71 1665.72 1672.44 1665.72 1682.76 1676.04 1682.76 1688.77Z" transform="matrix(1 0 0 1.00011 309.619 339.563)"/><path d="M2939.54 1236.3C2939.54 1249.03 2929.22 1259.36 2916.49 1259.36 2903.75 1259.36 2893.43 1249.03 2893.43 1236.3 2893.43 1223.57 2903.75 1213.24 2916.49 1213.24 2929.22 1213.24 2939.54 1223.57 2939.54 1236.3Z" transform="matrix(1 0 0 1.00011 309.619 339.563)"/><path d="M3113.26 1353.67C3113.26 1366.4 3102.93 1376.72 3090.2 1376.72 3077.47 1376.72 3067.15 1366.4 3067.15 1353.67 3067.15 1340.93 3077.47 1330.61 3090.2 1330.61 3102.93 1330.61 3113.26 1340.93 3113.26 1353.67Z" transform="matrix(1 0 0 1.00011 309.619 339.563)"/><path d="M2952.58 1155.48C2952.58 1168.21 2942.26 1178.53 2929.53 1178.53 2916.79 1178.53 2906.47 1168.21 2906.47 1155.48 2906.47 1142.74 2916.79 1132.42 2929.53 1132.42 2942.26 1132.42 2952.58 1142.74 2952.58 1155.48Z" transform="matrix(1 0 0 1.00011 309.619 339.563)"/><path d="M3010.18 929.955C3010.18 942.689 2999.85 953.011 2987.12 953.011 2974.39 953.011 2964.07 942.689 2964.07 929.955 2964.07 917.222 2974.39 906.9 2987.12 906.9 2999.85 906.9 3010.18 917.222 3010.18 929.955Z" transform="matrix(1 0 0 1.00011 309.619 339.563)"/><path d="M3167.61 858.676C3167.61 871.409 3157.28 881.731 3144.55 881.731 3131.82 881.731 3121.5 871.409 3121.5 858.676 3121.5 845.943 3131.82 835.62 3144.55 835.62 3157.28 835.62 3167.61 845.943 3167.61 858.676Z" transform="matrix(1 0 0 1.00011 309.619 339.563)"/><path d="M3009.47 1066.44C3009.47 1079.17 2999.15 1089.49 2986.41 1089.49 2973.68 1089.49 2963.36 1079.17 2963.36 1066.44 2963.36 1053.7 2973.68 1043.38 2986.41 1043.38 2999.15 1043.38 3009.47 1053.7 3009.47 1066.44Z" transform="matrix(1 0 0 1.00011 309.619 339.563)"/><path d="M2975.71 631.902C2975.71 644.635 2965.39 654.957 2952.65 654.957 2939.92 654.957 2929.6 644.635 2929.6 631.902 2929.6 619.169 2939.92 608.847 2952.65 608.847 2965.39 608.847 2975.71 619.169 2975.71 631.902Z" transform="matrix(1 0 0 1.00011 309.619 339.563)"/><path d="M2850.73 1009.77C2850.73 1022.51 2840.41 1032.83 2827.68 1032.83 2814.94 1032.83 2804.62 1022.51 2804.62 1009.77 2804.62 997.04 2814.94 986.718 2827.68 986.718 2840.41 986.718 2850.73 997.04 2850.73 1009.77Z" transform="matrix(1 0 0 1.00011 309.619 339.563)"/><path d="M2725.68 1124.41C2725.68 1137.15 2715.36 1147.47 2702.62 1147.47 2689.89 1147.47 2679.57 1137.15 2679.57 1124.41 2679.57 1111.68 2689.89 1101.36 2702.62 1101.36 2715.36 1101.36 2725.68 1111.68 2725.68 1124.41Z" transform="matrix(1 0 0 1.00011 309.619 339.563)"/><path d="M3108.05 1635.4C3108.05 1648.14 3097.72 1658.46 3084.99 1658.46 3072.26 1658.46 3061.94 1648.14 3061.94 1635.4 3061.94 1622.67 3072.26 1612.35 3084.99 1612.35 3097.72 1612.35 3108.05 1622.67 3108.05 1635.4Z" transform="matrix(1 0 0 1.00011 309.619 339.563)"/><path d="M2892.26 1514.19C2892.26 1526.93 2881.94 1537.25 2869.21 1537.25 2856.47 1537.25 2846.15 1526.93 2846.15 1514.19 2846.15 1501.46 2856.47 1491.14 2869.21 1491.14 2881.94 1491.14 2892.26 1501.46 2892.26 1514.19Z" transform="matrix(1 0 0 1.00011 309.619 339.563)"/><path d="M2883.26 1745.63C2883.26 1758.36 2872.94 1768.68 2860.21 1768.68 2847.48 1768.68 2837.15 1758.36 2837.15 1745.63 2837.15 1732.89 2847.48 1722.57 2860.21 1722.57 2872.94 1722.57 2883.26 1732.89 2883.26 1745.63Z" transform="matrix(1 0 0 1.00011 309.619 339.563)"/><path d="M2918.85 1651.97C2918.85 1664.71 2908.52 1675.03 2895.79 1675.03 2883.06 1675.03 2872.73 1664.71 2872.73 1651.97 2872.73 1639.24 2883.06 1628.92 2895.79 1628.92 2908.52 1628.92 2918.85 1639.24 2918.85 1651.97Z" transform="matrix(1 0 0 1.00011 309.619 339.563)"/><path d="M3003.74 1769.63C3003.74 1782.36 2993.42 1792.68 2980.69 1792.68 2967.96 1792.68 2957.63 1782.36 2957.63 1769.63 2957.63 1756.89 2967.96 1746.57 2980.69 1746.57 2993.42 1746.57 3003.74 1756.89 3003.74 1769.63Z" transform="matrix(1 0 0 1.00011 309.619 339.563)"/><path d="M1292.06 1130.91C1292.06 1143.65 1281.74 1153.97 1269.01 1153.97 1256.28 1153.97 1245.95 1143.65 1245.95 1130.91 1245.95 1118.18 1256.28 1107.86 1269.01 1107.86 1281.74 1107.86 1292.06 1118.18 1292.06 1130.91Z" transform="matrix(1 0 0 1.00011 309.619 339.563)"/><path d="M1496.71 1379.69C1496.71 1392.42 1486.39 1402.74 1473.66 1402.74 1460.92 1402.74 1450.6 1392.42 1450.6 1379.69 1450.6 1366.96 1460.92 1356.63 1473.66 1356.63 1486.39 1356.63 1496.71 1366.96 1496.71 1379.69Z" transform="matrix(1 0 0 1.00011 309.619 339.563)"/><path d="M1747.27 1183.74C1747.27 1196.47 1736.95 1206.8 1724.21 1206.8 1711.48 1206.8 1701.16 1196.47 1701.16 1183.74 1701.16 1171.01 1711.48 1160.69 1724.21 1160.69 1736.95 1160.69 1747.27 1171.01 1747.27 1183.74Z" transform="matrix(1 0 0 1.00011 309.619 339.563)"/><path d="M1310.52 1288.04C1310.52 1300.77 1300.2 1311.09 1287.47 1311.09 1274.73 1311.09 1264.41 1300.77 1264.41 1288.04 1264.41 1275.3 1274.73 1264.98 1287.47 1264.98 1300.2 1264.98 1310.52 1275.3 1310.52 1288.04Z" transform="matrix(1 0 0 1.00011 309.619 339.563)"/><path d="M1745.62 799.769C1745.62 812.502 1735.3 822.825 1722.56 822.825 1709.83 822.825 1699.51 812.502 1699.51 799.769 1699.51 787.036 1709.83 776.714 1722.56 776.714 1735.3 776.714 1745.62 787.036 1745.62 799.769Z" transform="matrix(1 0 0 1.00011 309.619 339.563)"/><path d="M1919.82 1426.21C1919.82 1438.94 1909.49 1449.26 1896.76 1449.26 1884.03 1449.26 1873.71 1438.94 1873.71 1426.21 1873.71 1413.47 1884.03 1403.15 1896.76 1403.15 1909.49 1403.15 1919.82 1413.47 1919.82 1426.21Z" transform="matrix(1 0 0 1.00011 309.619 339.563)"/><path d="M1836.95 1429.26C1836.95 1441.99 1826.63 1452.31 1813.89 1452.31 1801.16 1452.31 1790.84 1441.99 1790.84 1429.26 1790.84 1416.53 1801.16 1406.2 1813.89 1406.2 1826.63 1406.2 1836.95 1416.53 1836.95 1429.26Z" transform="matrix(1 0 0 1.00011 309.619 339.563)"/><path d="M1893.14 1616.07C1893.14 1628.8 1882.82 1639.12 1870.09 1639.12 1857.35 1639.12 1847.03 1628.8 1847.03 1616.07 1847.03 1603.34 1857.35 1593.01 1870.09 1593.01 1882.82 1593.01 1893.14 1603.34 1893.14 1616.07Z" transform="matrix(1 0 0 1.00011 309.619 339.563)"/><path d="M2028.16 1420.29C2028.16 1433.02 2017.84 1443.35 2005.11 1443.35 1992.37 1443.35 1982.05 1433.02 1982.05 1420.29 1982.05 1407.56 1992.37 1397.23 2005.11 1397.23 2017.84 1397.23 2028.16 1407.56 2028.16 1420.29Z" transform="matrix(1 0 0 1.00011 309.619 339.563)"/><path d="M2156.76 1350.39C2156.76 1363.13 2146.43 1373.45 2133.7 1373.45 2120.97 1373.45 2110.65 1363.13 2110.65 1350.39 2110.65 1337.66 2120.97 1327.34 2133.7 1327.34 2146.43 1327.34 2156.76 1337.66 2156.76 1350.39Z" transform="matrix(1 0 0 1.00011 309.619 339.563)"/><path d="M1915.45 1665.48C1915.45 1678.21 1905.13 1688.53 1892.4 1688.53 1879.66 1688.53 1869.34 1678.21 1869.34 1665.48 1869.34 1652.74 1879.66 1642.42 1892.4 1642.42 1905.13 1642.42 1915.45 1652.74 1915.45 1665.48Z" transform="matrix(1 0 0 1.00011 309.619 339.563)"/><path d="M2205.56 1330.07C2205.56 1342.81 2195.24 1353.13 2182.5 1353.13 2169.77 1353.13 2159.45 1342.81 2159.45 1330.07 2159.45 1317.34 2169.77 1307.02 2182.5 1307.02 2195.24 1307.02 2205.56 1317.34 2205.56 1330.07Z" transform="matrix(1 0 0 1.00011 309.619 339.563)"/><path d="M2123.03 1255.13C2123.03 1267.86 2112.7 1278.18 2099.97 1278.18 2087.24 1278.18 2076.92 1267.86 2076.92 1255.13 2076.92 1242.4 2087.24 1232.07 2099.97 1232.07 2112.7 1232.07 2123.03 1242.4 2123.03 1255.13Z" transform="matrix(1 0 0 1.00011 309.619 339.563)"/><path d="M2368.38 1247.85C2368.38 1260.58 2358.06 1270.91 2345.33 1270.91 2332.59 1270.91 2322.27 1260.58 2322.27 1247.85 2322.27 1235.12 2332.59 1224.8 2345.33 1224.8 2358.06 1224.8 2368.38 1235.12 2368.38 1247.85Z" transform="matrix(1 0 0 1.00011 309.619 339.563)"/><path d="M2555.87 758.128C2555.87 770.861 2545.55 781.183 2532.81 781.183 2520.08 781.183 2509.76 770.861 2509.76 758.128 2509.76 745.395 2520.08 735.073 2532.81 735.073 2545.55 735.073 2555.87 745.395 2555.87 758.128Z" transform="matrix(1 0 0 1.00011 309.619 339.563)"/><path d="M2332.96 1190.68C2332.96 1203.41 2322.64 1213.74 2309.91 1213.74 2297.17 1213.74 2286.85 1203.41 2286.85 1190.68 2286.85 1177.95 2297.17 1167.63 2309.91 1167.63 2322.64 1167.63 2332.96 1177.95 2332.96 1190.68Z" transform="matrix(1 0 0 1.00011 309.619 339.563)"/><path d="M2239.06 1216.36C2239.06 1229.09 2228.73 1239.41 2216 1239.41 2203.27 1239.41 2192.95 1229.09 2192.95 1216.36 2192.95 1203.62 2203.27 1193.3 2216 1193.3 2228.73 1193.3 2239.06 1203.62 2239.06 1216.36Z" transform="matrix(1 0 0 1.00011 309.619 339.563)"/><path d="M805.118 409.486C805.118 422.22 794.796 432.542 782.063 432.542 769.329 432.542 759.007 422.22 759.007 409.486 759.007 396.753 769.329 386.431 782.063 386.431 794.796 386.431 805.118 396.753 805.118 409.486Z" transform="matrix(1 0 0 1.00011 309.619 339.563)"/></g></g><text font-family="Arial,Arial_MSFontService,sans-serif" font-weight="700" font-size="64" transform="matrix(1 0 0 1 996.808 377)">TELLUBASE COVERAGE OF </text><text font-family="Arial,Arial_MSFontService,sans-serif" font-weight="700" font-size="64" transform="matrix(1 0 0 1 1891.7 377)">NORDIC</text><text font-family="Arial,Arial_MSFontService,sans-serif" font-weight="700" font-size="64" transform="matrix(1 0 0 1 2144.93 377)">-</text><text font-family="Arial,Arial_MSFontService,sans-serif" font-weight="700" font-size="64" transform="matrix(1 0 0 1 2166.13 377)">BALTIC </text><text font-family="Arial,Arial_MSFontService,sans-serif" font-weight="700" font-size="64" transform="matrix(1 0 0 1 2414.02 377)">EIGHT</text><text font-family="Arial,Arial_MSFontService,sans-serif" font-weight="700" font-size="64" transform="matrix(1 0 0 1 2627.72 377)">(NB8)</text><text font-family="Arial,Arial_MSFontService,sans-serif" font-weight="400" font-size="64" transform="matrix(1 0 0 1 1148.54 454)">36 cities (pop.&gt;100,000) and 74 primary subdivisions</text></g></svg>