<svg width="2273" height="3425" xmlns="http://www.w3.org/2000/svg" xmlns:xlink="http://www.w3.org/1999/xlink" xml:space="preserve" overflow="hidden"><g transform="translate(-102 -209)"><text font-family="Aptos,Aptos_MSFontService,sans-serif" font-weight="700" font-size="83" transform="matrix(1 0 0 1 743.343 310)">THE TOWER OF TELLUBASE</text><path d="M180 392.5C180 378.969 190.969 368 204.5 368 218.031 368 229 378.969 229 392.5 229 406.031 218.031 417 204.5 417 190.969 417 180 406.031 180 392.5Z" fill="#0F9ED5" fill-rule="evenodd"/><text font-family="Aptos,Aptos_MSFontService,sans-serif" font-style="italic" font-weight="400" font-size="55" transform="matrix(1 0 0 1 291.638 410)">Conventional sources</text><path d="M180 318C180 304.193 190.969 293 204.5 293 218.031 293 229 304.193 229 318 229 331.807 218.031 343 204.5 343 190.969 343 180 331.807 180 318Z" fill="#4EA72E" fill-rule="evenodd"/><text font-family="Aptos,Aptos_MSFontService,sans-serif" font-style="italic" font-weight="400" font-size="55" transform="matrix(1 0 0 1 291.638 335)">TelluBase</text><path d="M182 467C182 453.193 193.193 442 207 442 220.807 442 232 453.193 232 467 232 480.807 220.807 492 207 492 193.193 492 182 480.807 182 467Z" fill="#61CBF4" fill-rule="evenodd"/><text font-family="Aptos,Aptos_MSFontService,sans-serif" font-style="italic" font-weight="400" font-size="55" transform="matrix(1 0 0 1 291.638 484)">Occasionally  in conventional sources</text><text font-family="Aptos,Aptos_MSFontService,sans-serif" font-weight="400" font-size="46" transform="matrix(1 0 0 1 1160.05 3593)">© 2026 Tellusant, Inc.</text><rect x="1257" y="538" width="1099" height="14.0001" fill="#EAEAEA"/><text font-family="Aptos,Aptos_MSFontService,sans-serif" font-weight="700" font-size="64" transform="matrix(1 0 0 1 1256.21 667)">Cities</text><text font-family="Aptos,Aptos_MSFontService,sans-serif" font-weight="400" font-size="60" transform="matrix(1 0 0 1 1269.08 740)">2,600</text><text font-family="Aptos,Aptos_MSFontService,sans-serif" font-weight="700" font-size="64" transform="matrix(1 0 0 1 1647.24 593)">Sub</text><text font-family="Aptos,Aptos_MSFontService,sans-serif" font-weight="700" font-size="64" transform="matrix(1 0 0 1 1760.68 593)">-</text><text font-family="Aptos,Aptos_MSFontService,sans-serif" font-weight="700" font-size="64" transform="matrix(1 0 0 1 1584.22 670)">divisions</text><text font-family="Aptos,Aptos_MSFontService,sans-serif" font-weight="400" font-size="64" transform="matrix(1 0 0 1 1636.93 747)">2,500</text><text font-family="Aptos Narrow,Aptos Narrow_MSFontService,sans-serif" font-weight="700" font-stretch="semi-condensed" font-size="64" transform="matrix(1 0 0 1 141.479 2220)">GDP</text><text font-family="Aptos Narrow,Aptos Narrow_MSFontService,sans-serif" font-weight="400" font-stretch="semi-condensed" font-size="55" transform="matrix(1 0 0 1 141.479 2289)">Local currency unit</text><text font-family="Aptos Narrow,Aptos Narrow_MSFontService,sans-serif" font-weight="400" font-stretch="semi-condensed" font-size="55" transform="matrix(1 0 0 1 141.479 2355)">Purchasing power parity $</text><text font-family="Aptos Narrow,Aptos Narrow_MSFontService,sans-serif" font-weight="400" font-stretch="semi-condensed" font-size="55" transform="matrix(1 0 0 1 141.479 2421)">Market exchange rate $</text><text font-family="Aptos Narrow,Aptos Narrow_MSFontService,sans-serif" font-weight="700" font-stretch="semi-condensed" font-size="64" transform="matrix(1 0 0 1 141.479 2543)">Disposable income</text><text font-family="Aptos Narrow,Aptos Narrow_MSFontService,sans-serif" font-weight="400" font-stretch="semi-condensed" font-size="55" transform="matrix(1 0 0 1 141.479 2612)">Local currency unit</text><text font-family="Aptos Narrow,Aptos Narrow_MSFontService,sans-serif" font-weight="400" font-stretch="semi-condensed" font-size="55" transform="matrix(1 0 0 1 141.479 2678)">Purchasing power parity $</text><text font-family="Aptos Narrow,Aptos Narrow_MSFontService,sans-serif" font-weight="400" font-stretch="semi-condensed" font-size="55" transform="matrix(1 0 0 1 141.479 2744)">Market exchange rate $</text><text font-family="Aptos Narrow,Aptos Narrow_MSFontService,sans-serif" font-weight="700" font-stretch="semi-condensed" font-size="64" transform="matrix(1 0 0 1 141.479 876)">Income brackets</text><text font-family="Aptos Narrow,Aptos Narrow_MSFontService,sans-serif" font-style="italic" font-weight="400" font-stretch="semi-condensed" font-size="55" transform="matrix(1 0 0 1 141.479 945)">E.g., households earning </text><text font-family="Aptos Narrow,Aptos Narrow_MSFontService,sans-serif" font-style="italic" font-weight="400" font-stretch="semi-condensed" font-size="55" transform="matrix(1 0 0 1 141.479 1011)">$10000−20000 per year</text><text font-family="Aptos Narrow,Aptos Narrow_MSFontService,sans-serif" font-weight="700" font-stretch="semi-condensed" font-size="64" transform="matrix(1 0 0 1 141.479 1131)">Age cohorts</text><text font-family="Aptos Narrow,Aptos Narrow_MSFontService,sans-serif" font-style="italic" font-weight="400" font-stretch="semi-condensed" font-size="55" transform="matrix(1 0 0 1 141.479 1200)">E.g., 25</text><text font-family="Aptos Narrow,Aptos Narrow_MSFontService,sans-serif" font-style="italic" font-weight="400" font-stretch="semi-condensed" font-size="55" transform="matrix(1 0 0 1 302.469 1200)">–</text><text font-family="Aptos Narrow,Aptos Narrow_MSFontService,sans-serif" font-style="italic" font-weight="400" font-stretch="semi-condensed" font-size="55" transform="matrix(1 0 0 1 325.385 1200)">35 years old,</text><text font-family="Aptos Narrow,Aptos Narrow_MSFontService,sans-serif" font-style="italic" font-weight="400" font-stretch="semi-condensed" font-size="55" transform="matrix(1 0 0 1 141.479 1266)">working</text><text font-family="Aptos Narrow,Aptos Narrow_MSFontService,sans-serif" font-style="italic" font-weight="400" font-stretch="semi-condensed" font-size="55" transform="matrix(1 0 0 1 311.063 1266)">-</text><text font-family="Aptos Narrow,Aptos Narrow_MSFontService,sans-serif" font-style="italic" font-weight="400" font-stretch="semi-condensed" font-size="55" transform="matrix(1 0 0 1 327.677 1266)">age pop.</text><rect x="1143" y="762" width="33" height="2719" fill="#EAEAEA"/><rect x="2362" y="538" width="13" height="2697" fill="#EAEAEA"/><rect x="1889" y="762" width="33" height="2719" fill="#EAEAEA"/><rect x="1507" y="762" width="33" height="2719" fill="#EAEAEA"/><rect x="816" y="760" width="1099" height="33" fill="#EAEAEA"/><text font-family="Aptos Narrow,Aptos Narrow_MSFontService,sans-serif" font-weight="700" font-stretch="semi-condensed" font-size="64" transform="matrix(1 0 0 1 141.479 1387)">Income / </text><text font-family="Aptos Narrow,Aptos Narrow_MSFontService,sans-serif" font-weight="700" font-stretch="semi-condensed" font-size="64" transform="matrix(1 0 0 1 387.833 1387)">Age </text><text font-family="Aptos Narrow,Aptos Narrow_MSFontService,sans-serif" font-weight="700" font-stretch="semi-condensed" font-size="64" transform="matrix(1 0 0 1 497.535 1387)">cells</text><text font-family="Aptos Narrow,Aptos Narrow_MSFontService,sans-serif" font-style="italic" font-weight="400" font-stretch="semi-condensed" font-size="55" transform="matrix(1 0 0 1 141.479 1456)">E.g., 25−35 years old </text><text font-family="Aptos Narrow,Aptos Narrow_MSFontService,sans-serif" font-style="italic" font-weight="400" font-stretch="semi-condensed" font-size="55" transform="matrix(1 0 0 1 141.479 1522)">earning $5000−8000</text><text font-family="Aptos Narrow,Aptos Narrow_MSFontService,sans-serif" font-weight="700" font-stretch="semi-condensed" font-size="64" transform="matrix(1 0 0 1 141.479 1965)">Socioeconomic levels</text><text font-family="Aptos Narrow,Aptos Narrow_MSFontService,sans-serif" font-style="italic" font-weight="400" font-stretch="semi-condensed" font-size="55" transform="matrix(1 0 0 1 141.479 2034)">E.g., Mexico, Colombia, </text><text font-family="Aptos Narrow,Aptos Narrow_MSFontService,sans-serif" font-style="italic" font-weight="400" font-stretch="semi-condensed" font-size="55" transform="matrix(1 0 0 1 141.479 2100)">South Africa definitions</text><text font-family="Aptos Narrow,Aptos Narrow_MSFontService,sans-serif" font-weight="700" font-stretch="semi-condensed" font-size="64" transform="matrix(1 0 0 1 141.479 1643)">Consumer class sizes</text><text font-family="Aptos Narrow,Aptos Narrow_MSFontService,sans-serif" font-style="italic" font-weight="400" font-stretch="semi-condensed" font-size="55" transform="matrix(1 0 0 1 141.479 1711)">World population divided </text><text font-family="Aptos Narrow,Aptos Narrow_MSFontService,sans-serif" font-style="italic" font-weight="400" font-stretch="semi-condensed" font-size="55" transform="matrix(1 0 0 1 141.479 1777)">into 11 classes: 0</text><text font-family="Aptos Narrow,Aptos Narrow_MSFontService,sans-serif" font-style="italic" font-weight="400" font-stretch="semi-condensed" font-size="55" transform="matrix(1 0 0 1 519.925 1777)">–</text><text font-family="Aptos Narrow,Aptos Narrow_MSFontService,sans-serif" font-style="italic" font-weight="400" font-stretch="semi-condensed" font-size="55" transform="matrix(1 0 0 1 538.487 1777)">10%…</text><text font-family="Aptos Narrow,Aptos Narrow_MSFontService,sans-serif" font-style="italic" font-weight="400" font-stretch="semi-condensed" font-size="55" transform="matrix(1 0 0 1 141.479 1843)">90</text><text font-family="Aptos Narrow,Aptos Narrow_MSFontService,sans-serif" font-style="italic" font-weight="400" font-stretch="semi-condensed" font-size="55" transform="matrix(1 0 0 1 197.625 1843)">–</text><text font-family="Aptos Narrow,Aptos Narrow_MSFontService,sans-serif" font-style="italic" font-weight="400" font-stretch="semi-condensed" font-size="55" transform="matrix(1 0 0 1 220.542 1843)">99%, 99%</text><text font-family="Aptos Narrow,Aptos Narrow_MSFontService,sans-serif" font-style="italic" font-weight="400" font-stretch="semi-condensed" font-size="55" transform="matrix(1 0 0 1 445.125 1843)">–</text><text font-family="Aptos Narrow,Aptos Narrow_MSFontService,sans-serif" font-style="italic" font-weight="400" font-stretch="semi-condensed" font-size="55" transform="matrix(1 0 0 1 463.688 1843)">100%</text><text font-family="Aptos Narrow,Aptos Narrow_MSFontService,sans-serif" font-weight="700" font-stretch="semi-condensed" font-size="64" transform="matrix(1 0 0 1 141.479 2865)">Exchange rates</text><text font-family="Aptos Narrow,Aptos Narrow_MSFontService,sans-serif" font-weight="400" font-stretch="semi-condensed" font-size="55" transform="matrix(1 0 0 1 141.479 2934)">All exchange rates </text><text font-family="Aptos Narrow,Aptos Narrow_MSFontService,sans-serif" font-weight="400" font-stretch="semi-condensed" font-size="55" transform="matrix(1 0 0 1 141.479 3000)">historically and into the </text><text font-family="Aptos Narrow,Aptos Narrow_MSFontService,sans-serif" font-weight="400" font-stretch="semi-condensed" font-size="55" transform="matrix(1 0 0 1 141.479 3066)">future projected with the </text><text font-family="Aptos Narrow,Aptos Narrow_MSFontService,sans-serif" font-weight="400" font-stretch="semi-condensed" font-size="55" transform="matrix(1 0 0 1 141.479 3132)">naïve method</text><text font-family="Aptos Narrow,Aptos Narrow_MSFontService,sans-serif" font-weight="700" font-stretch="semi-condensed" font-size="64" transform="matrix(1 0 0 1 141.479 3254)">Inflation</text><text font-family="Aptos Narrow,Aptos Narrow_MSFontService,sans-serif" font-weight="400" font-stretch="semi-condensed" font-size="55" transform="matrix(1 0 0 1 141.479 3323)">GDP deflator</text><text font-family="Aptos Narrow,Aptos Narrow_MSFontService,sans-serif" font-weight="400" font-stretch="semi-condensed" font-size="55" transform="matrix(1 0 0 1 141.479 3389)">CPI</text><rect x="796" y="762" width="33" height="2719" fill="#EAEAEA"/><path d="M1657 922.5C1657 895.162 1679.16 873 1706.5 873 1733.84 873 1756 895.162 1756 922.5 1756 949.838 1733.84 972 1706.5 972 1679.16 972 1657 949.838 1657 922.5Z" fill="#4EA72E" fill-rule="evenodd"/><path d="M1288 922.5C1288 895.162 1310.16 873 1337.5 873 1364.84 873 1387 895.162 1387 922.5 1387 949.838 1364.84 972 1337.5 972 1310.16 972 1288 949.838 1288 922.5Z" fill="#4EA72E" fill-rule="evenodd"/><path d="M939 922.5C939 895.162 961.162 873 988.5 873 1015.84 873 1038 895.162 1038 922.5 1038 949.838 1015.84 972 988.5 972 961.162 972 939 949.838 939 922.5Z" fill="#4EA72E" fill-rule="evenodd"/><path d="M1994 859C1994 840.775 2008.77 826 2027 826 2045.23 826 2060 840.775 2060 859 2060 877.225 2045.23 892 2027 892 2008.77 892 1994 877.225 1994 859Z" fill="#4EA72E" fill-rule="evenodd"/><path d="M2131 794C2131 779.641 2142.86 768 2157.5 768 2172.14 768 2184 779.641 2184 794 2184 808.359 2172.14 820 2157.5 820 2142.86 820 2131 808.359 2131 794Z" fill="#4EA72E" fill-rule="evenodd"/><path d="M2255 732C2255 720.954 2263.73 712 2274.5 712 2285.27 712 2294 720.954 2294 732 2294 743.046 2285.27 752 2274.5 752 2263.73 752 2255 743.046 2255 732Z" fill="#4EA72E" fill-rule="evenodd"/><text font-family="Aptos,Aptos_MSFontService,sans-serif" font-weight="400" font-size="50" transform="matrix(1 0 0 1 1293.05 2995)">n/m</text><text font-family="Aptos,Aptos_MSFontService,sans-serif" font-weight="400" font-size="50" transform="matrix(1 0 0 1 1661.74 2995)">n/m</text><text font-family="Aptos,Aptos_MSFontService,sans-serif" font-weight="400" font-size="50" transform="matrix(1 0 0 1 1293.05 3327)">n/m</text><text font-family="Aptos,Aptos_MSFontService,sans-serif" font-weight="400" font-size="50" transform="matrix(1 0 0 1 1661.74 3327)">n/m</text><rect x="796" y="1037" width="1099" height="33" fill="#EAEAEA"/><rect x="796" y="1519" width="1099" height="33" fill="#EAEAEA"/><rect x="796" y="1878" width="1099" height="33" fill="#EAEAEA"/><rect x="796" y="2127" width="1099" height="33" fill="#EAEAEA"/><rect x="796" y="2460" width="1099" height="33" fill="#EAEAEA"/><rect x="802" y="2775" width="1099" height="33" fill="#EAEAEA"/><rect x="800" y="3142" width="1099" height="33" fill="#EAEAEA"/><rect x="796" y="1288" width="1099" height="33" fill="#EAEAEA"/><rect x="796" y="3448" width="1099" height="33" fill="#EAEAEA"/><path d="M1657 1188.5C1657 1161.16 1679.16 1139 1706.5 1139 1733.84 1139 1756 1161.16 1756 1188.5 1756 1215.84 1733.84 1238 1706.5 1238 1679.16 1238 1657 1215.84 1657 1188.5Z" fill="#4EA72E" fill-rule="evenodd"/><path d="M1288 1188.5C1288 1161.16 1310.16 1139 1337.5 1139 1364.84 1139 1387 1161.16 1387 1188.5 1387 1215.84 1364.84 1238 1337.5 1238 1310.16 1238 1288 1215.84 1288 1188.5Z" fill="#4EA72E" fill-rule="evenodd"/><path d="M939 1188.5C939 1161.16 961.162 1139 988.5 1139 1015.84 1139 1038 1161.16 1038 1188.5 1038 1215.84 1015.84 1238 988.5 1238 961.162 1238 939 1215.84 939 1188.5Z" fill="#4EA72E" fill-rule="evenodd"/><path d="M1657 1415.5C1657 1388.16 1679.16 1366 1706.5 1366 1733.84 1366 1756 1388.16 1756 1415.5 1756 1442.84 1733.84 1465 1706.5 1465 1679.16 1465 1657 1442.84 1657 1415.5Z" fill="#4EA72E" fill-rule="evenodd"/><path d="M1288 1415.5C1288 1388.16 1310.16 1366 1337.5 1366 1364.84 1366 1387 1388.16 1387 1415.5 1387 1442.84 1364.84 1465 1337.5 1465 1310.16 1465 1288 1442.84 1288 1415.5Z" fill="#4EA72E" fill-rule="evenodd"/><path d="M939 1415.5C939 1388.16 961.162 1366 988.5 1366 1015.84 1366 1038 1388.16 1038 1415.5 1038 1442.84 1015.84 1465 988.5 1465 961.162 1465 939 1442.84 939 1415.5Z" fill="#4EA72E" fill-rule="evenodd"/><path d="M1657 1721.5C1657 1694.16 1679.16 1672 1706.5 1672 1733.84 1672 1756 1694.16 1756 1721.5 1756 1748.84 1733.84 1771 1706.5 1771 1679.16 1771 1657 1748.84 1657 1721.5Z" fill="#4EA72E" fill-rule="evenodd"/><path d="M1288 1721.5C1288 1694.16 1310.16 1672 1337.5 1672 1364.84 1672 1387 1694.16 1387 1721.5 1387 1748.84 1364.84 1771 1337.5 1771 1310.16 1771 1288 1748.84 1288 1721.5Z" fill="#4EA72E" fill-rule="evenodd"/><path d="M939 1721.5C939 1694.16 961.162 1672 988.5 1672 1015.84 1672 1038 1694.16 1038 1721.5 1038 1748.84 1015.84 1771 988.5 1771 961.162 1771 939 1748.84 939 1721.5Z" fill="#4EA72E" fill-rule="evenodd"/><path d="M1657 2019.5C1657 1992.16 1679.16 1970 1706.5 1970 1733.84 1970 1756 1992.16 1756 2019.5 1756 2046.84 1733.84 2069 1706.5 2069 1679.16 2069 1657 2046.84 1657 2019.5Z" fill="#4EA72E" fill-rule="evenodd"/><path d="M1288 2019.5C1288 1992.16 1310.16 1970 1337.5 1970 1364.84 1970 1387 1992.16 1387 2019.5 1387 2046.84 1364.84 2069 1337.5 2069 1310.16 2069 1288 2046.84 1288 2019.5Z" fill="#4EA72E" fill-rule="evenodd"/><path d="M939 2019.5C939 1992.16 961.162 1970 988.5 1970 1015.84 1970 1038 1992.16 1038 2019.5 1038 2046.84 1015.84 2069 988.5 2069 961.162 2069 939 2046.84 939 2019.5Z" fill="#4EA72E" fill-rule="evenodd"/><path d="M1657 2316.5C1657 2289.16 1679.16 2267 1706.5 2267 1733.84 2267 1756 2289.16 1756 2316.5 1756 2343.84 1733.84 2366 1706.5 2366 1679.16 2366 1657 2343.84 1657 2316.5Z" fill="#4EA72E" fill-rule="evenodd"/><path d="M1288 2316.5C1288 2289.16 1310.16 2267 1337.5 2267 1364.84 2267 1387 2289.16 1387 2316.5 1387 2343.84 1364.84 2366 1337.5 2366 1310.16 2366 1288 2343.84 1288 2316.5Z" fill="#4EA72E" fill-rule="evenodd"/><path d="M1657 2627.5C1657 2600.16 1679.16 2578 1706.5 2578 1733.84 2578 1756 2600.16 1756 2627.5 1756 2654.84 1733.84 2677 1706.5 2677 1679.16 2677 1657 2654.84 1657 2627.5Z" fill="#4EA72E" fill-rule="evenodd"/><path d="M1288 2627.5C1288 2600.16 1310.16 2578 1337.5 2578 1364.84 2578 1387 2600.16 1387 2627.5 1387 2654.84 1364.84 2677 1337.5 2677 1310.16 2677 1288 2654.84 1288 2627.5Z" fill="#4EA72E" fill-rule="evenodd"/><path d="M939 2249.5C939 2222.16 961.162 2200 988.5 2200 1015.84 2200 1038 2222.16 1038 2249.5 1038 2276.84 1015.84 2299 988.5 2299 961.162 2299 939 2276.84 939 2249.5Z" fill="#4EA72E" fill-rule="evenodd"/><path d="M939 2380.5C939 2353.16 961.162 2331 988.5 2331 1015.84 2331 1038 2353.16 1038 2380.5 1038 2407.84 1015.84 2430 988.5 2430 961.162 2430 939 2407.84 939 2380.5Z" fill="#0F9ED5" fill-rule="evenodd"/><path d="M939 2561.5C939 2534.16 961.162 2512 988.5 2512 1015.84 2512 1038 2534.16 1038 2561.5 1038 2588.84 1015.84 2611 988.5 2611 961.162 2611 939 2588.84 939 2561.5Z" fill="#4EA72E" fill-rule="evenodd"/><path d="M939 2693.5C939 2666.16 961.162 2644 988.5 2644 1015.84 2644 1038 2666.16 1038 2693.5 1038 2720.84 1015.84 2743 988.5 2743 961.162 2743 939 2720.84 939 2693.5Z" fill="#96DCF8" fill-rule="evenodd"/><path d="M939 2912.5C939 2885.16 961.162 2863 988.5 2863 1015.84 2863 1038 2885.16 1038 2912.5 1038 2939.84 1015.84 2962 988.5 2962 961.162 2962 939 2939.84 939 2912.5Z" fill="#4EA72E" fill-rule="evenodd"/><path d="M939 3044.5C939 3017.16 961.162 2995 988.5 2995 1015.84 2995 1038 3017.16 1038 3044.5 1038 3071.84 1015.84 3094 988.5 3094 961.162 3094 939 3071.84 939 3044.5Z" fill="#0F9ED5" fill-rule="evenodd"/><path d="M939 3245.5C939 3218.16 961.162 3196 988.5 3196 1015.84 3196 1038 3218.16 1038 3245.5 1038 3272.84 1015.84 3295 988.5 3295 961.162 3295 939 3272.84 939 3245.5Z" fill="#4EA72E" fill-rule="evenodd"/><path d="M939 3376.5C939 3349.16 961.162 3327 988.5 3327 1015.84 3327 1038 3349.16 1038 3376.5 1038 3403.84 1015.84 3426 988.5 3426 961.162 3426 939 3403.84 939 3376.5Z" fill="#0F9ED5" fill-rule="evenodd"/><path d="M1994 1125C1994 1106.77 2008.77 1092 2027 1092 2045.23 1092 2060 1106.77 2060 1125 2060 1143.23 2045.23 1158 2027 1158 2008.77 1158 1994 1143.23 1994 1125Z" fill="#4EA72E" fill-rule="evenodd"/><path d="M2131 1059.5C2131 1044.86 2142.86 1033 2157.5 1033 2172.14 1033 2184 1044.86 2184 1059.5 2184 1074.14 2172.14 1086 2157.5 1086 2142.86 1086 2131 1074.14 2131 1059.5Z" fill="#4EA72E" fill-rule="evenodd"/><path d="M2255 997C2255 985.954 2263.73 977 2274.5 977 2285.27 977 2294 985.954 2294 997 2294 1008.05 2285.27 1017 2274.5 1017 2263.73 1017 2255 1008.05 2255 997Z" fill="#4EA72E" fill-rule="evenodd"/><path d="M1994 1361C1994 1342.77 2008.77 1328 2027 1328 2045.23 1328 2060 1342.77 2060 1361 2060 1379.23 2045.23 1394 2027 1394 2008.77 1394 1994 1379.23 1994 1361Z" fill="#4EA72E" fill-rule="evenodd"/><path d="M2131 1295.5C2131 1280.86 2142.86 1269 2157.5 1269 2172.14 1269 2184 1280.86 2184 1295.5 2184 1310.14 2172.14 1322 2157.5 1322 2142.86 1322 2131 1310.14 2131 1295.5Z" fill="#4EA72E" fill-rule="evenodd"/><path d="M2255 1233.5C2255 1222.73 2263.73 1214 2274.5 1214 2285.27 1214 2294 1222.73 2294 1233.5 2294 1244.27 2285.27 1253 2274.5 1253 2263.73 1253 2255 1244.27 2255 1233.5Z" fill="#4EA72E" fill-rule="evenodd"/><path d="M1994 1660C1994 1641.77 2008.77 1627 2027 1627 2045.23 1627 2060 1641.77 2060 1660 2060 1678.23 2045.23 1693 2027 1693 2008.77 1693 1994 1678.23 1994 1660Z" fill="#4EA72E" fill-rule="evenodd"/><path d="M2131 1595.5C2131 1580.86 2142.86 1569 2157.5 1569 2172.14 1569 2184 1580.86 2184 1595.5 2184 1610.14 2172.14 1622 2157.5 1622 2142.86 1622 2131 1610.14 2131 1595.5Z" fill="#4EA72E" fill-rule="evenodd"/><path d="M2255 1533C2255 1521.95 2263.73 1513 2274.5 1513 2285.27 1513 2294 1521.95 2294 1533 2294 1544.05 2285.27 1553 2274.5 1553 2263.73 1553 2255 1544.05 2255 1533Z" fill="#4EA72E" fill-rule="evenodd"/><path d="M1994 1964C1994 1945.77 2008.77 1931 2027 1931 2045.23 1931 2060 1945.77 2060 1964 2060 1982.23 2045.23 1997 2027 1997 2008.77 1997 1994 1982.23 1994 1964Z" fill="#4EA72E" fill-rule="evenodd"/><path d="M2131 1899C2131 1884.64 2142.86 1873 2157.5 1873 2172.14 1873 2184 1884.64 2184 1899 2184 1913.36 2172.14 1925 2157.5 1925 2142.86 1925 2131 1913.36 2131 1899Z" fill="#4EA72E" fill-rule="evenodd"/><path d="M2255 1837C2255 1825.95 2263.73 1817 2274.5 1817 2285.27 1817 2294 1825.95 2294 1837 2294 1848.05 2285.27 1857 2274.5 1857 2263.73 1857 2255 1848.05 2255 1837Z" fill="#4EA72E" fill-rule="evenodd"/><path d="M1994 2307C1994 2288.77 2008.77 2274 2027 2274 2045.23 2274 2060 2288.77 2060 2307 2060 2325.23 2045.23 2340 2027 2340 2008.77 2340 1994 2325.23 1994 2307Z" fill="#0F9ED5" fill-rule="evenodd"/><path d="M2131 2241.5C2131 2226.86 2142.86 2215 2157.5 2215 2172.14 2215 2184 2226.86 2184 2241.5 2184 2256.14 2172.14 2268 2157.5 2268 2142.86 2268 2131 2256.14 2131 2241.5Z" fill="#0F9ED5" fill-rule="evenodd"/><path d="M2255 2179.5C2255 2168.73 2263.73 2160 2274.5 2160 2285.27 2160 2294 2168.73 2294 2179.5 2294 2190.27 2285.27 2199 2274.5 2199 2263.73 2199 2255 2190.27 2255 2179.5Z" fill="#0F9ED5" fill-rule="evenodd"/><path d="M1994 2209C1994 2190.77 2008.77 2176 2027 2176 2045.23 2176 2060 2190.77 2060 2209 2060 2227.23 2045.23 2242 2027 2242 2008.77 2242 1994 2227.23 1994 2209Z" fill="#4EA72E" fill-rule="evenodd"/><path d="M2131 2143.5C2131 2128.86 2142.86 2117 2157.5 2117 2172.14 2117 2184 2128.86 2184 2143.5 2184 2158.14 2172.14 2170 2157.5 2170 2142.86 2170 2131 2158.14 2131 2143.5Z" fill="#4EA72E" fill-rule="evenodd"/><path d="M2255 2081C2255 2069.95 2263.73 2061 2274.5 2061 2285.27 2061 2294 2069.95 2294 2081 2294 2092.05 2285.27 2101 2274.5 2101 2263.73 2101 2255 2092.05 2255 2081Z" fill="#4EA72E" fill-rule="evenodd"/><path d="M1994 2625C1994 2606.77 2008.77 2592 2027 2592 2045.23 2592 2060 2606.77 2060 2625 2060 2643.23 2045.23 2658 2027 2658 2008.77 2658 1994 2643.23 1994 2625Z" fill="#96DCF8" fill-rule="evenodd"/><path d="M2131 2560.5C2131 2545.86 2142.86 2534 2157.5 2534 2172.14 2534 2184 2545.86 2184 2560.5 2184 2575.14 2172.14 2587 2157.5 2587 2142.86 2587 2131 2575.14 2131 2560.5Z" fill="#96DCF8" fill-rule="evenodd"/><path d="M2255 2498C2255 2486.95 2263.73 2478 2274.5 2478 2285.27 2478 2294 2486.95 2294 2498 2294 2509.05 2285.27 2518 2274.5 2518 2263.73 2518 2255 2509.05 2255 2498Z" fill="#FFFFFF" fill-rule="evenodd"/><path d="M1994 2527C1994 2508.77 2008.77 2494 2027 2494 2045.23 2494 2060 2508.77 2060 2527 2060 2545.23 2045.23 2560 2027 2560 2008.77 2560 1994 2545.23 1994 2527Z" fill="#4EA72E" fill-rule="evenodd"/><path d="M2131 2462C2131 2447.64 2142.86 2436 2157.5 2436 2172.14 2436 2184 2447.64 2184 2462 2184 2476.36 2172.14 2488 2157.5 2488 2142.86 2488 2131 2476.36 2131 2462Z" fill="#4EA72E" fill-rule="evenodd"/><path d="M2255 2400C2255 2388.95 2263.73 2380 2274.5 2380 2285.27 2380 2294 2388.95 2294 2400 2294 2411.05 2285.27 2420 2274.5 2420 2263.73 2420 2255 2411.05 2255 2400Z" fill="#4EA72E" fill-rule="evenodd"/><path d="M1994 2965C1994 2946.77 2008.77 2932 2027 2932 2045.23 2932 2060 2946.77 2060 2965 2060 2983.23 2045.23 2998 2027 2998 2008.77 2998 1994 2983.23 1994 2965Z" fill="#0F9ED5" fill-rule="evenodd"/><path d="M2131 2900.5C2131 2885.86 2142.86 2874 2157.5 2874 2172.14 2874 2184 2885.86 2184 2900.5 2184 2915.14 2172.14 2927 2157.5 2927 2142.86 2927 2131 2915.14 2131 2900.5Z" fill="#0F9ED5" fill-rule="evenodd"/><path d="M2255 2838C2255 2826.95 2263.73 2818 2274.5 2818 2285.27 2818 2294 2826.95 2294 2838 2294 2849.05 2285.27 2858 2274.5 2858 2263.73 2858 2255 2849.05 2255 2838Z" fill="#FFFFFF" fill-rule="evenodd"/><path d="M1994 2867C1994 2848.77 2008.77 2834 2027 2834 2045.23 2834 2060 2848.77 2060 2867 2060 2885.23 2045.23 2900 2027 2900 2008.77 2900 1994 2885.23 1994 2867Z" fill="#4EA72E" fill-rule="evenodd"/><path d="M2131 2802.5C2131 2787.86 2142.86 2776 2157.5 2776 2172.14 2776 2184 2787.86 2184 2802.5 2184 2817.14 2172.14 2829 2157.5 2829 2142.86 2829 2131 2817.14 2131 2802.5Z" fill="#4EA72E" fill-rule="evenodd"/><path d="M2255 2740C2255 2728.95 2263.73 2720 2274.5 2720 2285.27 2720 2294 2728.95 2294 2740 2294 2751.05 2285.27 2760 2274.5 2760 2263.73 2760 2255 2751.05 2255 2740Z" fill="#4EA72E" fill-rule="evenodd"/><path d="M1994 3302C1994 3283.77 2008.77 3269 2027 3269 2045.23 3269 2060 3283.77 2060 3302 2060 3320.23 2045.23 3335 2027 3335 2008.77 3335 1994 3320.23 1994 3302Z" fill="#0F9ED5" fill-rule="evenodd"/><path d="M2131 3236.5C2131 3221.86 2142.86 3210 2157.5 3210 2172.14 3210 2184 3221.86 2184 3236.5 2184 3251.14 2172.14 3263 2157.5 3263 2142.86 3263 2131 3251.14 2131 3236.5Z" fill="#0F9ED5" fill-rule="evenodd"/><path d="M2255 3174.5C2255 3163.73 2263.73 3155 2274.5 3155 2285.27 3155 2294 3163.73 2294 3174.5 2294 3185.27 2285.27 3194 2274.5 3194 2263.73 3194 2255 3185.27 2255 3174.5Z" fill="#FFFFFF" fill-rule="evenodd"/><path d="M1994 3204C1994 3185.77 2008.77 3171 2027 3171 2045.23 3171 2060 3185.77 2060 3204 2060 3222.23 2045.23 3237 2027 3237 2008.77 3237 1994 3222.23 1994 3204Z" fill="#4EA72E" fill-rule="evenodd"/><path d="M2131 3138.5C2131 3123.86 2142.86 3112 2157.5 3112 2172.14 3112 2184 3123.86 2184 3138.5 2184 3153.14 2172.14 3165 2157.5 3165 2142.86 3165 2131 3153.14 2131 3138.5Z" fill="#4EA72E" fill-rule="evenodd"/><path d="M2255 3076.5C2255 3065.73 2263.73 3057 2274.5 3057 2285.27 3057 2294 3065.73 2294 3076.5 2294 3087.27 2285.27 3096 2274.5 3096 2263.73 3096 2255 3087.27 2255 3076.5Z" fill="#4EA72E" fill-rule="evenodd"/><path d="M1889.29 3489.57 1944.69 3461.04 1959.8 3490.38 1904.4 3518.91Z" fill="#FFFFFF" fill-rule="evenodd"/><text font-family="Aptos,Aptos_MSFontService,sans-serif" font-weight="400" font-size="60" transform="matrix(0.875707 -0.482843 0.482843 0.875707 1986.23 703)">’00    ‘25    ‘50</text><text font-family="Aptos,Aptos_MSFontService,sans-serif" font-weight="700" font-size="64" transform="matrix(0.885734 -0.464194 0.464194 0.885734 1953.57 642)">2000</text><text font-family="Aptos,Aptos_MSFontService,sans-serif" font-weight="700" font-size="64" transform="matrix(0.885734 -0.464194 0.464194 0.885734 2075.36 579)">–</text><text font-family="Aptos,Aptos_MSFontService,sans-serif" font-weight="700" font-size="64" transform="matrix(0.885734 -0.464194 0.464194 0.885734 2101.75 565)">2050</text><path d="M1889.29 1037.89 2364.53 807.579 2369.94 818.194 1904.27 1067.29Z" fill="#EAEAEA" fill-rule="evenodd"/><path d="M1889.29 1289.45 2364.53 1059.14 2369.94 1069.75 1904.27 1318.86Z" fill="#EAEAEA" fill-rule="evenodd"/><path d="M1889.29 766.579 2364.53 536.266 2369.94 546.881 1904.27 795.982Z" fill="#EAEAEA" fill-rule="evenodd"/><path d="M1889.29 1519.97 2364.53 1289.65 2369.94 1300.27 1904.27 1549.37Z" fill="#EAEAEA" fill-rule="evenodd"/><path d="M1889.29 1879.3 2364.53 1648.98 2369.94 1659.6 1904.27 1908.7Z" fill="#EAEAEA" fill-rule="evenodd"/><path d="M1889.29 2128.28 2364.53 1897.97 2369.94 1908.58 1904.27 2157.69Z" fill="#EAEAEA" fill-rule="evenodd"/><path d="M1889.29 2461.31 2364.53 2230.99 2369.94 2241.61 1904.27 2490.71Z" fill="#EAEAEA" fill-rule="evenodd"/><path d="M1889.29 2776.92 2364.53 2546.6 2369.94 2557.22 1904.27 2806.32Z" fill="#EAEAEA" fill-rule="evenodd"/><path d="M1889.29 3142.84 2364.53 2912.53 2369.94 2923.14 1904.27 3172.24Z" fill="#EAEAEA" fill-rule="evenodd"/><path d="M1890.82 3451.15 2366.05 3220.84 2371.46 3231.45 1905.8 3480.55Z" fill="#EAEAEA" fill-rule="evenodd"/><path d="M796.612 762.818 1257.15 539.996 1262.56 550.611 811.594 792.221Z" fill="#EAEAEA" fill-rule="evenodd"/><text font-family="Aptos,Aptos_MSFontService,sans-serif" font-weight="700" font-size="64" transform="matrix(1 0 0 1 841.608 667)">Countries</text><text font-family="Aptos,Aptos_MSFontService,sans-serif" font-weight="400" font-size="60" transform="matrix(1 0 0 1 937.858 740)">218</text></g></svg>