<svg width="2112" height="1544" xmlns="http://www.w3.org/2000/svg" xmlns:xlink="http://www.w3.org/1999/xlink" xml:space="preserve" overflow="hidden"><defs><clipPath id="clip0"><rect x="1144" y="551" width="2112" height="1544"/></clipPath></defs><g clip-path="url(#clip0)" transform="translate(-1144 -551)"><g><path d="M0 0 0.000360892 807" stroke="#D9D9D9" stroke-width="3.4375" stroke-linejoin="round" stroke-miterlimit="10" fill="none" fill-rule="evenodd" transform="matrix(1 0 0 -1 2128.5 1535.5)"/></g><g><path d="M1999.5 1391.5 2128.5 1391.5" stroke="#BFBFBF" stroke-width="3.4375" stroke-linejoin="round" stroke-miterlimit="10" fill="none"/></g><g><path d="M1999.5 1275.5 2128.5 1275.5" stroke="#BFBFBF" stroke-width="3.4375" stroke-linejoin="round" stroke-miterlimit="10" fill="none"/></g><g><path d="M1999.5 1218.5 2128.5 1218.5" stroke="#BFBFBF" stroke-width="3.4375" stroke-linejoin="round" stroke-miterlimit="10" fill="none"/></g><g><path d="M2386.5 987.5 2128.5 987.5" stroke="#BFBFBF" stroke-width="3.4375" stroke-linejoin="round" stroke-miterlimit="10" fill="none"/></g><g><path d="M2257.5 872.5 2128.5 872.5" stroke="#BFBFBF" stroke-width="3.4375" stroke-linejoin="round" stroke-miterlimit="10" fill="none"/></g><g><path d="M1999.5 815.5 2128.5 815.5" stroke="#BFBFBF" stroke-width="3.4375" stroke-linejoin="round" stroke-miterlimit="10" fill="none"/></g><g><path d="M2257.5 757.5 2128.5 757.5" stroke="#BFBFBF" stroke-width="3.4375" stroke-linejoin="round" stroke-miterlimit="10" fill="none"/></g><g><path d="M2151 1506C2151 1518.7 2140.7 1529 2128 1529 2115.3 1529 2105 1518.7 2105 1506 2105 1493.3 2115.3 1483 2128 1483 2140.7 1483 2151 1493.3 2151 1506Z" fill="#C57B57"/></g><g><path d="M2022.87 1390.8C2022.87 1403.51 2012.57 1413.8 1999.87 1413.8 1987.16 1413.8 1976.87 1403.51 1976.87 1390.8 1976.87 1378.1 1987.16 1367.8 1999.87 1367.8 2012.57 1367.8 2022.87 1378.1 2022.87 1390.8Z" fill="#00124D"/><path d="M2150.87 1333.8C2150.87 1346.51 2140.57 1356.8 2127.87 1356.8 2115.16 1356.8 2104.87 1346.51 2104.87 1333.8 2104.87 1321.1 2115.16 1310.8 2127.87 1310.8 2140.57 1310.8 2150.87 1321.1 2150.87 1333.8Z" fill="#00124D"/><path d="M2022.87 1275.8C2022.87 1288.51 2012.57 1298.8 1999.87 1298.8 1987.16 1298.8 1976.87 1288.51 1976.87 1275.8 1976.87 1263.1 1987.16 1252.8 1999.87 1252.8 2012.57 1252.8 2022.87 1263.1 2022.87 1275.8Z" fill="#00124D"/><path d="M2022.87 1217.8C2022.87 1230.51 2012.57 1240.8 1999.87 1240.8 1987.16 1240.8 1976.87 1230.51 1976.87 1217.8 1976.87 1205.1 1987.16 1194.8 1999.87 1194.8 2012.57 1194.8 2022.87 1205.1 2022.87 1217.8Z" fill="#00124D"/><path d="M2150.87 1160.8C2150.87 1173.51 2140.57 1183.8 2127.87 1183.8 2115.16 1183.8 2104.87 1173.51 2104.87 1160.8 2104.87 1148.1 2115.16 1137.8 2127.87 1137.8 2140.57 1137.8 2150.87 1148.1 2150.87 1160.8Z" fill="#00124D"/><path d="M2150.87 1102.8C2150.87 1115.51 2140.57 1125.8 2127.87 1125.8 2115.16 1125.8 2104.87 1115.51 2104.87 1102.8 2104.87 1090.1 2115.16 1079.8 2127.87 1079.8 2140.57 1079.8 2150.87 1090.1 2150.87 1102.8Z" fill="#00124D"/><path d="M2150.87 1045.8C2150.87 1058.51 2140.57 1068.8 2127.87 1068.8 2115.16 1068.8 2104.87 1058.51 2104.87 1045.8 2104.87 1033.1 2115.16 1022.8 2127.87 1022.8 2140.57 1022.8 2150.87 1033.1 2150.87 1045.8Z" fill="#00124D"/><path d="M2408.87 987.803C2408.87 1000.51 2398.57 1010.8 2385.87 1010.8 2373.16 1010.8 2362.87 1000.51 2362.87 987.803 2362.87 975.101 2373.16 964.804 2385.87 964.804 2398.57 964.804 2408.87 975.101 2408.87 987.803Z" fill="#00124D"/><path d="M2150.87 929.803C2150.87 942.505 2140.57 952.803 2127.87 952.803 2115.16 952.803 2104.87 942.505 2104.87 929.803 2104.87 917.101 2115.16 906.803 2127.87 906.803 2140.57 906.803 2150.87 917.101 2150.87 929.803Z" fill="#00124D"/><path d="M2279.87 872.803C2279.87 885.505 2269.57 895.803 2256.87 895.803 2244.16 895.803 2233.87 885.505 2233.87 872.803 2233.87 860.101 2244.16 849.803 2256.87 849.803 2269.57 849.803 2279.87 860.101 2279.87 872.803Z" fill="#00124D"/><path d="M2022.87 814.803C2022.87 827.505 2012.57 837.803 1999.87 837.803 1987.16 837.803 1976.87 827.505 1976.87 814.803 1976.87 802.101 1987.16 791.803 1999.87 791.803 2012.57 791.803 2022.87 802.101 2022.87 814.803Z" fill="#00124D"/><path d="M2279.87 757.803C2279.87 770.506 2269.57 780.803 2256.87 780.803 2244.16 780.803 2233.87 770.506 2233.87 757.803 2233.87 745.101 2244.16 734.804 2256.87 734.804 2269.57 734.804 2279.87 745.101 2279.87 757.803Z" fill="#00124D"/></g><g><text fill="#404040" font-family="Arial,Arial_MSFontService,sans-serif" font-weight="400" font-size="46" transform="matrix(1 0 0 1 2178.85 1523)">Flat</text></g><g><text fill="#404040" font-family="Arial,Arial_MSFontService,sans-serif" font-weight="400" font-size="46" transform="matrix(1 0 0 1 2049.97 1408)">Slightly down</text></g><g><text fill="#404040" font-family="Arial,Arial_MSFontService,sans-serif" font-weight="400" font-size="46" transform="matrix(1 0 0 1 2178.85 1350)">Flat</text></g><g><text fill="#404040" font-family="Arial,Arial_MSFontService,sans-serif" font-weight="400" font-size="46" transform="matrix(1 0 0 1 2049.97 1293)">Slightly down</text></g><g><text fill="#404040" font-family="Arial,Arial_MSFontService,sans-serif" font-weight="400" font-size="46" transform="matrix(1 0 0 1 2049.97 1235)">Slightly down</text></g><g><text fill="#404040" font-family="Arial,Arial_MSFontService,sans-serif" font-weight="400" font-size="46" transform="matrix(1 0 0 1 2178.85 1177)">Flat</text></g><g><text fill="#404040" font-family="Arial,Arial_MSFontService,sans-serif" font-weight="400" font-size="46" transform="matrix(1 0 0 1 2178.85 1120)">Flat</text></g><g><text fill="#404040" font-family="Arial,Arial_MSFontService,sans-serif" font-weight="400" font-size="46" transform="matrix(1 0 0 1 2178.85 1062)">Flat</text></g><g><text fill="#404040" font-family="Arial,Arial_MSFontService,sans-serif" font-weight="400" font-size="46" transform="matrix(1 0 0 1 2436.6 1005)">Modest</text></g><g><text fill="#404040" font-family="Arial,Arial_MSFontService,sans-serif" font-weight="400" font-size="46" transform="matrix(1 0 0 1 2178.85 947)">Flat</text></g><g><text fill="#404040" font-family="Arial,Arial_MSFontService,sans-serif" font-weight="400" font-size="46" transform="matrix(1 0 0 1 2307.72 889)">Slight</text></g><g><text fill="#404040" font-family="Arial,Arial_MSFontService,sans-serif" font-weight="400" font-size="46" transform="matrix(1 0 0 1 2049.97 832)">Slightly down</text></g><g><text fill="#404040" font-family="Arial,Arial_MSFontService,sans-serif" font-weight="400" font-size="46" transform="matrix(1 0 0 1 2307.72 774)">Slight</text></g><g><text font-family="Arial,Arial_MSFontService,sans-serif" font-weight="400" font-size="46" transform="matrix(1 0 0 1 1490.93 1521)">OVERALL</text></g><g><text font-family="Arial,Arial_MSFontService,sans-serif" font-weight="400" font-size="46" transform="matrix(1 0 0 1 1409.44 1406)">San Francisco</text></g><g><text font-family="Arial,Arial_MSFontService,sans-serif" font-weight="400" font-size="46" transform="matrix(1 0 0 1 1575.03 1349)">Dallas</text></g><g><text font-family="Arial,Arial_MSFontService,sans-serif" font-weight="400" font-size="46" transform="matrix(1 0 0 1 1457.84 1291)">Kansas City</text></g><g><text font-family="Arial,Arial_MSFontService,sans-serif" font-weight="400" font-size="46" transform="matrix(1 0 0 1 1457.84 1233)">Minneapolis</text></g><g><text font-family="Arial,Arial_MSFontService,sans-serif" font-weight="400" font-size="46" transform="matrix(1 0 0 1 1524.02 1176)">St. Louis</text></g><g><text font-family="Arial,Arial_MSFontService,sans-serif" font-weight="400" font-size="46" transform="matrix(1 0 0 1 1534.24 1118)">Chicago</text></g><g><text font-family="Arial,Arial_MSFontService,sans-serif" font-weight="400" font-size="46" transform="matrix(1 0 0 1 1559.68 1061)">Atlanta</text></g><g><text font-family="Arial,Arial_MSFontService,sans-serif" font-weight="400" font-size="46" transform="matrix(1 0 0 1 1496.06 1003)">Richmond</text></g><g><text font-family="Arial,Arial_MSFontService,sans-serif" font-weight="400" font-size="46" transform="matrix(1 0 0 1 1498.58 945)">Cleveland</text></g><g><text font-family="Arial,Arial_MSFontService,sans-serif" font-weight="400" font-size="46" transform="matrix(1 0 0 1 1452.71 888)">Philadelphia</text></g><g><text font-family="Arial,Arial_MSFontService,sans-serif" font-weight="400" font-size="46" transform="matrix(1 0 0 1 1503.72 830)">New York</text></g><g><text font-family="Arial,Arial_MSFontService,sans-serif" font-weight="400" font-size="46" transform="matrix(1 0 0 1 1559.68 773)">Boston</text></g><g><text font-family="Arial,Arial_MSFontService,sans-serif" font-weight="400" font-size="50" transform="matrix(1 0 0 1 1859.34 683)">12 Federal Reserve Districts</text></g><g><text font-family="Arial,Arial_MSFontService,sans-serif" font-weight="700" font-size="55" transform="matrix(1 0 0 1 1591.97 619)">CURRENT ECONOMIC GROWTH, OCT. 2025</text></g><g><rect x="1569" y="1770" width="19.0002" height="60.0001" fill="#C00000"/></g><g><rect x="1605" y="1770" width="18.9999" height="70.0001" fill="#C00000"/></g><g><rect x="2627" y="1770" width="20" height="1" fill="#C00000"/></g><g><rect x="3175" y="1770" width="19.0002" height="3.00012" fill="#C00000"/></g><g><path d="M1203.04 1701.06 1223.04 1701.06 1223.04 1769.06 1203.04 1769.06ZM1240.04 1707.06 1259.04 1707.06 1259.04 1769.06 1240.04 1769.06ZM1276.04 1701.06 1296.04 1701.06 1296.04 1769.06 1276.04 1769.06ZM1313.04 1699.06 1332.04 1699.06 1332.04 1769.06 1313.04 1769.06ZM1350.04 1708.06 1369.04 1708.06 1369.04 1769.06 1350.04 1769.06ZM1386.05 1712.06 1405.05 1712.06 1405.05 1769.06 1386.05 1769.06ZM1423.05 1724.06 1442.05 1724.06 1442.05 1769.06 1423.05 1769.06ZM1459.05 1718.06 1478.05 1718.06 1478.05 1769.06 1459.05 1769.06ZM1496.05 1706.06 1515.05 1706.06 1515.05 1769.06 1496.05 1769.06ZM1532.05 1704.06 1551.05 1704.06 1551.05 1769.06 1532.05 1769.06ZM1642.05 1739.06 1661.05 1739.06 1661.05 1769.06 1642.05 1769.06ZM1678.06 1731.06 1697.06 1731.06 1697.06 1769.06 1678.06 1769.06ZM1715.06 1722.06 1734.06 1722.06 1734.06 1769.06 1715.06 1769.06ZM1751.06 1714.06 1770.06 1714.06 1770.06 1769.06 1751.06 1769.06ZM1788.06 1735.06 1807.06 1735.06 1807.06 1769.06 1788.06 1769.06ZM1824.06 1723.06 1843.06 1723.06 1843.06 1769.06 1824.06 1769.06ZM1861.06 1665.05 1880.06 1665.05 1880.06 1769.06 1861.06 1769.06ZM1897.06 1658.05 1916.06 1658.05 1916.06 1769.06 1897.06 1769.06ZM1934.06 1654.05 1953.06 1654.05 1953.06 1769.06 1934.06 1769.06ZM1970.06 1659.05 1989.07 1659.05 1989.07 1769.06 1970.06 1769.06ZM2007.07 1679.06 2026.07 1679.06 2026.07 1769.06 2007.07 1769.06ZM2043.07 1673.05 2062.07 1673.05 2062.07 1769.06 2043.07 1769.06ZM2080.07 1698.06 2099.07 1698.06 2099.07 1769.06 2080.07 1769.06ZM2116.07 1686.06 2135.07 1686.06 2135.07 1769.06 2116.07 1769.06ZM2153.07 1664.05 2172.07 1664.05 2172.07 1769.06 2153.07 1769.06ZM2189.07 1698.06 2208.07 1698.06 2208.07 1769.06 2189.07 1769.06ZM2226.07 1727.06 2245.07 1727.06 2245.07 1769.06 2226.07 1769.06ZM2262.07 1735.06 2281.07 1735.06 2281.07 1769.06 2262.07 1769.06ZM2299.08 1745.06 2318.08 1745.06 2318.08 1769.06 2299.08 1769.06ZM2335.08 1745.06 2355.08 1745.06 2355.08 1769.06 2335.08 1769.06ZM2372.08 1758.06 2391.08 1758.06 2391.08 1769.06 2372.08 1769.06ZM2408.08 1735.06 2428.08 1735.06 2428.08 1769.06 2408.08 1769.06ZM2445.08 1757.06 2464.08 1757.06 2464.08 1769.06 2445.08 1769.06ZM2481.08 1758.06 2501.08 1758.06 2501.08 1769.06 2481.08 1769.06ZM2518.08 1758.06 2537.08 1758.06 2537.08 1769.06 2518.08 1769.06ZM2554.08 1745.06 2574.08 1745.06 2574.08 1769.06 2554.08 1769.06ZM2591.08 1762.06 2610.09 1762.06 2610.09 1769.06 2591.08 1769.06ZM2664.09 1760.06 2683.09 1760.06 2683.09 1769.06 2664.09 1769.06ZM2700.09 1750.06 2720.09 1750.06 2720.09 1769.06 2700.09 1769.06ZM2737.09 1737.06 2756.09 1737.06 2756.09 1769.06 2737.09 1769.06ZM2773.09 1746.06 2793.09 1746.06 2793.09 1769.06 2773.09 1769.06ZM2810.09 1754.06 2829.09 1754.06 2829.09 1769.06 2810.09 1769.06ZM2846.09 1768.06 2866.09 1768.06 2866.09 1769.06 2846.09 1769.06ZM2883.09 1761.06 2902.1 1761.06 2902.1 1769.06 2883.09 1769.06ZM2919.1 1746.06 2939.1 1746.06 2939.1 1769.06 2919.1 1769.06ZM2956.1 1728.06 2975.1 1728.06 2975.1 1769.06 2956.1 1769.06ZM2992.1 1754.06 3012.1 1754.06 3012.1 1769.06 2992.1 1769.06ZM3029.1 1771.06 3048.1 1771.06 3048.1 1769.06 3029.1 1769.06ZM3066.1 1791.06 3085.1 1791.06 3085.1 1769.06 3066.1 1769.06ZM3102.1 1757.06 3121.1 1757.06 3121.1 1769.06 3102.1 1769.06ZM3139.1 1762.06 3158.1 1762.06 3158.1 1769.06 3139.1 1769.06Z" fill="#1E3805"/></g><g><path d="M1194.5 1769.5 3203.5 1769.5" stroke="#D9D9D9" stroke-width="3.4375" stroke-linejoin="round" stroke-miterlimit="10" fill="none" fill-rule="evenodd"/></g><g><text font-family="Arial,Arial_MSFontService,sans-serif" font-weight="400" font-size="41" transform="matrix(1 0 0 1 1183.31 1831)">19-</text></g><g><text font-family="Arial,Arial_MSFontService,sans-serif" font-weight="400" font-size="41" transform="matrix(1 0 0 1 1475.41 1831)">20-</text></g><g><text font-family="Arial,Arial_MSFontService,sans-serif" font-weight="400" font-size="41" transform="matrix(1 0 0 1 1767.5 1831)">21-</text></g><g><text font-family="Arial,Arial_MSFontService,sans-serif" font-weight="400" font-size="41" transform="matrix(1 0 0 1 2059.6 1831)">22-</text></g><g><text font-family="Arial,Arial_MSFontService,sans-serif" font-weight="400" font-size="41" transform="matrix(1 0 0 1 2351.69 1831)">23-</text></g><g><text font-family="Arial,Arial_MSFontService,sans-serif" font-weight="400" font-size="41" transform="matrix(1 0 0 1 2643.79 1831)">24-</text></g><g><text font-family="Arial,Arial_MSFontService,sans-serif" font-weight="400" font-size="41" transform="matrix(1 0 0 1 2935.88 1831)">25-</text></g><text font-family="Aptos,Aptos_MSFontService,sans-serif" font-style="italic" font-weight="700" font-size="41" transform="matrix(1 0 0 1 1286.13 1934)">Scale</text><text font-family="Aptos,Aptos_MSFontService,sans-serif" font-weight="400" font-size="41" transform="matrix(1 0 0 1 1286.13 1984)">Sharply down </text><text font-family="Aptos,Aptos_MSFontService,sans-serif" font-weight="400" font-size="41" transform="matrix(1 0 0 1 1536.5 1984)">–</text><text font-family="Aptos,Aptos_MSFontService,sans-serif" font-weight="400" font-size="41" transform="matrix(1 0 0 1 1564 1984)">Down </text><text font-family="Aptos,Aptos_MSFontService,sans-serif" font-weight="400" font-size="41" transform="matrix(1 0 0 1 1676.29 1984)">–</text><text font-family="Aptos,Aptos_MSFontService,sans-serif" font-weight="400" font-size="41" transform="matrix(1 0 0 1 1703.79 1984)">Slightly down </text><text font-family="Aptos,Aptos_MSFontService,sans-serif" font-weight="400" font-size="41" transform="matrix(1 0 0 1 1949.57 1984)">–</text><text font-family="Aptos,Aptos_MSFontService,sans-serif" font-weight="400" font-size="41" transform="matrix(1 0 0 1 1977.07 1984)">Flat </text><text font-family="Aptos,Aptos_MSFontService,sans-serif" font-weight="400" font-size="41" transform="matrix(1 0 0 1 2053.27 1984)">–</text><text font-family="Aptos,Aptos_MSFontService,sans-serif" font-weight="400" font-size="41" transform="matrix(1 0 0 1 2080.77 1984)">Slight </text><text font-family="Aptos,Aptos_MSFontService,sans-serif" font-weight="400" font-size="41" transform="matrix(1 0 0 1 2189.62 1984)">–</text><text font-family="Aptos,Aptos_MSFontService,sans-serif" font-weight="400" font-size="41" transform="matrix(1 0 0 1 2217.12 1984)">Modest </text><text font-family="Aptos,Aptos_MSFontService,sans-serif" font-weight="400" font-size="41" transform="matrix(1 0 0 1 2359.2 1984)">–</text><text font-family="Aptos,Aptos_MSFontService,sans-serif" font-weight="400" font-size="41" transform="matrix(1 0 0 1 2386.7 1984)">Modest to moderate </text><text font-family="Aptos,Aptos_MSFontService,sans-serif" font-weight="400" font-size="41" transform="matrix(1 0 0 1 2755.09 1984)">–</text><text font-family="Aptos,Aptos_MSFontService,sans-serif" font-weight="400" font-size="41" transform="matrix(1 0 0 1 2782.59 1984)">Moderate </text><text font-family="Aptos,Aptos_MSFontService,sans-serif" font-weight="400" font-size="41" transform="matrix(1 0 0 1 2961.91 1984)">–</text><text font-family="Aptos,Aptos_MSFontService,sans-serif" font-weight="400" font-size="41" transform="matrix(1 0 0 1 2989.41 1984)">Solid</text><text font-family="Aptos,Aptos_MSFontService,sans-serif" font-weight="400" font-size="41" transform="matrix(1 0 0 1 1286.13 2058)">Source: Federal Reserve Beige Book, October 15, 2025; Tellusant analysis</text></g></svg>