<svg width="1915" height="1531" xmlns="http://www.w3.org/2000/svg" xmlns:xlink="http://www.w3.org/1999/xlink" xml:space="preserve" overflow="hidden"><defs><clipPath id="clip0"><rect x="188" y="805" width="1915" height="1531"/></clipPath></defs><g clip-path="url(#clip0)" transform="translate(-188 -805)"><text font-family="Arial,Arial_MSFontService,sans-serif" font-weight="700" font-size="64" transform="matrix(1 0 0 1 337.447 887)">W</text><text font-family="Arial,Arial_MSFontService,sans-serif" font-weight="400" font-size="64" transform="matrix(1 0 0 1 398.176 887)">e </text><text font-family="Arial,Arial_MSFontService,sans-serif" font-weight="400" font-size="64" transform="matrix(1 0 0 1 451.457 887)">analyzed 5</text><text font-family="Arial,Arial_MSFontService,sans-serif" font-weight="400" font-size="64" transform="matrix(1 0 0 1 760.832 887)">-</text><text font-family="Arial,Arial_MSFontService,sans-serif" font-weight="400" font-size="64" transform="matrix(1 0 0 1 782.03 887)">year strategic forecasting errors in </text><text font-family="Arial,Arial_MSFontService,sans-serif" font-weight="400" font-size="64" transform="matrix(1 0 0 1 337.447 964)">53 industries using three methods</text><text font-family="Arial,Arial_MSFontService,sans-serif" font-weight="400" font-size="64" transform="matrix(1 0 0 1 1297.08 964)">.</text><g><path d="M1697.06 1993.07 674 1993.07 674 1865.06 1697.06 1865.06ZM1605.05 1741.06 674 1741.06 674 1612.05 1605.05 1612.05ZM1367.04 1488.05 674 1488.05 674 1359.04 1367.04 1359.04Z" fill="#C57B57"/></g><g><path d="M0 0 0.000360892 758" stroke="#D9D9D9" stroke-width="3.4375" stroke-linejoin="round" stroke-miterlimit="10" fill="none" fill-rule="evenodd" transform="matrix(1 0 0 -1 674.5 2055.5)"/></g><g><text font-family="Arial,Arial_MSFontService,sans-serif" font-weight="400" font-size="55" transform="matrix(1 0 0 1 1715.52 1949)">22.3%</text></g><g><text font-family="Arial,Arial_MSFontService,sans-serif" font-weight="400" font-size="55" transform="matrix(1 0 0 1 1632.66 1696)">20.3%</text></g><g><text font-family="Arial,Arial_MSFontService,sans-serif" font-weight="400" font-size="55" transform="matrix(1 0 0 1 1394.25 1443)">15.1%</text></g><g><text font-family="Arial,Arial_MSFontService,sans-serif" font-weight="400" font-size="55" transform="matrix(1 0 0 1 285.765 1947)">Naïve method</text></g><g><text font-family="Arial,Arial_MSFontService,sans-serif" font-weight="400" font-size="55" transform="matrix(1 0 0 1 310.172 1694)">GDP method</text></g><g><text font-family="Arial,Arial_MSFontService,sans-serif" font-weight="400" font-size="55" transform="matrix(1 0 0 1 439.732 1379)">Moving</text></g><g><text font-family="Arial,Arial_MSFontService,sans-serif" font-weight="400" font-size="55" transform="matrix(1 0 0 1 429.041 1442)">average</text></g><g><text font-family="Arial,Arial_MSFontService,sans-serif" font-weight="400" font-size="55" transform="matrix(1 0 0 1 436.673 1505)">method</text></g><g><text font-family="Arial,Arial_MSFontService,sans-serif" font-weight="700" font-size="60" transform="matrix(1 0 0 1 974.895 1084)">MAPE</text></g><g><text font-family="Arial,Arial_MSFontService,sans-serif" font-weight="400" font-size="55" transform="matrix(1 0 0 1 674.159 1148)">Mean average percentage error</text></g><text font-family="Arial,Arial_MSFontService,sans-serif" font-weight="400" font-size="50" transform="matrix(1 0 0 1 221.215 2233)">* MAPE is adjusted for the well</text><text font-family="Arial,Arial_MSFontService,sans-serif" font-weight="400" font-size="50" transform="matrix(1 0 0 1 909.861 2233)">-</text><text font-family="Arial,Arial_MSFontService,sans-serif" font-weight="400" font-size="50" transform="matrix(1 0 0 1 926.476 2233)">known “</text><text font-family="Arial,Arial_MSFontService,sans-serif" font-weight="400" font-size="50" transform="matrix(1 0 0 1 1102.93 2233)">right</text><text font-family="Arial,Arial_MSFontService,sans-serif" font-weight="400" font-size="50" transform="matrix(1 0 0 1 1200.9 2233)">-</text><text font-family="Arial,Arial_MSFontService,sans-serif" font-weight="400" font-size="50" transform="matrix(1 0 0 1 1217.52 2233)">skew problem</text><text font-family="Arial,Arial_MSFontService,sans-serif" font-weight="400" font-size="50" transform="matrix(1 0 0 1 1528.61 2233)">”</text><text font-family="Arial,Arial_MSFontService,sans-serif" font-weight="400" font-size="50" transform="matrix(1 0 0 1 1558.98 2233)">to avoid excess errors</text><text font-family="Arial,Arial_MSFontService,sans-serif" font-weight="400" font-size="50" transform="matrix(1 0 0 1 221.215 2294)">Source: Tellusant (</text><text font-family="Arial,Arial_MSFontService,sans-serif" font-weight="400" font-size="50" transform="matrix(1 0 0 1 644.028 2294)">202</text><text font-family="Arial,Arial_MSFontService,sans-serif" font-weight="400" font-size="50" transform="matrix(1 0 0 1 728.247 2294)">6</text><text font-family="Arial,Arial_MSFontService,sans-serif" font-weight="400" font-size="50" transform="matrix(1 0 0 1 756.32 2294)">): </text><text font-family="Arial,Arial_MSFontService,sans-serif" font-weight="400" font-size="50" transform="matrix(1 0 0 1 800.434 2294)">The Cost of </text><text font-family="Arial,Arial_MSFontService,sans-serif" font-weight="400" font-size="50" transform="matrix(1 0 0 1 1074.29 2294)">Errors</text><text font-family="Arial,Arial_MSFontService,sans-serif" font-weight="400" font-size="50" transform="matrix(1 0 0 1 1211.22 2294)">; BEA</text><path d="M1068 1239 1101 1272 1068 1305Z" fill="#00124D" fill-rule="evenodd"/><path d="M1525 1305 1492 1272 1525 1239Z" fill="#00124D" fill-rule="evenodd"/><text font-family="Arial,Arial_MSFontService,sans-serif" font-weight="400" font-size="46" transform="matrix(1 0 0 1 1191.5 1289)">Acceptable</text><text font-family="Arial,Arial_MSFontService,sans-serif" font-weight="400" font-size="46" transform="matrix(1 0 0 1 678.434 1289)">Great</text><text font-family="Arial,Arial_MSFontService,sans-serif" font-weight="400" font-size="46" transform="matrix(1 0 0 1 905.133 1289)">Good</text><path d="M1065 1305 1032 1272 1065 1239Z" fill="#00124D" fill-rule="evenodd"/><path d="M849 1239 882 1272 849 1305Z" fill="#00124D" fill-rule="evenodd"/><path d="M846 1305 813 1272 846 1239Z" fill="#00124D" fill-rule="evenodd"/><path d="M625 1239 658 1272 625 1305Z" fill="#00124D" fill-rule="evenodd"/><text font-family="Trebuchet MS,Trebuchet MS_MSFontService,sans-serif" font-weight="400" font-size="50" transform="matrix(1 0 0 1 719.535 2132)">5% = Target</text><path d="M0 0 0.000360892 724.625" stroke="#000000" stroke-width="4.58333" stroke-miterlimit="8" fill="none" fill-rule="evenodd" transform="matrix(-1 0 0 1 846.5 1335.5)"/><path d="M816 2063 846 2030 876 2063Z" fill-rule="evenodd"/></g></svg>